<svg width="1306" height="857" xmlns="http://www.w3.org/2000/svg" xmlns:xlink="http://www.w3.org/1999/xlink" xml:space="preserve" overflow="hidden"><g transform="translate(-999 -650)"><g><rect x="1974" y="793" width="311" height="416" fill="#000000" fill-opacity="1"/><text fill="#FFFFFF" fill-opacity="1" font-family="Roboto,Roboto_MSFontService,sans-serif" font-style="normal" font-variant="normal" font-weight="400" font-stretch="normal" font-size="83" text-anchor="start" direction="ltr" writing-mode="lr-tb" unicode-bidi="normal" text-decoration="none" transform="matrix(1 0 0 1 2007.73 887)">Device</text><path d="M3.02362-4.86632 202.142 118.853 196.095 128.586-3.02362 4.86632ZM203.323 106.097 223.45 138.838 185.181 135.295Z" fill="#000000" fill-rule="nonzero" fill-opacity="1" transform="matrix(-1 0 0 1 2129.95 1209.5)"/><path d="M1878.45 1340.07 1665.19 1227.91 1670.52 1217.76 1883.78 1329.93ZM1884.05 1317.12 1906.47 1348.34 1868.05 1347.55ZM1664.92 1240.71 1642.5 1209.5 1680.92 1210.29Z" fill="#C59C52" fill-rule="nonzero" fill-opacity="1"/><path d="M28.0127 8.28841 233.015 116.339 227.673 126.476 22.6701 18.425ZM22.3956 31.2328 0 0 38.4236 0.823183ZM233.29 103.531 255.685 134.764 217.262 133.941Z" fill="#C59C52" fill-rule="nonzero" fill-opacity="1" transform="matrix(-1 0 0 1 1643.19 1209.5)"/><path d="M1359.55 1334.62 1177.46 1229.76 1183.18 1219.83 1365.27 1324.69ZM1366.02 1311.9 1387.23 1343.95 1348.87 1341.69ZM1176.71 1242.55 1155.5 1210.5 1193.87 1212.76Z" fill="#789A47" fill-rule="nonzero" fill-opacity="1"/><path d="M1972.86 801.847 1733.95 723.838 1737.51 712.945 1976.41 790.955ZM1735.84 736.509 1708.5 709.5 1746.51 703.831Z" fill="#000000" fill-rule="nonzero" fill-opacity="1"/><path d="M28.9288 4.06501 309.645 102.418 305.856 113.232 25.14 14.8788ZM26.7583 27.5871 0 0 38.1246-4.85437Z" fill="#789A47" fill-rule="nonzero" fill-opacity="1" transform="matrix(-1 0 0 1 1618.25 688.5)"/><path d="M1517.45 801.926 1240.47 722.871 1243.62 711.853 1520.59 790.908ZM1242.84 735.462 1214.5 709.5 1252.27 702.407Z" fill="#C59C52" fill-rule="nonzero" fill-opacity="1"/><rect x="1179" y="1343" width="416" height="141" fill="#9AA8BC" fill-opacity="1"/><text fill="#000000" fill-opacity="1" font-family="Roboto,Roboto_MSFontService,sans-serif" font-style="normal" font-variant="normal" font-weight="400" font-stretch="normal" font-size="73" text-anchor="start" direction="ltr" writing-mode="lr-tb" unicode-bidi="normal" text-decoration="none" transform="matrix(1 0 0 1 1226.52 1440)">Driver MD</text><rect x="1698" y="1348" width="416" height="140" fill="#9AA8BC" fill-opacity="1"/><text fill="#000000" fill-opacity="1" font-family="Roboto,Roboto_MSFontService,sans-serif" font-style="normal" font-variant="normal" font-weight="400" font-stretch="normal" font-size="73" text-anchor="start" direction="ltr" writing-mode="lr-tb" unicode-bidi="normal" text-decoration="none" transform="matrix(1 0 0 1 1732.14 1444)">Device MD</text><path d="M1673.5 657.5 1743.5 692.5 1673.5 727.5Z" stroke="#000000" stroke-width="9.16667" stroke-linecap="butt" stroke-linejoin="round" stroke-miterlimit="10" stroke-opacity="1" fill="#324965" fill-rule="evenodd" fill-opacity="1"/><path d="M1673.5 727.5 1673.5 797.034" stroke="#000000" stroke-width="9.16667" stroke-linecap="butt" stroke-linejoin="round" stroke-miterlimit="10" stroke-opacity="1" fill="#324965" fill-rule="evenodd" fill-opacity="1"/><path d="M1618 654 1688 688.5 1618 723Z" stroke="#789A47" stroke-width="5.72917" stroke-linecap="butt" stroke-linejoin="round" stroke-miterlimit="10" stroke-opacity="1" fill="#CBE4AA" fill-rule="evenodd" fill-opacity="1"/><path d="M1618.5 723.5 1618.5 793.034" stroke="#567623" stroke-width="9.16667" stroke-linecap="butt" stroke-linejoin="round" stroke-miterlimit="10" stroke-opacity="1" fill="#80B135" fill-rule="evenodd" fill-opacity="1"/><rect x="1487" y="796" width="311" height="413" fill="#FFD372" fill-opacity="1"/><text fill="#000000" fill-opacity="1" font-family="Roboto,Roboto_MSFontService,sans-serif" font-style="normal" font-variant="normal" font-weight="400" font-stretch="normal" font-size="83" text-anchor="start" direction="ltr" writing-mode="lr-tb" unicode-bidi="normal" text-decoration="none" transform="matrix(1 0 0 1 1545.8 891)">Driver</text><path d="M1645.65 1050.39 1642.89 1052.11 1640.72 1053.61 1638.98 1054.97 1637.67 1056.18 1638.15 1055.67 1636.07 1058.24 1636.83 1056.89 1636.03 1059.12 1636.22 1056.77 1636.57 1058.7 1635.62 1056.63 1636.97 1058.28 1635.89 1057.32 1638.09 1058.74 1637.37 1058.36 1640.27 1059.57 1643.28 1060.44 1646.86 1061.25 1655.02 1062.68 1663.2 1063.94 1667.01 1064.6 1670.44 1065.33C1672.14 1065.69 1673.49 1066.98 1673.92 1068.66L1674.88 1072.4 1675.58 1075.68 1675.97 1078.5 1676.06 1081.01C1676.07 1081.26 1676.06 1081.51 1676.02 1081.76L1675.8 1083.38C1675.75 1083.71 1675.67 1084.03 1675.55 1084.34L1675.07 1085.65C1674.88 1086.14 1674.62 1086.59 1674.29 1086.99L1672.59 1089.02C1672.34 1089.31 1672.06 1089.57 1671.75 1089.8L1669.18 1091.65 1665.84 1094.03 1664.21 1095.41 1662.4 1097.18 1660.46 1099.41 1658.37 1102.19 1658.03 1096.26 1659.75 1098.06 1662.06 1100.38 1664.81 1103.37 1667.47 1106.88C1667.64 1107.1 1667.78 1107.33 1667.9 1107.57L1669.58 1110.92C1669.73 1111.21 1669.84 1111.51 1669.93 1111.83L1670.36 1113.53C1670.44 1113.82 1670.49 1114.12 1670.5 1114.42L1670.6 1116.11C1670.62 1116.47 1670.59 1116.83 1670.53 1117.19L1670.22 1118.86C1670.15 1119.25 1670.03 1119.62 1669.87 1119.98L1669.1 1121.61C1668.94 1121.95 1668.75 1122.27 1668.51 1122.56L1667.23 1124.13C1667.03 1124.38 1666.81 1124.6 1666.56 1124.8L1664.71 1126.3C1664.45 1126.51 1664.16 1126.7 1663.86 1126.85L1661.01 1128.26 1657.17 1129.73 1649.43 1132 1645.84 1132.87 1642.96 1133.5 1641 1133.9 1640.26 1134.04 1643.79 1130.84 1642.15 1136.4 1642.21 1134.04 1643.63 1139.98 1634.71 1142.1 1633.29 1136.16C1633.11 1135.38 1633.13 1134.57 1633.36 1133.8L1635 1128.24C1635.49 1126.59 1636.85 1125.36 1638.54 1125.04L1639.18 1124.91 1641 1124.54 1643.69 1123.95 1646.87 1123.19 1653.93 1121.15 1656.95 1120.04 1659.79 1118.63 1658.94 1119.18 1660.79 1117.68 1660.12 1118.35 1661.39 1116.78 1660.8 1117.72 1661.56 1116.09 1661.21 1117.21 1661.51 1115.54 1661.45 1116.62 1661.35 1114.93 1661.49 1115.82 1661.05 1114.12 1661.39 1115.03 1659.71 1111.68 1660.14 1112.38 1658.06 1109.56 1655.59 1106.86 1653.12 1104.4 1651.4 1102.6C1649.85 1100.97 1649.7 1098.46 1651.06 1096.67L1653.58 1093.35 1656.01 1090.61 1658.32 1088.39 1660.52 1086.56 1663.83 1084.2 1666.4 1082.35 1665.56 1083.13 1667.26 1081.1 1666.48 1082.44 1666.96 1081.14 1666.72 1082.11 1666.94 1080.5 1666.9 1081.24 1666.89 1079.74 1666.61 1077.56 1666.01 1074.69 1665.04 1070.95 1668.53 1074.29 1665.44 1073.63 1661.8 1073 1653.43 1071.71 1644.81 1070.19 1640.66 1069.22 1636.75 1068.03 1633.84 1066.82C1633.59 1066.72 1633.35 1066.59 1633.12 1066.44L1630.92 1065.02C1630.52 1064.76 1630.16 1064.44 1629.85 1064.06L1628.51 1062.41C1628.02 1061.81 1627.69 1061.09 1627.55 1060.33L1627.2 1058.4C1627.06 1057.61 1627.13 1056.8 1627.4 1056.05L1628.19 1053.81C1628.37 1053.32 1628.62 1052.87 1628.95 1052.46L1631.04 1049.89C1631.18 1049.71 1631.35 1049.54 1631.52 1049.38L1633.35 1047.74 1635.52 1046.07 1638.04 1044.33 1640.8 1042.61ZM1650.5 1132.01 1647.06 1162.56 1624.68 1141.47Z" fill="#000000" fill-rule="nonzero" fill-opacity="1"/><path d="M1671.61 937.458 1624.79 1018.54" stroke="#000000" stroke-width="3.4375" stroke-linecap="butt" stroke-linejoin="round" stroke-miterlimit="10" stroke-opacity="1" fill="none" fill-rule="evenodd"/><path d="M1688.75 953.902 1607.66 1000.72" stroke="#000000" stroke-width="3.4375" stroke-linecap="butt" stroke-linejoin="round" stroke-miterlimit="10" stroke-opacity="1" fill="none" fill-rule="evenodd"/><path d="M1688.75 1000.03 1607.66 953.21" stroke="#000000" stroke-width="3.4375" stroke-linecap="butt" stroke-linejoin="round" stroke-miterlimit="10" stroke-opacity="1" fill="none" fill-rule="evenodd"/><path d="M1671.61 1020.07 1624.79 938.983" stroke="#000000" stroke-width="3.4375" stroke-linecap="butt" stroke-linejoin="round" stroke-miterlimit="10" stroke-opacity="1" fill="none" fill-rule="evenodd"/><path d="M1601.5 979.5 1695.13 979.5" stroke="#000000" stroke-width="3.4375" stroke-linecap="butt" stroke-linejoin="round" stroke-miterlimit="10" stroke-opacity="1" fill="none" fill-rule="evenodd"/><path d="M1648.5 932.5 1648.5 1026.13" stroke="#000000" stroke-width="3.4375" stroke-linecap="butt" stroke-linejoin="round" stroke-miterlimit="10" stroke-opacity="1" fill="none" fill-rule="evenodd"/><path d="M1616 979C1616 961.327 1630.33 947 1648 947 1665.67 947 1680 961.327 1680 979 1680 996.673 1665.67 1011 1648 1011 1630.33 1011 1616 996.673 1616 979Z" stroke="#000000" stroke-width="5.72917" stroke-linecap="butt" stroke-linejoin="round" stroke-miterlimit="10" stroke-opacity="1" fill="#000000" fill-rule="evenodd" fill-opacity="1"/><path d="M1680 979.525C1679.71 997.196 1665.15 1011.29 1647.47 1011 1629.8 1010.71 1615.71 996.145 1616 978.474 1616.29 961.133 1630.34 947.175 1647.68 947.002L1648 979Z" stroke="#DDE2E9" stroke-width="5.72917" stroke-linecap="butt" stroke-linejoin="round" stroke-miterlimit="10" stroke-opacity="1" fill="#DDE2E9" fill-rule="evenodd" fill-opacity="1"/><path d="M1601 979C1601 953.043 1622.04 932 1648 932 1673.96 932 1695 953.043 1695 979 1695 1004.96 1673.96 1026 1648 1026 1622.04 1026 1601 1004.96 1601 979Z" stroke="#000000" stroke-width="5.72917" stroke-linecap="butt" stroke-linejoin="round" stroke-miterlimit="10" stroke-opacity="1" fill="none" fill-rule="evenodd"/><path d="M1127.5 657.5 1196.5 692.5 1127.5 727.5Z" stroke="#961800" stroke-width="9.16667" stroke-linecap="butt" stroke-linejoin="round" stroke-miterlimit="10" stroke-opacity="1" fill="#BC7268" fill-rule="evenodd" fill-opacity="1"/><path d="M1127.5 727.5 1127.5 797.034" stroke="#961800" stroke-width="9.16667" stroke-linecap="butt" stroke-linejoin="round" stroke-miterlimit="10" stroke-opacity="1" fill="#BC7268" fill-rule="evenodd" fill-opacity="1"/><path d="M1179.5 657.5 1249.5 692.5 1179.5 727.5Z" stroke="#B87E00" stroke-width="9.16667" stroke-linecap="butt" stroke-linejoin="round" stroke-miterlimit="10" stroke-opacity="1" fill="#FFB515" fill-rule="evenodd" fill-opacity="1"/><path d="M1179.5 727.5 1179.5 797.034" stroke="#B87E00" stroke-width="9.16667" stroke-linecap="butt" stroke-linejoin="round" stroke-miterlimit="10" stroke-opacity="1" fill="#FFB515" fill-rule="evenodd" fill-opacity="1"/><rect x="1000" y="798" width="310" height="412" fill="#CBE4AA" fill-opacity="1"/><text fill="#000000" fill-opacity="1" font-family="Roboto,Roboto_MSFontService,sans-serif" font-style="normal" font-variant="normal" font-weight="400" font-stretch="normal" font-size="83" text-anchor="start" direction="ltr" writing-mode="lr-tb" unicode-bidi="normal" text-decoration="none" transform="matrix(1 0 0 1 1091.04 892)">Virt</text><path d="M1157.65 1051.39 1154.89 1053.11 1152.72 1054.61 1150.98 1055.97 1149.67 1057.18 1150.15 1056.67 1148.07 1059.24 1148.83 1057.89 1148.03 1060.12 1148.22 1057.77 1148.57 1059.7 1147.62 1057.63 1148.97 1059.28 1147.89 1058.32 1150.09 1059.74 1149.37 1059.36 1152.27 1060.57 1155.28 1061.44 1158.86 1062.25 1167.02 1063.68 1175.2 1064.94 1179.01 1065.6 1182.44 1066.33C1184.14 1066.69 1185.49 1067.98 1185.92 1069.66L1186.89 1073.4 1187.58 1076.68 1187.97 1079.5 1188.06 1082.01C1188.07 1082.26 1188.06 1082.51 1188.02 1082.76L1187.8 1084.38C1187.75 1084.71 1187.67 1085.03 1187.55 1085.34L1187.07 1086.65C1186.88 1087.14 1186.62 1087.59 1186.29 1087.99L1184.59 1090.02C1184.34 1090.31 1184.06 1090.57 1183.75 1090.8L1181.18 1092.65 1177.84 1095.03 1176.21 1096.41 1174.4 1098.18 1172.46 1100.41 1170.37 1103.19 1170.03 1097.26 1171.75 1099.06 1174.06 1101.38 1176.81 1104.37 1179.47 1107.88C1179.64 1108.1 1179.78 1108.33 1179.9 1108.57L1181.58 1111.92C1181.73 1112.21 1181.84 1112.51 1181.93 1112.83L1182.36 1114.53C1182.44 1114.82 1182.49 1115.12 1182.5 1115.42L1182.6 1117.11C1182.62 1117.47 1182.6 1117.83 1182.53 1118.19L1182.22 1119.86C1182.15 1120.25 1182.03 1120.62 1181.87 1120.98L1181.1 1122.61C1180.94 1122.95 1180.75 1123.27 1180.51 1123.56L1179.23 1125.13C1179.03 1125.37 1178.81 1125.6 1178.56 1125.8L1176.71 1127.3C1176.45 1127.51 1176.16 1127.7 1175.86 1127.85L1173.01 1129.26 1169.17 1130.73 1161.43 1133 1157.84 1133.87 1154.96 1134.5 1153 1134.9 1152.26 1135.04 1155.79 1131.84 1154.15 1137.4 1154.21 1135.04 1155.63 1140.98 1146.71 1143.1 1145.29 1137.16C1145.11 1136.38 1145.13 1135.57 1145.36 1134.8L1147 1129.24C1147.49 1127.59 1148.85 1126.36 1150.54 1126.04L1151.18 1125.91 1153 1125.54 1155.69 1124.95 1158.87 1124.19 1165.93 1122.15 1168.95 1121.04 1171.79 1119.63 1170.94 1120.18 1172.79 1118.68 1172.12 1119.35 1173.39 1117.78 1172.8 1118.72 1173.56 1117.09 1173.21 1118.21 1173.51 1116.54 1173.45 1117.62 1173.35 1115.93 1173.49 1116.82 1173.05 1115.12 1173.39 1116.03 1171.71 1112.68 1172.14 1113.38 1170.06 1110.56 1167.59 1107.86 1165.12 1105.4 1163.4 1103.6C1161.85 1101.97 1161.7 1099.46 1163.06 1097.67L1165.58 1094.35 1168.01 1091.61 1170.32 1089.39 1172.52 1087.56 1175.83 1085.2 1178.4 1083.35 1177.56 1084.13 1179.26 1082.1 1178.48 1083.44 1178.96 1082.14 1178.72 1083.11 1178.94 1081.5 1178.9 1082.24 1178.89 1080.74 1178.61 1078.56 1178.01 1075.69 1177.05 1071.95 1180.53 1075.29 1177.44 1074.63 1173.8 1074 1165.43 1072.71 1156.81 1071.19 1152.66 1070.22 1148.75 1069.03 1145.84 1067.82C1145.59 1067.72 1145.35 1067.59 1145.12 1067.44L1142.92 1066.02C1142.52 1065.76 1142.16 1065.44 1141.85 1065.06L1140.51 1063.41C1140.02 1062.81 1139.69 1062.09 1139.55 1061.33L1139.2 1059.4C1139.06 1058.61 1139.13 1057.8 1139.4 1057.05L1140.19 1054.81C1140.37 1054.32 1140.62 1053.87 1140.95 1053.46L1143.04 1050.89C1143.18 1050.71 1143.35 1050.54 1143.52 1050.38L1145.35 1048.74 1147.52 1047.07 1150.04 1045.33 1152.8 1043.61ZM1162.5 1133.01 1159.06 1163.56 1136.68 1142.47Z" fill="#000000" fill-rule="nonzero" fill-opacity="1"/><path d="M1185.3 938.767 1138.49 1019.85" stroke="#000000" stroke-width="3.4375" stroke-linecap="butt" stroke-linejoin="round" stroke-miterlimit="10" stroke-opacity="1" fill="none" fill-rule="evenodd"/><path d="M1202.44 955.21 1121.35 1002.03" stroke="#000000" stroke-width="3.4375" stroke-linecap="butt" stroke-linejoin="round" stroke-miterlimit="10" stroke-opacity="1" fill="none" fill-rule="evenodd"/><path d="M1202.44 1001.33 1121.35 954.519" stroke="#000000" stroke-width="3.4375" stroke-linecap="butt" stroke-linejoin="round" stroke-miterlimit="10" stroke-opacity="1" fill="none" fill-rule="evenodd"/><path d="M1185.3 1021.38 1138.49 940.292" stroke="#000000" stroke-width="3.4375" stroke-linecap="butt" stroke-linejoin="round" stroke-miterlimit="10" stroke-opacity="1" fill="none" fill-rule="evenodd"/><path d="M1115.5 980.5 1209.13 980.5" stroke="#000000" stroke-width="3.4375" stroke-linecap="butt" stroke-linejoin="round" stroke-miterlimit="10" stroke-opacity="1" fill="none" fill-rule="evenodd"/><path d="M1162.5 933.5 1162.5 1027.13" stroke="#000000" stroke-width="3.4375" stroke-linecap="butt" stroke-linejoin="round" stroke-miterlimit="10" stroke-opacity="1" fill="none" fill-rule="evenodd"/><path d="M1130 980C1130 962.327 1144.33 948 1162 948 1179.67 948 1194 962.327 1194 980 1194 997.673 1179.67 1012 1162 1012 1144.33 1012 1130 997.673 1130 980Z" stroke="#000000" stroke-width="5.72917" stroke-linecap="butt" stroke-linejoin="round" stroke-miterlimit="10" stroke-opacity="1" fill="#000000" fill-rule="evenodd" fill-opacity="1"/><path d="M1194 980.525C1193.71 998.196 1179.15 1012.29 1161.47 1012 1143.8 1011.71 1129.71 997.145 1130 979.474 1130.29 962.133 1144.34 948.175 1161.68 948.002L1162 980Z" stroke="#DDE2E9" stroke-width="5.72917" stroke-linecap="butt" stroke-linejoin="round" stroke-miterlimit="10" stroke-opacity="1" fill="#DDE2E9" fill-rule="evenodd" fill-opacity="1"/><path d="M1115 980C1115 954.043 1136.04 933 1162 933 1187.96 933 1209 954.043 1209 980 1209 1005.96 1187.96 1027 1162 1027 1136.04 1027 1115 1005.96 1115 980Z" stroke="#000000" stroke-width="5.72917" stroke-linecap="butt" stroke-linejoin="round" stroke-miterlimit="10" stroke-opacity="1" fill="none" fill-rule="evenodd"/></g></g></svg>