<svg width="1196" height="1118" xmlns="http://www.w3.org/2000/svg" xmlns:xlink="http://www.w3.org/1999/xlink" xml:space="preserve" overflow="hidden"><defs><clipPath id="clip0"><rect x="1063" y="614" width="1196" height="1118"/></clipPath></defs><g clip-path="url(#clip0)" transform="translate(-1063 -614)"><path d="M1064 1588.17C1064 1573.16 1076.16 1561 1091.17 1561L2230.83 1561C2245.84 1561 2258 1573.16 2258 1588.17L2258 1696.83C2258 1711.84 2245.84 1724 2230.83 1724L1091.17 1724C1076.16 1724 1064 1711.84 1064 1696.83Z" fill="#324965" fill-rule="evenodd" fill-opacity="1"/><text fill="#FFFFFF" fill-opacity="1" font-family="Roboto,Roboto_MSFontService,sans-serif" font-style="normal" font-variant="normal" font-weight="400" font-stretch="normal" font-size="73" text-anchor="start" direction="ltr" writing-mode="lr-tb" unicode-bidi="normal" text-decoration="none" transform="matrix(1 0 0 1 1582.14 1668)">RAM</text><path d="M1934 879.001C1934 849.177 1958.18 825 1988 825L2204 825C2233.82 825 2258 849.177 2258 879.001L2258 1096C2258 1125.82 2233.82 1150 2204 1150L1988 1150C1958.18 1150 1934 1125.82 1934 1096Z" fill="#FFD372" fill-rule="evenodd" fill-opacity="1"/><text fill="#000000" fill-opacity="1" font-family="Roboto,Roboto_MSFontService,sans-serif" font-style="normal" font-variant="normal" font-weight="400" font-stretch="normal" font-size="73" text-anchor="start" direction="ltr" writing-mode="lr-tb" unicode-bidi="normal" text-decoration="none" transform="matrix(1 0 0 1 1987.05 1013)">Device</text><path d="M1064 879.001C1064 849.177 1088.18 825 1118 825L1334 825C1363.82 825 1388 849.177 1388 879.001L1388 1096C1388 1125.82 1363.82 1150 1334 1150L1118 1150C1088.18 1150 1064 1125.82 1064 1096Z" fill="#DEE3EA" fill-rule="evenodd" fill-opacity="1"/><text fill="#000000" fill-opacity="1" font-family="Roboto,Roboto_MSFontService,sans-serif" font-style="normal" font-variant="normal" font-weight="400" font-stretch="normal" font-size="73" text-anchor="start" direction="ltr" writing-mode="lr-tb" unicode-bidi="normal" text-decoration="none" transform="matrix(1 0 0 1 1155.17 1013)">CPU</text><path d="M1417.15 981.771 1906.05 981.771 1906.05 993.23 1417.15 993.229ZM1422.87 1016.15 1388.5 987.5 1422.87 958.854ZM1900.33 958.855 1934.7 987.5 1900.33 1016.15Z" fill="#C59C52" fill-rule="nonzero" fill-opacity="1"/><path d="M1232.23 1179.15 1232.23 1252.32 1220.77 1252.32 1220.77 1179.15ZM1197.85 1184.88 1226.5 1150.5 1255.15 1184.87ZM1255.15 1246.59 1226.5 1280.97 1197.85 1246.59Z" fill="#9AA8BC" fill-rule="nonzero" fill-opacity="1"/><path d="M24.7497 15.5188 418.112 387.489 410.239 395.815 16.877 23.8443ZM5.2946 44.4319 0 0 44.6582 2.8045ZM429.694 366.902 434.989 411.334 390.331 408.529Z" fill="#C59C52" fill-rule="nonzero" fill-opacity="1" transform="matrix(-1 0 0 1 2096.49 1150.5)"/><path d="M1224.11 800.201 1226.41 788.668C1226.48 788.307 1226.59 787.954 1226.73 787.614L1230.7 777.95 1235.91 767.962 1242.15 758.209 1249.36 748.701 1257.52 739.447 1266.59 730.454 1276.55 721.73 1287.36 713.283 1298.99 705.119 1311.43 697.248 1324.64 689.679 1338.6 682.421 1353.29 675.485 1368.67 668.881 1384.72 662.62 1401.42 656.714 1418.75 651.176 1436.67 646.015 1455.16 641.245 1474.19 636.878 1493.75 632.926 1513.8 629.402 1534.31 626.318 1555.27 623.688 1576.65 621.522 1598.42 619.836 1620.56 618.64 1643.03 617.948 1665.55 617.775 1687.82 618.116 1709.82 618.961 1731.52 620.297 1752.88 622.113 1773.89 624.397 1794.51 627.136 1814.71 630.32 1834.47 633.937 1853.75 637.974 1872.54 642.422 1890.8 647.267 1908.5 652.499 1925.62 658.107 1942.13 664.08 1958.01 670.407 1973.21 677.077 1987.72 684.08 2001.52 691.406 2014.56 699.046 2026.82 706.991 2038.29 715.233 2048.91 723.762 2058.68 732.574 2067.55 741.66 2075.51 751.015 2082.5 760.632 2088.5 770.506 2093.47 780.627 2097.37 790.984 2100.15 801.56 2101.78 812.333 2102.22 820.547 2101.95 828.695 2090.5 828.293 2090.78 821.119 2090.45 814.013 2089.06 804.447 2086.63 794.994 2083.17 785.656 2078.7 776.44 2073.22 767.358 2066.77 758.425 2059.35 749.658 2051 741.076 2041.74 732.694 2031.59 724.532 2020.59 716.606 2008.76 708.931 1996.14 701.524 1982.74 694.398 1968.61 687.569 1953.76 681.05 1938.23 674.854 1922.05 668.996 1905.25 663.487 1887.86 658.342 1869.9 653.572 1851.4 649.189 1832.4 645.208 1812.92 641.639 1793 638.495 1772.65 635.788 1751.91 633.53 1730.81 631.734 1709.38 630.411 1687.65 629.573 1665.64 629.233 1643.38 629.401 1621.17 630.082 1599.31 631.26 1577.81 632.922 1556.7 635.057 1536.02 637.65 1515.78 640.688 1496.01 644.158 1476.75 648.047 1458.02 652.341 1439.83 657.026 1422.23 662.09 1405.24 667.518 1388.88 673.296 1373.19 679.41 1358.18 685.846 1343.89 692.589 1330.34 699.623 1317.55 706.933 1305.57 714.503 1294.41 722.316 1284.09 730.354 1274.65 738.6 1266.1 747.035 1258.48 755.641 1251.79 764.398 1246.06 773.29 1241.3 782.302 1237.33 791.966 1237.65 790.912 1235.34 802.445ZM1258.8 798.461 1226.89 829.828 1201.79 792.783Z" fill="#C59C52" fill-rule="nonzero" fill-opacity="1"/><text fill="#000000" fill-opacity="1" font-family="Roboto,Roboto_MSFontService,sans-serif" font-style="normal" font-variant="normal" font-weight="400" font-stretch="normal" font-size="73" text-anchor="start" direction="ltr" writing-mode="lr-tb" unicode-bidi="normal" text-decoration="none" transform="matrix(1 0 0 1 1680.55 945)">Control<tspan fill="#000000" fill-opacity="1" font-family="Roboto,Roboto_MSFontService,sans-serif" font-style="normal" font-variant="normal" font-weight="400" font-stretch="normal" font-size="73" text-anchor="start" direction="ltr" writing-mode="lr-tb" unicode-bidi="normal" text-decoration="none" x="-61.2916" y="-195">Notification</tspan><tspan fill="#000000" fill-opacity="1" font-family="Roboto,Roboto_MSFontService,sans-serif" font-style="normal" font-variant="normal" font-weight="400" font-stretch="normal" font-size="73" text-anchor="start" direction="ltr" writing-mode="lr-tb" unicode-bidi="normal" text-decoration="none" x="-155.462" y="231">Meta</tspan><tspan fill="#000000" fill-opacity="1" font-family="Roboto,Roboto_MSFontService,sans-serif" font-style="normal" font-variant="normal" font-weight="400" font-stretch="normal" font-size="73" text-anchor="start" direction="ltr" writing-mode="lr-tb" unicode-bidi="normal" text-decoration="none" x="11.8295" y="231">d</tspan><tspan fill="#000000" fill-opacity="1" font-family="Roboto,Roboto_MSFontService,sans-serif" font-style="normal" font-variant="normal" font-weight="400" font-stretch="normal" font-size="73" text-anchor="start" direction="ltr" writing-mode="lr-tb" unicode-bidi="normal" text-decoration="none" x="53.0795" y="231">ata</tspan></text><path d="M1064 1305C1064 1291.19 1075.19 1280 1089 1280L1363 1280C1376.81 1280 1388 1291.19 1388 1305L1388 1405C1388 1418.81 1376.81 1430 1363 1430L1089 1430C1075.19 1430 1064 1418.81 1064 1405Z" fill="#324965" fill-rule="evenodd" fill-opacity="1"/><text fill="#FFFFFF" fill-opacity="1" font-family="Roboto,Roboto_MSFontService,sans-serif" font-style="normal" font-variant="normal" font-weight="400" font-stretch="normal" font-size="73" text-anchor="start" direction="ltr" writing-mode="lr-tb" unicode-bidi="normal" text-decoration="none" transform="matrix(1 0 0 1 1123.09 1381)">Cache</text><path d="M1255.58 1433.24 1635.7 1547.25 1632.4 1558.23 1252.29 1444.22ZM1251.2 1467.81 1226.5 1430.5 1267.66 1412.94ZM1636.79 1523.65 1661.49 1560.97 1620.33 1578.53Z" fill="#9AA8BC" fill-rule="nonzero" fill-opacity="1"/><path d="M17.4883 23.4001 265.957 545.189 255.611 550.116 7.14303 28.3264ZM-11.0844 43.3516 0 0 40.6421 18.7202ZM284.185 530.165 273.1 573.517 232.458 554.797Z" fill="#C59C52" fill-rule="nonzero" fill-opacity="1" transform="matrix(-1 0 0 1 1934.6 987.5)"/><text fill="#000000" fill-opacity="1" font-family="Roboto,Roboto_MSFontService,sans-serif" font-style="normal" font-variant="normal" font-weight="400" font-stretch="normal" font-size="73" text-anchor="start" direction="ltr" writing-mode="lr-tb" unicode-bidi="normal" text-decoration="none" transform="matrix(1 0 0 1 1925.39 1384)">Data</text></g></svg>