<svg width="2768" height="1874" xmlns="http://www.w3.org/2000/svg" xmlns:xlink="http://www.w3.org/1999/xlink" xml:space="preserve" overflow="hidden"><g transform="translate(-261 -472)"><g><text fill="#789A47" fill-opacity="1" font-family="American Typewriter,American Typewriter_MSFontService,sans-serif" font-style="normal" font-variant="normal" font-weight="400" font-stretch="normal" font-size="83" text-anchor="start" direction="ltr" writing-mode="lr-tb" unicode-bidi="normal" text-decoration="none" transform="matrix(6.12323e-17 -1 1 6.12323e-17 1060.24 2206)">Invalidate</text><path d="M0 0 0.000360892 1307.01" stroke="#000000" stroke-width="4.58333" stroke-linecap="butt" stroke-linejoin="round" stroke-miterlimit="10" stroke-dasharray="4.58333 4.58333" stroke-opacity="1" fill="none" fill-rule="evenodd" transform="matrix(1 0 0 -1 1032.5 1785.51)"/><text fill="#961800" fill-opacity="1" font-family="American Typewriter,American Typewriter_MSFontService,sans-serif" font-style="normal" font-variant="normal" font-weight="400" font-stretch="normal" font-size="83" text-anchor="start" direction="ltr" writing-mode="lr-tb" unicode-bidi="normal" text-decoration="none" transform="matrix(6.12323e-17 -1 1 6.12323e-17 1320.08 2048)">Signal</text><path d="M0 0 0.122343 1307.01" stroke="#000000" stroke-width="4.58333" stroke-linecap="butt" stroke-linejoin="round" stroke-miterlimit="10" stroke-dasharray="4.58333 4.58333" stroke-opacity="1" fill="none" fill-rule="evenodd" transform="matrix(1 0 0 -1 1291.5 1785.51)"/><text fill="#789A47" fill-opacity="1" font-family="American Typewriter,American Typewriter_MSFontService,sans-serif" font-style="normal" font-variant="normal" font-weight="400" font-stretch="normal" font-size="83" text-anchor="start" direction="ltr" writing-mode="lr-tb" unicode-bidi="normal" text-decoration="none" transform="matrix(6.12323e-17 -1 1 6.12323e-17 1579.92 1979)">Wait</text><path d="M0 0 0.000360892 1307.01" stroke="#000000" stroke-width="4.58333" stroke-linecap="butt" stroke-linejoin="round" stroke-miterlimit="10" stroke-dasharray="4.58333 4.58333" stroke-opacity="1" fill="none" fill-rule="evenodd" transform="matrix(1 0 0 -1 1551.5 1785.51)"/><text fill="#000000" fill-opacity="1" font-family="American Typewriter,American Typewriter_MSFontService,sans-serif" font-style="normal" font-variant="normal" font-weight="400" font-stretch="normal" font-size="83" text-anchor="start" direction="ltr" writing-mode="lr-tb" unicode-bidi="normal" text-decoration="none" transform="matrix(6.12323e-17 -1 1 6.12323e-17 2238 2088)">IRQ</text><text fill="#000000" fill-opacity="1" font-family="Roboto,Roboto_MSFontService,sans-serif" font-style="normal" font-variant="normal" font-weight="400" font-stretch="normal" font-size="83" text-anchor="start" direction="ltr" writing-mode="lr-tb" unicode-bidi="normal" text-decoration="none" transform="matrix(6.12323e-17 -1 1 6.12323e-17 2238 1922)">(T</text><text fill="#000000" fill-opacity="1" font-family="Roboto,Roboto_MSFontService,sans-serif" font-style="normal" font-variant="normal" font-weight="400" font-stretch="normal" font-size="55" text-anchor="start" direction="ltr" writing-mode="lr-tb" unicode-bidi="normal" text-decoration="none" transform="matrix(6.12323e-17 -1 1 6.12323e-17 2258.01 1844)">c</text><text fill="#000000" fill-opacity="1" font-family="Roboto,Roboto_MSFontService,sans-serif" font-style="normal" font-variant="normal" font-weight="400" font-stretch="normal" font-size="83" text-anchor="start" direction="ltr" writing-mode="lr-tb" unicode-bidi="normal" text-decoration="none" transform="matrix(6.12323e-17 -1 1 6.12323e-17 2238 1816)">)</text><path d="M2206.94 1785.51 2206.5 478.5" stroke="#000000" stroke-width="4.58333" stroke-linecap="butt" stroke-linejoin="round" stroke-miterlimit="10" stroke-dasharray="4.58333 4.58333" stroke-opacity="1" fill="none" fill-rule="evenodd"/><text fill="#789A47" fill-opacity="1" font-family="American Typewriter,American Typewriter_MSFontService,sans-serif" font-style="normal" font-variant="normal" font-weight="400" font-stretch="normal" font-size="83" text-anchor="start" direction="ltr" writing-mode="lr-tb" unicode-bidi="normal" text-decoration="none" transform="matrix(6.12323e-17 -1 1 6.12323e-17 2628.39 1979)">Wait</text><path d="M0 0 0.000360892 1307.01" stroke="#000000" stroke-width="4.58333" stroke-linecap="butt" stroke-linejoin="round" stroke-miterlimit="10" stroke-dasharray="4.58333 4.58333" stroke-opacity="1" fill="none" fill-rule="evenodd" transform="matrix(1 0 0 -1 2596.5 1785.51)"/><text fill="#000000" fill-opacity="1" font-family="American Typewriter,American Typewriter_MSFontService,sans-serif" font-style="normal" font-variant="normal" font-weight="400" font-stretch="normal" font-size="83" text-anchor="start" direction="ltr" writing-mode="lr-tb" unicode-bidi="normal" text-decoration="none" transform="matrix(6.12323e-17 -1 1 6.12323e-17 670.475 2084)">IRQ</text><text fill="#000000" fill-opacity="1" font-family="Roboto,Roboto_MSFontService,sans-serif" font-style="normal" font-variant="normal" font-weight="400" font-stretch="normal" font-size="83" text-anchor="start" direction="ltr" writing-mode="lr-tb" unicode-bidi="normal" text-decoration="none" transform="matrix(6.12323e-17 -1 1 6.12323e-17 670.475 1939)">(R</text><text fill="#000000" fill-opacity="1" font-family="Roboto,Roboto_MSFontService,sans-serif" font-style="normal" font-variant="normal" font-weight="400" font-stretch="normal" font-size="55" text-anchor="start" direction="ltr" writing-mode="lr-tb" unicode-bidi="normal" text-decoration="none" transform="matrix(6.12323e-17 -1 1 6.12323e-17 690.482 1860)">a</text><text fill="#000000" fill-opacity="1" font-family="Roboto,Roboto_MSFontService,sans-serif" font-style="normal" font-variant="normal" font-weight="400" font-stretch="normal" font-size="83" text-anchor="start" direction="ltr" writing-mode="lr-tb" unicode-bidi="normal" text-decoration="none" transform="matrix(6.12323e-17 -1 1 6.12323e-17 670.475 1830)">)</text><path d="M0 0 0.000360892 1307.35" stroke="#000000" stroke-width="4.58333" stroke-linecap="butt" stroke-linejoin="round" stroke-miterlimit="10" stroke-dasharray="4.58333 4.58333" stroke-opacity="1" fill="none" fill-rule="evenodd" transform="matrix(1 0 0 -1 642.5 1785.85)"/><text fill="#C59C52" fill-opacity="1" font-family="American Typewriter,American Typewriter_MSFontService,sans-serif" font-style="normal" font-variant="normal" font-weight="400" font-stretch="normal" font-size="83" text-anchor="start" direction="ltr" writing-mode="lr-tb" unicode-bidi="normal" text-decoration="none" transform="matrix(6.12323e-17 -1 1 6.12323e-17 800.397 2048)">Signal</text><path d="M0 0 0.000360892 1307.35" stroke="#000000" stroke-width="4.58333" stroke-linecap="butt" stroke-linejoin="round" stroke-miterlimit="10" stroke-dasharray="4.58333 4.58333" stroke-opacity="1" fill="none" fill-rule="evenodd" transform="matrix(1 0 0 -1 772.5 1785.85)"/><text fill="#C59C52" fill-opacity="1" font-family="American Typewriter,American Typewriter_MSFontService,sans-serif" font-style="normal" font-variant="normal" font-weight="400" font-stretch="normal" font-size="83" text-anchor="start" direction="ltr" writing-mode="lr-tb" unicode-bidi="normal" text-decoration="none" transform="matrix(6.12323e-17 -1 1 6.12323e-17 930.318 2198)">Ack&amp;Wait</text><path d="M0 0 0.000360892 1307.35" stroke="#000000" stroke-width="4.58333" stroke-linecap="butt" stroke-linejoin="round" stroke-miterlimit="10" stroke-dasharray="4.58333 4.58333" stroke-opacity="1" fill="none" fill-rule="evenodd" transform="matrix(1 0 0 -1 902.5 1785.85)"/><text fill="#789A47" fill-opacity="1" font-family="Roboto,Roboto_MSFontService,sans-serif" font-style="normal" font-variant="normal" font-weight="400" font-stretch="normal" font-size="83" text-anchor="start" direction="ltr" writing-mode="lr-tb" unicode-bidi="normal" text-decoration="none" transform="matrix(1 0 0 1 328 885)">Rx </text><text fill="#789A47" fill-opacity="1" font-family="Roboto,Roboto_MSFontService,sans-serif" font-style="normal" font-variant="normal" font-weight="400" font-stretch="normal" font-size="83" text-anchor="start" direction="ltr" writing-mode="lr-tb" unicode-bidi="normal" text-decoration="none" transform="matrix(1 0 0 1 440.292 885)">Virt</text><path d="M0 0 462.092 0.16168" stroke="#789A47" stroke-width="10.3125" stroke-linecap="square" stroke-linejoin="round" stroke-miterlimit="10" stroke-dasharray="30.9375 10.3125" stroke-opacity="1" fill="none" fill-rule="evenodd" transform="matrix(1 0 0 -1 450 924.162)"/><path d="M5.15625-1.3961e-05 5.15654 107.508-5.15596 107.508-5.15625 1.3961e-05ZM15.469 102.352 0.000360892 133.289-15.4685 102.352Z" fill="#789A47" fill-rule="nonzero" fill-opacity="1" transform="matrix(1 0 0 -1 927 923.289)"/><path d="M0 0 106.535 0.000360892" stroke="#789A47" stroke-width="10.3125" stroke-linecap="butt" stroke-linejoin="round" stroke-miterlimit="10" stroke-opacity="1" fill="none" fill-rule="evenodd" transform="matrix(1 0 0 -1 927 790)"/><path d="M1038.16 790 1038.16 897.508 1027.84 897.508 1027.84 790ZM1048.47 892.352 1033 923.289 1017.53 892.352Z" fill="#789A47" fill-rule="nonzero" fill-opacity="1"/><path d="M0 0 33.7795 0.000360892" stroke="#789A47" stroke-width="10.3125" stroke-linecap="butt" stroke-linejoin="round" stroke-miterlimit="10" stroke-opacity="1" fill="none" fill-rule="evenodd" transform="matrix(1 0 0 -1 1035 924)"/><path d="M5.15625-1.3961e-05 5.15654 107.508-5.15596 107.508-5.15625 1.3961e-05ZM15.469 102.352 0.000360892 133.289-15.4685 102.352Z" fill="#789A47" fill-rule="nonzero" fill-opacity="1" transform="matrix(1 0 0 -1 1070 923.289)"/><path d="M0 0 33.7795 0.000360892" stroke="#789A47" stroke-width="10.3125" stroke-linecap="butt" stroke-linejoin="round" stroke-miterlimit="10" stroke-opacity="1" fill="none" fill-rule="evenodd" transform="matrix(1 0 0 -1 1417 921)"/><path d="M5.15625-1.3961e-05 5.15654 107.508-5.15596 107.508-5.15625 1.3961e-05ZM15.469 102.352 0.000360892 133.289-15.4685 102.352Z" fill="#789A47" fill-rule="nonzero" fill-opacity="1" transform="matrix(1 0 0 -1 1451 921.289)"/><path d="M1068 790 1168.84 790" stroke="#789A47" stroke-width="10.3125" stroke-linecap="butt" stroke-linejoin="round" stroke-miterlimit="10" stroke-opacity="1" fill="none" fill-rule="evenodd"/><path d="M1174.16 790 1174.16 897.508 1163.84 897.508 1163.84 790ZM1184.47 892.352 1169 923.289 1153.53 892.352Z" fill="#789A47" fill-rule="nonzero" fill-opacity="1"/><path d="M1450 788 1550.84 788" stroke="#789A47" stroke-width="10.3125" stroke-linecap="butt" stroke-linejoin="round" stroke-miterlimit="10" stroke-opacity="1" fill="none" fill-rule="evenodd"/><path d="M1556.16 788 1556.16 895.508 1545.84 895.508 1545.84 788ZM1566.47 890.351 1551 921.289 1535.53 890.352Z" fill="#789A47" fill-rule="nonzero" fill-opacity="1"/><path d="M0 0 156.02 0.616765" stroke="#789A47" stroke-width="10.3125" stroke-linecap="butt" stroke-linejoin="round" stroke-miterlimit="10" stroke-opacity="1" fill="none" fill-rule="evenodd" transform="matrix(1 0 0 -1 1164 922.617)"/><path d="M5.15625-1.3961e-05 5.15654 107.508-5.15596 107.508-5.15625 1.3961e-05ZM15.469 102.352 0.000360892 133.289-15.4685 102.352Z" fill="#789A47" fill-rule="nonzero" fill-opacity="1" transform="matrix(1 0 0 -1 1323 922.289)"/><path d="M1318 790 1421.08 790" stroke="#789A47" stroke-width="10.3125" stroke-linecap="butt" stroke-linejoin="round" stroke-miterlimit="10" stroke-opacity="1" fill="none" fill-rule="evenodd"/><path d="M1426.16 790 1426.16 897.508 1415.84 897.508 1415.84 790ZM1436.47 892.352 1421 923.289 1405.53 892.352Z" fill="#789A47" fill-rule="nonzero" fill-opacity="1"/><path d="M1551 919 2780.43 919" stroke="#789A47" stroke-width="10.3125" stroke-linecap="square" stroke-linejoin="round" stroke-miterlimit="10" stroke-dasharray="30.9375 10.3125" stroke-opacity="1" fill="none" fill-rule="evenodd"/><text fill="#789A47" fill-opacity="1" font-family="Roboto,Roboto_MSFontService,sans-serif" font-style="normal" font-variant="normal" font-weight="400" font-stretch="normal" font-size="64" text-anchor="start" direction="ltr" writing-mode="lr-tb" unicode-bidi="normal" text-decoration="none" transform="matrix(1 0 0 1 2813.06 819)">user</text><text fill="#789A47" fill-opacity="1" font-family="Roboto,Roboto_MSFontService,sans-serif" font-style="normal" font-variant="normal" font-weight="400" font-stretch="normal" font-size="64" text-anchor="start" direction="ltr" writing-mode="lr-tb" unicode-bidi="normal" text-decoration="none" transform="matrix(1 0 0 1 2813.06 943)">kernel</text><text fill="#47678B" fill-opacity="1" font-family="Roboto,Roboto_MSFontService,sans-serif" font-style="normal" font-variant="normal" font-weight="400" font-stretch="normal" font-size="83" text-anchor="start" direction="ltr" writing-mode="lr-tb" unicode-bidi="normal" text-decoration="none" transform="matrix(1 0 0 1 328.156 1680)">Other</text><path d="M430 1585 642.093 1585" stroke="#47678B" stroke-width="10.3125" stroke-linecap="butt" stroke-linejoin="round" stroke-miterlimit="10" stroke-opacity="1" fill="none" fill-rule="evenodd"/><path d="M642 1585 642 1714.92" stroke="#47678B" stroke-width="10.3125" stroke-linecap="square" stroke-linejoin="round" stroke-miterlimit="10" stroke-dasharray="30.9375 10.3125" stroke-opacity="1" fill="none" fill-rule="evenodd"/><path d="M642 1715 1968.64 1715" stroke="#47678B" stroke-width="10.3125" stroke-linecap="square" stroke-linejoin="round" stroke-miterlimit="10" stroke-dasharray="30.9375 10.3125" stroke-opacity="1" fill="none" fill-rule="evenodd"/><path d="M0 0 0.000360892 129.921" stroke="#47678B" stroke-width="10.3125" stroke-linecap="square" stroke-linejoin="round" stroke-miterlimit="10" stroke-dasharray="30.9375 10.3125" stroke-opacity="1" fill="none" fill-rule="evenodd" transform="matrix(1 0 0 -1 1964 1714.92)"/><path d="M2636 1585 2784.23 1585" stroke="#47678B" stroke-width="10.3125" stroke-linecap="butt" stroke-linejoin="round" stroke-miterlimit="10" stroke-opacity="1" fill="none" fill-rule="evenodd"/><path d="M1964 1585 2205.84 1585" stroke="#47678B" stroke-width="10.3125" stroke-linecap="butt" stroke-linejoin="round" stroke-miterlimit="10" stroke-opacity="1" fill="none" fill-rule="evenodd"/><path d="M2206 1585 2206 1714.92" stroke="#47678B" stroke-width="10.3125" stroke-linecap="square" stroke-linejoin="round" stroke-miterlimit="10" stroke-dasharray="30.9375 10.3125" stroke-opacity="1" fill="none" fill-rule="evenodd"/><path d="M0 0 428.74 0.0656824" stroke="#47678B" stroke-width="10.3125" stroke-linecap="square" stroke-linejoin="round" stroke-miterlimit="10" stroke-dasharray="30.9375 10.3125" stroke-opacity="1" fill="none" fill-rule="evenodd" transform="matrix(1 0 0 -1 2205 1715.07)"/><path d="M0 0 0.000360892 129.921" stroke="#47678B" stroke-width="10.3125" stroke-linecap="square" stroke-linejoin="round" stroke-miterlimit="10" stroke-dasharray="30.9375 10.3125" stroke-opacity="1" fill="none" fill-rule="evenodd" transform="matrix(1 0 0 -1 2636 1714.92)"/><text fill="#47678B" fill-opacity="1" font-family="Roboto,Roboto_MSFontService,sans-serif" font-style="normal" font-variant="normal" font-weight="400" font-stretch="normal" font-size="64" text-anchor="start" direction="ltr" writing-mode="lr-tb" unicode-bidi="normal" text-decoration="none" transform="matrix(1 0 0 1 2817.37 1593)">user</text><text fill="#47678B" fill-opacity="1" font-family="Roboto,Roboto_MSFontService,sans-serif" font-style="normal" font-variant="normal" font-weight="400" font-stretch="normal" font-size="64" text-anchor="start" direction="ltr" writing-mode="lr-tb" unicode-bidi="normal" text-decoration="none" transform="matrix(1 0 0 1 2813.06 1716)">kernel</text><text fill="#C59C52" fill-opacity="1" font-family="Roboto,Roboto_MSFontService,sans-serif" font-style="normal" font-variant="normal" font-weight="400" font-stretch="normal" font-size="83" text-anchor="start" direction="ltr" writing-mode="lr-tb" unicode-bidi="normal" text-decoration="none" transform="matrix(1 0 0 1 314.313 618)">Driver</text><path d="M423 657 663.701 657" stroke="#C59C52" stroke-width="10.3125" stroke-linecap="square" stroke-linejoin="round" stroke-miterlimit="10" stroke-dasharray="30.9375 10.3125" stroke-opacity="1" fill="none" fill-rule="evenodd"/><path d="M5.15625-1.3961e-05 5.15654 107.508-5.15596 107.508-5.15625 1.3961e-05ZM15.469 102.352 0.000360892 133.289-15.4685 102.352Z" fill="#C59C52" fill-rule="nonzero" fill-opacity="1" transform="matrix(1 0 0 -1 666 656.289)"/><path d="M0 0 33.7795 0.000360892" stroke="#C59C52" stroke-width="10.3125" stroke-linecap="butt" stroke-linejoin="round" stroke-miterlimit="10" stroke-opacity="1" fill="none" fill-rule="evenodd" transform="matrix(1 0 0 -1 768 657)"/><path d="M5.15625-1.3961e-05 5.15654 107.508-5.15596 107.508-5.15625 1.3961e-05ZM15.469 102.352 0.000360892 133.289-15.4685 102.352Z" fill="#C59C52" fill-rule="nonzero" fill-opacity="1" transform="matrix(1 0 0 -1 802 656.289)"/><path d="M801 523 904.581 523.065" stroke="#C59C52" stroke-width="10.3125" stroke-linecap="butt" stroke-linejoin="round" stroke-miterlimit="10" stroke-opacity="1" fill="none" fill-rule="evenodd"/><path d="M910.156 523 910.157 630.508 899.844 630.508 899.844 523ZM920.469 625.351 905 656.289 889.532 625.351Z" fill="#C59C52" fill-rule="nonzero" fill-opacity="1"/><path d="M905 656 1836.5 656" stroke="#C59C52" stroke-width="10.3125" stroke-linecap="square" stroke-linejoin="round" stroke-miterlimit="10" stroke-dasharray="30.9375 10.3125" stroke-opacity="1" fill="none" fill-rule="evenodd"/><path d="M5.15625-1.3961e-05 5.15654 107.508-5.15596 107.508-5.15625 1.3961e-05ZM15.469 102.352 0.000360892 133.289-15.4685 102.352Z" fill="#C59C52" fill-rule="nonzero" fill-opacity="1" transform="matrix(1 0 0 -1 1836 656.289)"/><path d="M1836 528 1936.29 528" stroke="#C59C52" stroke-width="10.3125" stroke-linecap="butt" stroke-linejoin="round" stroke-miterlimit="10" stroke-opacity="1" fill="none" fill-rule="evenodd"/><path d="M1942.16 528 1942.16 635.508 1931.84 635.508 1931.84 528ZM1952.47 630.352 1937 661.289 1921.53 630.352Z" fill="#C59C52" fill-rule="nonzero" fill-opacity="1"/><path d="M1936 656 2235.1 656" stroke="#C59C52" stroke-width="10.3125" stroke-linecap="square" stroke-linejoin="round" stroke-miterlimit="10" stroke-dasharray="30.9375 10.3125" stroke-opacity="1" fill="none" fill-rule="evenodd"/><path d="M5.15625-1.3961e-05 5.15654 107.508-5.15596 107.508-5.15625 1.3961e-05ZM15.469 102.352 0.000360892 133.289-15.4685 102.352Z" fill="#C59C52" fill-rule="nonzero" fill-opacity="1" transform="matrix(1 0 0 -1 2225 656.289)"/><path d="M0 0 108.84 0.633005" stroke="#C59C52" stroke-width="10.3125" stroke-linecap="butt" stroke-linejoin="round" stroke-miterlimit="10" stroke-opacity="1" fill="none" fill-rule="evenodd" transform="matrix(1 0 0 -1 662 523.633)"/><path d="M777.156 524 777.157 631.508 766.844 631.508 766.844 524ZM787.469 626.351 772 657.289 756.532 626.352Z" fill="#C59C52" fill-rule="nonzero" fill-opacity="1"/><path d="M2224 530 2331.65 530" stroke="#C59C52" stroke-width="10.3125" stroke-linecap="butt" stroke-linejoin="round" stroke-miterlimit="10" stroke-opacity="1" fill="none" fill-rule="evenodd"/><path d="M2339.16 530 2339.16 637.508 2328.84 637.508 2328.84 530ZM2349.47 632.352 2334 663.289 2318.53 632.352Z" fill="#C59C52" fill-rule="nonzero" fill-opacity="1"/><path d="M2479 659 2784 659" stroke="#C59C52" stroke-width="10.3125" stroke-linecap="square" stroke-linejoin="round" stroke-miterlimit="10" stroke-dasharray="30.9375 10.3125" stroke-opacity="1" fill="none" fill-rule="evenodd"/><text fill="#C59C52" fill-opacity="1" font-family="Roboto,Roboto_MSFontService,sans-serif" font-style="normal" font-variant="normal" font-weight="400" font-stretch="normal" font-size="64" text-anchor="start" direction="ltr" writing-mode="lr-tb" unicode-bidi="normal" text-decoration="none" transform="matrix(1 0 0 1 2817.37 555)">user</text><text fill="#C59C52" fill-opacity="1" font-family="Roboto,Roboto_MSFontService,sans-serif" font-style="normal" font-variant="normal" font-weight="400" font-stretch="normal" font-size="64" text-anchor="start" direction="ltr" writing-mode="lr-tb" unicode-bidi="normal" text-decoration="none" transform="matrix(1 0 0 1 2817.24 683)">kernel</text><path d="M0 0 33.7795 0.000360892" stroke="#C59C52" stroke-width="10.3125" stroke-linecap="butt" stroke-linejoin="round" stroke-miterlimit="10" stroke-opacity="1" fill="none" fill-rule="evenodd" transform="matrix(1 0 0 -1 2327 659)"/><path d="M5.15625-1.3961e-05 5.15654 107.508-5.15596 107.508-5.15625 1.3961e-05ZM15.469 102.352 0.000360892 133.289-15.4685 102.352Z" fill="#C59C52" fill-rule="nonzero" fill-opacity="1" transform="matrix(1 0 0 -1 2361 659.289)"/><path d="M2363 530 2463.02 530.125" stroke="#C59C52" stroke-width="10.3125" stroke-linecap="butt" stroke-linejoin="round" stroke-miterlimit="10" stroke-opacity="1" fill="none" fill-rule="evenodd"/><path d="M2469.16 526 2469.16 633.508 2458.84 633.508 2458.84 526ZM2479.47 628.352 2464 659.289 2448.53 628.352Z" fill="#C59C52" fill-rule="nonzero" fill-opacity="1"/><text fill="#961800" fill-opacity="1" font-family="Roboto,Roboto_MSFontService,sans-serif" font-style="normal" font-variant="normal" font-weight="400" font-stretch="normal" font-size="83" text-anchor="start" direction="ltr" writing-mode="lr-tb" unicode-bidi="normal" text-decoration="none" transform="matrix(1 0 0 1 331.597 1416)">Client</text><path d="M438 1455 1190.95 1455" stroke="#961800" stroke-width="10.3125" stroke-linecap="square" stroke-linejoin="round" stroke-miterlimit="10" stroke-dasharray="30.9375 10.3125" stroke-opacity="1" fill="none" fill-rule="evenodd"/><path d="M5.15625-1.3961e-05 5.15654 107.508-5.15596 107.508-5.15625 1.3961e-05ZM15.469 102.352 0.000360892 133.289-15.4685 102.352Z" fill="#961800" fill-rule="nonzero" fill-opacity="1" transform="matrix(1 0 0 -1 1192 1454.29)"/><path d="M1191 1321 1291.84 1321" stroke="#961800" stroke-width="10.3125" stroke-linecap="butt" stroke-linejoin="round" stroke-miterlimit="10" stroke-opacity="1" fill="none" fill-rule="evenodd"/><path d="M1297.16 1321 1297.16 1428.51 1286.84 1428.51 1286.84 1321ZM1307.47 1423.35 1292 1454.29 1276.53 1423.35Z" fill="#961800" fill-rule="nonzero" fill-opacity="1"/><path d="M5.15625-1.3961e-05 5.15654 107.508-5.15596 107.508-5.15625 1.3961e-05ZM15.469 102.352 0.000360892 133.289-15.4685 102.352Z" fill="#961800" fill-rule="nonzero" fill-opacity="1" transform="matrix(1 0 0 -1 1581 1453.29)"/><path d="M1576 1321 1679.08 1321" stroke="#961800" stroke-width="10.3125" stroke-linecap="butt" stroke-linejoin="round" stroke-miterlimit="10" stroke-opacity="1" fill="none" fill-rule="evenodd"/><path d="M1684.16 1321 1684.16 1428.51 1673.84 1428.51 1673.84 1321ZM1694.47 1423.35 1679 1454.29 1663.53 1423.35Z" fill="#961800" fill-rule="nonzero" fill-opacity="1"/><path d="M1679 1448 2756.78 1448" stroke="#961800" stroke-width="10.3125" stroke-linecap="square" stroke-linejoin="round" stroke-miterlimit="10" stroke-dasharray="30.9375 10.3125" stroke-opacity="1" fill="none" fill-rule="evenodd"/><text fill="#961800" fill-opacity="1" font-family="Roboto,Roboto_MSFontService,sans-serif" font-style="normal" font-variant="normal" font-weight="400" font-stretch="normal" font-size="64" text-anchor="start" direction="ltr" writing-mode="lr-tb" unicode-bidi="normal" text-decoration="none" transform="matrix(1 0 0 1 2814.12 1341)">user</text><text fill="#961800" fill-opacity="1" font-family="Roboto,Roboto_MSFontService,sans-serif" font-style="normal" font-variant="normal" font-weight="400" font-stretch="normal" font-size="64" text-anchor="start" direction="ltr" writing-mode="lr-tb" unicode-bidi="normal" text-decoration="none" transform="matrix(1 0 0 1 2814.12 1465)">kernel</text><path d="M0 0 289.741 3.13724" stroke="#961800" stroke-width="10.3125" stroke-linecap="square" stroke-linejoin="round" stroke-miterlimit="10" stroke-dasharray="30.9375 10.3125" stroke-opacity="1" fill="none" fill-rule="evenodd" transform="matrix(1 0 0 -1 1291 1448.14)"/><text fill="#789A47" fill-opacity="1" font-family="Roboto,Roboto_MSFontService,sans-serif" font-style="normal" font-variant="normal" font-weight="400" font-stretch="normal" font-size="83" text-anchor="start" direction="ltr" writing-mode="lr-tb" unicode-bidi="normal" text-decoration="none" transform="matrix(1 0 0 1 315.102 1151)">Tx </text><text fill="#789A47" fill-opacity="1" font-family="Roboto,Roboto_MSFontService,sans-serif" font-style="normal" font-variant="normal" font-weight="400" font-stretch="normal" font-size="83" text-anchor="start" direction="ltr" writing-mode="lr-tb" unicode-bidi="normal" text-decoration="none" transform="matrix(1 0 0 1 425.675 1151)">Virt</text><path d="M436 1190 1704.69 1190" stroke="#789A47" stroke-width="10.3125" stroke-linecap="square" stroke-linejoin="round" stroke-miterlimit="10" stroke-dasharray="30.9375 10.3125" stroke-opacity="1" fill="none" fill-rule="evenodd"/><path d="M5.15625-1.3961e-05 5.15654 107.508-5.15596 107.508-5.15625 1.3961e-05ZM15.469 102.352 0.000360892 133.289-15.4685 102.352Z" fill="#789A47" fill-rule="nonzero" fill-opacity="1" transform="matrix(1 0 0 -1 1704 1190.29)"/><path d="M0 0 106.535 0.000360892" stroke="#789A47" stroke-width="10.3125" stroke-linecap="butt" stroke-linejoin="round" stroke-miterlimit="10" stroke-opacity="1" fill="none" fill-rule="evenodd" transform="matrix(1 0 0 -1 1704 1057)"/><path d="M1816.16 1057 1816.16 1164.51 1805.84 1164.51 1805.84 1057ZM1826.47 1159.35 1811 1190.29 1795.53 1159.35Z" fill="#789A47" fill-rule="nonzero" fill-opacity="1"/><path d="M5.15625-1.3961e-05 5.15654 107.508-5.15596 107.508-5.15625 1.3961e-05ZM15.469 102.352 0.000360892 133.289-15.4685 102.352Z" fill="#789A47" fill-rule="nonzero" fill-opacity="1" transform="matrix(1 0 0 -1 2497 1188.29)"/><path d="M2496 1056 2599.08 1056" stroke="#789A47" stroke-width="10.3125" stroke-linecap="butt" stroke-linejoin="round" stroke-miterlimit="10" stroke-opacity="1" fill="none" fill-rule="evenodd"/><path d="M2601.16 1056 2601.16 1163.51 2590.84 1163.51 2590.84 1056ZM2611.47 1158.35 2596 1189.29 2580.53 1158.35Z" fill="#789A47" fill-rule="nonzero" fill-opacity="1"/><path d="M1810 1181 2500.88 1181" stroke="#789A47" stroke-width="10.3125" stroke-linecap="square" stroke-linejoin="round" stroke-miterlimit="10" stroke-dasharray="30.9375 10.3125" stroke-opacity="1" fill="none" fill-rule="evenodd"/><text fill="#789A47" fill-opacity="1" font-family="Roboto,Roboto_MSFontService,sans-serif" font-style="normal" font-variant="normal" font-weight="400" font-stretch="normal" font-size="64" text-anchor="start" direction="ltr" writing-mode="lr-tb" unicode-bidi="normal" text-decoration="none" transform="matrix(1 0 0 1 2813.06 1079)">user</text><text fill="#789A47" fill-opacity="1" font-family="Roboto,Roboto_MSFontService,sans-serif" font-style="normal" font-variant="normal" font-weight="400" font-stretch="normal" font-size="64" text-anchor="start" direction="ltr" writing-mode="lr-tb" unicode-bidi="normal" text-decoration="none" transform="matrix(1 0 0 1 2813.06 1203)">kernel</text><path d="M2614 1181 2780.24 1181" stroke="#789A47" stroke-width="10.3125" stroke-linecap="square" stroke-linejoin="round" stroke-miterlimit="10" stroke-dasharray="30.9375 10.3125" stroke-opacity="1" fill="none" fill-rule="evenodd"/><path d="M0 0 0.000360892 1307.01" stroke="#000000" stroke-width="4.58333" stroke-linecap="butt" stroke-linejoin="round" stroke-miterlimit="10" stroke-dasharray="4.58333 4.58333" stroke-opacity="1" fill="none" fill-rule="evenodd" transform="matrix(1 0 0 -1 1161.5 1785.51)"/><text fill="#789A47" fill-opacity="1" font-family="American Typewriter,American Typewriter_MSFontService,sans-serif" font-style="normal" font-variant="normal" font-weight="400" font-stretch="normal" font-size="83" text-anchor="start" direction="ltr" writing-mode="lr-tb" unicode-bidi="normal" text-decoration="none" transform="matrix(6.12323e-17 -1 1 6.12323e-17 1190.16 2296)">Signal&amp;Wait</text><text fill="#961800" fill-opacity="1" font-family="American Typewriter,American Typewriter_MSFontService,sans-serif" font-style="normal" font-variant="normal" font-weight="400" font-stretch="normal" font-size="83" text-anchor="start" direction="ltr" writing-mode="lr-tb" unicode-bidi="normal" text-decoration="none" transform="matrix(6.12323e-17 -1 1 6.12323e-17 1709.85 2293)">Signal&amp;Wait</text><path d="M0 0 0.000360892 1307.01" stroke="#000000" stroke-width="4.58333" stroke-linecap="butt" stroke-linejoin="round" stroke-miterlimit="10" stroke-dasharray="4.58333 4.58333" stroke-opacity="1" fill="none" fill-rule="evenodd" transform="matrix(1 0 0 -1 1681.5 1785.51)"/><text fill="#789A47" fill-opacity="1" font-family="American Typewriter,American Typewriter_MSFontService,sans-serif" font-style="normal" font-variant="normal" font-weight="400" font-stretch="normal" font-size="83" text-anchor="start" direction="ltr" writing-mode="lr-tb" unicode-bidi="normal" text-decoration="none" transform="matrix(6.12323e-17 -1 1 6.12323e-17 1839.77 2293)">Signal&amp;Wait</text><path d="M0 0 0.000360892 1307.01" stroke="#000000" stroke-width="4.58333" stroke-linecap="butt" stroke-linejoin="round" stroke-miterlimit="10" stroke-dasharray="4.58333 4.58333" stroke-opacity="1" fill="none" fill-rule="evenodd" transform="matrix(1 0 0 -1 1811.5 1785.51)"/><text fill="#C59C52" fill-opacity="1" font-family="American Typewriter,American Typewriter_MSFontService,sans-serif" font-style="normal" font-variant="normal" font-weight="400" font-stretch="normal" font-size="83" text-anchor="start" direction="ltr" writing-mode="lr-tb" unicode-bidi="normal" text-decoration="none" transform="matrix(6.12323e-17 -1 1 6.12323e-17 1969.06 1981)">Wait</text><path d="M1941.5 1785.51 1941.5 478.5" stroke="#000000" stroke-width="4.58333" stroke-linecap="butt" stroke-linejoin="round" stroke-miterlimit="10" stroke-dasharray="4.58333 4.58333" stroke-opacity="1" fill="none" fill-rule="evenodd"/><path d="M0 0 0.000360892 1307.01" stroke="#000000" stroke-width="4.58333" stroke-linecap="butt" stroke-linejoin="round" stroke-miterlimit="10" stroke-dasharray="4.58333 4.58333" stroke-opacity="1" fill="none" fill-rule="evenodd" transform="matrix(1 0 0 -1 2336.5 1785.51)"/><text fill="#C59C52" fill-opacity="1" font-family="American Typewriter,American Typewriter_MSFontService,sans-serif" font-style="normal" font-variant="normal" font-weight="400" font-stretch="normal" font-size="83" text-anchor="start" direction="ltr" writing-mode="lr-tb" unicode-bidi="normal" text-decoration="none" transform="matrix(6.12323e-17 -1 1 6.12323e-17 2368.55 2047)">Signal</text><path d="M0 0 0.000360892 1307.01" stroke="#000000" stroke-width="4.58333" stroke-linecap="butt" stroke-linejoin="round" stroke-miterlimit="10" stroke-dasharray="4.58333 4.58333" stroke-opacity="1" fill="none" fill-rule="evenodd" transform="matrix(1 0 0 -1 2466.5 1785.51)"/><text fill="#C59C52" fill-opacity="1" font-family="American Typewriter,American Typewriter_MSFontService,sans-serif" font-style="normal" font-variant="normal" font-weight="400" font-stretch="normal" font-size="83" text-anchor="start" direction="ltr" writing-mode="lr-tb" unicode-bidi="normal" text-decoration="none" transform="matrix(6.12323e-17 -1 1 6.12323e-17 2498.47 2198)">Ack&amp;Wait</text><path d="M0 0 0.000360892 1306.96" stroke="#000000" stroke-width="4.58333" stroke-linecap="butt" stroke-linejoin="round" stroke-miterlimit="10" stroke-dasharray="4.58333 4.58333" stroke-opacity="1" fill="none" fill-rule="evenodd" transform="matrix(1 0 0 -1 1421.5 1785.46)"/><text fill="#789A47" fill-opacity="1" font-family="American Typewriter,American Typewriter_MSFontService,sans-serif" font-style="normal" font-variant="normal" font-weight="400" font-stretch="normal" font-size="83" text-anchor="start" direction="ltr" writing-mode="lr-tb" unicode-bidi="normal" text-decoration="none" transform="matrix(6.12323e-17 -1 1 6.12323e-17 1452.28 2207)">Invalidate</text></g></g></svg>