<svg width="1343" height="903" xmlns="http://www.w3.org/2000/svg" xmlns:xlink="http://www.w3.org/1999/xlink" xml:space="preserve" overflow="hidden"><defs><clipPath id="clip0"><rect x="453" y="893" width="1343" height="903"/></clipPath></defs><g clip-path="url(#clip0)" transform="translate(-453 -893)"><text fill="#789A47" fill-opacity="1" font-family="American Typewriter,American Typewriter_MSFontService,sans-serif" font-style="normal" font-variant="normal" font-weight="400" font-stretch="normal" font-size="83" text-anchor="start" direction="ltr" writing-mode="lr-tb" unicode-bidi="normal" text-decoration="none" transform="matrix(6.12323e-17 -1 1 6.12323e-17 1052.45 1639)">Send</text><path d="M0 0 0.000360892 526.181" stroke="#000000" stroke-width="4.58333" stroke-linecap="butt" stroke-linejoin="round" stroke-miterlimit="10" stroke-dasharray="4.58333 4.58333" stroke-opacity="1" fill="none" fill-rule="evenodd" transform="matrix(1 0 0 -1 1025.5 1426.68)"/><text fill="#000000" fill-opacity="1" font-family="American Typewriter,American Typewriter_MSFontService,sans-serif" font-style="normal" font-variant="normal" font-weight="400" font-stretch="normal" font-size="83" text-anchor="start" direction="ltr" writing-mode="lr-tb" unicode-bidi="normal" text-decoration="none" transform="matrix(6.12323e-17 -1 1 6.12323e-17 1273.15 1744)">IRQ<tspan fill="#000000" fill-opacity="1" font-family="Roboto,Roboto_MSFontService,sans-serif" font-style="normal" font-variant="normal" font-weight="400" font-stretch="normal" font-size="83" text-anchor="start" direction="ltr" writing-mode="lr-tb" unicode-bidi="normal" text-decoration="none" x="167" y="-1.02258e-14">(T</tspan><tspan fill="#000000" fill-opacity="1" font-family="Roboto,Roboto_MSFontService,sans-serif" font-style="normal" font-variant="normal" font-weight="400" font-stretch="normal" font-size="55" text-anchor="start" direction="ltr" writing-mode="lr-tb" unicode-bidi="normal" text-decoration="none" x="244" y="20.0062">c</tspan><tspan fill="#000000" fill-opacity="1" font-family="Roboto,Roboto_MSFontService,sans-serif" font-style="normal" font-variant="normal" font-weight="400" font-stretch="normal" font-size="83" text-anchor="start" direction="ltr" writing-mode="lr-tb" unicode-bidi="normal" text-decoration="none" x="273" y="-1.67164e-14">)</tspan></text><path d="M0 0 0.000360892 525.682" stroke="#000000" stroke-width="4.58333" stroke-linecap="butt" stroke-linejoin="round" stroke-miterlimit="10" stroke-dasharray="4.58333 4.58333" stroke-opacity="1" fill="none" fill-rule="evenodd" transform="matrix(1 0 0 -1 1245.5 1426.18)"/><text fill="#000000" fill-opacity="1" font-family="American Typewriter,American Typewriter_MSFontService,sans-serif" font-style="normal" font-variant="normal" font-weight="400" font-stretch="normal" font-size="83" text-anchor="start" direction="ltr" writing-mode="lr-tb" unicode-bidi="normal" text-decoration="none" transform="matrix(6.12323e-17 -1 1 6.12323e-17 818.586 1725)">IRQ<tspan fill="#000000" fill-opacity="1" font-family="Roboto,Roboto_MSFontService,sans-serif" font-style="normal" font-variant="normal" font-weight="400" font-stretch="normal" font-size="83" text-anchor="start" direction="ltr" writing-mode="lr-tb" unicode-bidi="normal" text-decoration="none" x="145" y="-8.87869e-15">(R</tspan><tspan fill="#000000" fill-opacity="1" font-family="Roboto,Roboto_MSFontService,sans-serif" font-style="normal" font-variant="normal" font-weight="400" font-stretch="normal" font-size="55" text-anchor="start" direction="ltr" writing-mode="lr-tb" unicode-bidi="normal" text-decoration="none" x="224" y="20.0062">a</tspan><tspan fill="#000000" fill-opacity="1" font-family="Roboto,Roboto_MSFontService,sans-serif" font-style="normal" font-variant="normal" font-weight="400" font-stretch="normal" font-size="83" text-anchor="start" direction="ltr" writing-mode="lr-tb" unicode-bidi="normal" text-decoration="none" x="254" y="-1.5553e-14">)</tspan></text><path d="M0 0 0.000360892 525.291" stroke="#000000" stroke-width="4.58333" stroke-linecap="butt" stroke-linejoin="round" stroke-miterlimit="10" stroke-dasharray="4.58333 4.58333" stroke-opacity="1" fill="none" fill-rule="evenodd" transform="matrix(1 0 0 -1 790.5 1425.79)"/><text fill="#47678B" fill-opacity="1" font-family="Roboto,Roboto_MSFontService,sans-serif" font-style="normal" font-variant="normal" font-weight="400" font-stretch="normal" font-size="83" text-anchor="start" direction="ltr" writing-mode="lr-tb" unicode-bidi="normal" text-decoration="none" transform="matrix(1 0 0 1 505.023 1321)">Other</text><path d="M607 1226 790.055 1226" stroke="#47678B" stroke-width="10.3125" stroke-linecap="butt" stroke-linejoin="round" stroke-miterlimit="10" stroke-opacity="1" fill="none" fill-rule="evenodd"/><path d="M789 1223 789 1356.29" stroke="#47678B" stroke-width="10.3125" stroke-linecap="butt" stroke-linejoin="round" stroke-miterlimit="10" stroke-dasharray="30.9375 10.3125" stroke-opacity="1" fill="none" fill-rule="evenodd"/><path d="M1098 1223 1244.64 1223" stroke="#47678B" stroke-width="10.3125" stroke-linecap="butt" stroke-linejoin="round" stroke-miterlimit="10" stroke-opacity="1" fill="none" fill-rule="evenodd"/><path d="M789 1359 1107.08 1359" stroke="#47678B" stroke-width="10.3125" stroke-linecap="butt" stroke-linejoin="round" stroke-miterlimit="10" stroke-dasharray="30.9375 10.3125" stroke-opacity="1" fill="none" fill-rule="evenodd"/><path d="M0 0 0.000360892 133.289" stroke="#47678B" stroke-width="10.3125" stroke-linecap="butt" stroke-linejoin="round" stroke-miterlimit="10" stroke-dasharray="30.9375 10.3125" stroke-opacity="1" fill="none" fill-rule="evenodd" transform="matrix(1 0 0 -1 1469 1361.29)"/><path d="M1469 1225 1550.53 1225" stroke="#47678B" stroke-width="10.3125" stroke-linecap="butt" stroke-linejoin="round" stroke-miterlimit="10" stroke-opacity="1" fill="none" fill-rule="evenodd"/><text fill="#47678B" fill-opacity="1" font-family="Roboto,Roboto_MSFontService,sans-serif" font-style="normal" font-variant="normal" font-weight="400" font-stretch="normal" font-size="64" text-anchor="start" direction="ltr" writing-mode="lr-tb" unicode-bidi="normal" text-decoration="none" transform="matrix(1 0 0 1 1583.6 1247)">user<tspan fill="#47678B" fill-opacity="1" font-family="Roboto,Roboto_MSFontService,sans-serif" font-style="normal" font-variant="normal" font-weight="400" font-stretch="normal" font-size="64" text-anchor="start" direction="ltr" writing-mode="lr-tb" unicode-bidi="normal" text-decoration="none" x="-0.000366211" y="137">kernel</tspan></text><path d="M0 0 0.000360892 133.289" stroke="#47678B" stroke-width="10.3125" stroke-linecap="butt" stroke-linejoin="round" stroke-miterlimit="10" stroke-dasharray="30.9375 10.3125" stroke-opacity="1" fill="none" fill-rule="evenodd" transform="matrix(1 0 0 -1 1107 1356.29)"/><path d="M0 0 0.000360892 133.289" stroke="#47678B" stroke-width="10.3125" stroke-linecap="butt" stroke-linejoin="round" stroke-miterlimit="10" stroke-dasharray="30.9375 10.3125" stroke-opacity="1" fill="none" fill-rule="evenodd" transform="matrix(1 0 0 -1 1245 1359.29)"/><path d="M1245 1364 1469.43 1364" stroke="#47678B" stroke-width="10.3125" stroke-linecap="butt" stroke-linejoin="round" stroke-miterlimit="10" stroke-dasharray="30.9375 10.3125" stroke-opacity="1" fill="none" fill-rule="evenodd"/><text fill="#789A47" fill-opacity="1" font-family="American Typewriter,American Typewriter_MSFontService,sans-serif" font-style="normal" font-variant="normal" font-weight="400" font-stretch="normal" font-size="83" text-anchor="start" direction="ltr" writing-mode="lr-tb" unicode-bidi="normal" text-decoration="none" transform="matrix(6.12323e-17 -1 1 6.12323e-17 1447.86 1626)">Wait</text><path d="M1419.73 1426.83 1418.5 901.5" stroke="#000000" stroke-width="4.58333" stroke-linecap="butt" stroke-linejoin="round" stroke-miterlimit="10" stroke-dasharray="4.58333 4.58333" stroke-opacity="1" fill="none" fill-rule="evenodd"/><text fill="#789A47" fill-opacity="1" font-family="Roboto,Roboto_MSFontService,sans-serif" font-style="normal" font-variant="normal" font-weight="400" font-stretch="normal" font-size="83" text-anchor="start" direction="ltr" writing-mode="lr-tb" unicode-bidi="normal" text-decoration="none" transform="matrix(1 0 0 1 504.734 1049)">Client</text><path d="M611 1088 917.773 1088" stroke="#789A47" stroke-width="10.3125" stroke-linecap="butt" stroke-linejoin="round" stroke-miterlimit="10" stroke-dasharray="30.9375 10.3125" stroke-opacity="1" fill="none" fill-rule="evenodd"/><path d="M5.15625-1.3961e-05 5.15654 107.508-5.15596 107.508-5.15625 1.3961e-05ZM15.469 102.352 0.000360892 133.289-15.4685 102.352Z" fill="#789A47" fill-rule="nonzero" fill-opacity="1" transform="matrix(1 0 0 -1 918 1095.29)"/><path d="M0 0 106.535 0.000360892" stroke="#789A47" stroke-width="10.3125" stroke-linecap="butt" stroke-linejoin="round" stroke-miterlimit="10" stroke-opacity="1" fill="none" fill-rule="evenodd" transform="matrix(1 0 0 -1 918 962)"/><path d="M1029.16 962 1029.16 1069.51 1018.84 1069.51 1018.84 962ZM1039.47 1064.35 1024 1095.29 1008.53 1064.35Z" fill="#789A47" fill-rule="nonzero" fill-opacity="1"/><path d="M0 0 292.915 0.716732" stroke="#789A47" stroke-width="10.3125" stroke-linecap="butt" stroke-linejoin="round" stroke-miterlimit="10" stroke-dasharray="30.9375 10.3125" stroke-opacity="1" fill="none" fill-rule="evenodd" transform="matrix(1 0 0 -1 1024 1094.72)"/><path d="M5.15625-1.3961e-05 5.15654 107.508-5.15596 107.508-5.15625 1.3961e-05ZM15.469 102.352 0.000360892 133.289-15.4685 102.352Z" fill="#789A47" fill-rule="nonzero" fill-opacity="1" transform="matrix(1 0 0 -1 1316 1095.29)"/><path d="M1314 962 1414.84 962.001" stroke="#789A47" stroke-width="10.3125" stroke-linecap="butt" stroke-linejoin="round" stroke-miterlimit="10" stroke-opacity="1" fill="none" fill-rule="evenodd"/><path d="M1420.16 962 1420.16 1069.51 1409.84 1069.51 1409.84 962ZM1430.47 1064.35 1415 1095.29 1399.53 1064.35Z" fill="#789A47" fill-rule="nonzero" fill-opacity="1"/><text fill="#789A47" fill-opacity="1" font-family="Roboto,Roboto_MSFontService,sans-serif" font-style="normal" font-variant="normal" font-weight="400" font-stretch="normal" font-size="64" text-anchor="start" direction="ltr" writing-mode="lr-tb" unicode-bidi="normal" text-decoration="none" transform="matrix(1 0 0 1 1583.6 984)">user<tspan fill="#789A47" fill-opacity="1" font-family="Roboto,Roboto_MSFontService,sans-serif" font-style="normal" font-variant="normal" font-weight="400" font-stretch="normal" font-size="64" text-anchor="start" direction="ltr" writing-mode="lr-tb" unicode-bidi="normal" text-decoration="none" x="0" y="133">kernel</tspan></text><path d="M1418 1095 1550.48 1095" stroke="#789A47" stroke-width="10.3125" stroke-linecap="butt" stroke-linejoin="round" stroke-miterlimit="10" stroke-dasharray="30.9375 10.3125" stroke-opacity="1" fill="none" fill-rule="evenodd"/></g></svg>