<svg width="2186" height="1540" xmlns="http://www.w3.org/2000/svg" xmlns:xlink="http://www.w3.org/1999/xlink" xml:space="preserve" overflow="hidden"><defs><clipPath id="clip0"><rect x="440" y="770" width="2186" height="1540"/></clipPath></defs><g clip-path="url(#clip0)" transform="translate(-440 -770)"><text fill="#789A47" fill-opacity="1" font-family="American Typewriter,American Typewriter_MSFontService,sans-serif" font-style="normal" font-variant="normal" font-weight="400" font-stretch="normal" font-size="83" text-anchor="start" direction="ltr" writing-mode="lr-tb" unicode-bidi="normal" text-decoration="none" transform="matrix(6.12323e-17 -1 1 6.12323e-17 1209.7 2250)">Cache<tspan fill="#789A47" fill-opacity="1" font-family="American Typewriter,American Typewriter_MSFontService,sans-serif" font-style="normal" font-variant="normal" font-weight="400" font-stretch="normal" font-size="83" text-anchor="start" direction="ltr" writing-mode="lr-tb" unicode-bidi="normal" text-decoration="none" x="237" y="-1.45121e-14">-</tspan><tspan fill="#789A47" fill-opacity="1" font-family="American Typewriter,American Typewriter_MSFontService,sans-serif" font-style="normal" font-variant="normal" font-weight="400" font-stretch="normal" font-size="83" text-anchor="start" direction="ltr" writing-mode="lr-tb" unicode-bidi="normal" text-decoration="none" x="262" y="-1.60429e-14">Invalidate</tspan></text><path d="M0 0 0.000360892 793.506" stroke="#000000" stroke-width="4.58333" stroke-linecap="butt" stroke-linejoin="round" stroke-miterlimit="10" stroke-dasharray="4.58333 4.58333" stroke-opacity="1" fill="none" fill-rule="evenodd" transform="matrix(1 0 0 -1 1181.5 1567.01)"/><text fill="#789A47" fill-opacity="1" font-family="American Typewriter,American Typewriter_MSFontService,sans-serif" font-style="normal" font-variant="normal" font-weight="400" font-stretch="normal" font-size="83" text-anchor="start" direction="ltr" writing-mode="lr-tb" unicode-bidi="normal" text-decoration="none" transform="matrix(6.12323e-17 -1 1 6.12323e-17 1344.94 2067)">Cache<tspan fill="#789A47" fill-opacity="1" font-family="American Typewriter,American Typewriter_MSFontService,sans-serif" font-style="normal" font-variant="normal" font-weight="400" font-stretch="normal" font-size="83" text-anchor="start" direction="ltr" writing-mode="lr-tb" unicode-bidi="normal" text-decoration="none" x="237" y="-1.45121e-14">-</tspan><tspan fill="#789A47" fill-opacity="1" font-family="American Typewriter,American Typewriter_MSFontService,sans-serif" font-style="normal" font-variant="normal" font-weight="400" font-stretch="normal" font-size="83" text-anchor="start" direction="ltr" writing-mode="lr-tb" unicode-bidi="normal" text-decoration="none" x="263" y="-1.61041e-14">Clean</tspan></text><path d="M0 0 0.000360892 793.506" stroke="#000000" stroke-width="4.58333" stroke-linecap="butt" stroke-linejoin="round" stroke-miterlimit="10" stroke-dasharray="4.58333 4.58333" stroke-opacity="1" fill="none" fill-rule="evenodd" transform="matrix(1 0 0 -1 1316.5 1567.01)"/><text fill="#789A47" fill-opacity="1" font-family="American Typewriter,American Typewriter_MSFontService,sans-serif" font-style="normal" font-variant="normal" font-weight="400" font-stretch="normal" font-size="83" text-anchor="start" direction="ltr" writing-mode="lr-tb" unicode-bidi="normal" text-decoration="none" transform="matrix(6.12323e-17 -1 1 6.12323e-17 1480.18 1733)">Call</text><path d="M0 0 0.000360892 793.506" stroke="#000000" stroke-width="4.58333" stroke-linecap="butt" stroke-linejoin="round" stroke-miterlimit="10" stroke-dasharray="4.58333 4.58333" stroke-opacity="1" fill="none" fill-rule="evenodd" transform="matrix(1 0 0 -1 1452.5 1567.01)"/><text fill="#C59C52" fill-opacity="1" font-family="American Typewriter,American Typewriter_MSFontService,sans-serif" font-style="normal" font-variant="normal" font-weight="400" font-stretch="normal" font-size="83" text-anchor="start" direction="ltr" writing-mode="lr-tb" unicode-bidi="normal" text-decoration="none" transform="matrix(6.12323e-17 -1 1 6.12323e-17 1628.68 2061)">Reply&amp;Wait</text><path d="M0 0 0.000360892 793.506" stroke="#000000" stroke-width="4.58333" stroke-linecap="butt" stroke-linejoin="round" stroke-miterlimit="10" stroke-dasharray="4.58333 4.58333" stroke-opacity="1" fill="none" fill-rule="evenodd" transform="matrix(1 0 0 -1 1600.5 1567.01)"/><text fill="#000000" fill-opacity="1" font-family="American Typewriter,American Typewriter_MSFontService,sans-serif" font-style="normal" font-variant="normal" font-weight="400" font-stretch="normal" font-size="83" text-anchor="start" direction="ltr" writing-mode="lr-tb" unicode-bidi="normal" text-decoration="none" transform="matrix(6.12323e-17 -1 1 6.12323e-17 2032.56 1885)">IRQ<tspan fill="#000000" fill-opacity="1" font-family="Roboto,Roboto_MSFontService,sans-serif" font-style="normal" font-variant="normal" font-weight="400" font-stretch="normal" font-size="83" text-anchor="start" direction="ltr" writing-mode="lr-tb" unicode-bidi="normal" text-decoration="none" x="167" y="-1.02258e-14">(T</tspan><tspan fill="#000000" fill-opacity="1" font-family="Roboto,Roboto_MSFontService,sans-serif" font-style="normal" font-variant="normal" font-weight="400" font-stretch="normal" font-size="55" text-anchor="start" direction="ltr" writing-mode="lr-tb" unicode-bidi="normal" text-decoration="none" x="244" y="20.0063">c</tspan><tspan fill="#000000" fill-opacity="1" font-family="Roboto,Roboto_MSFontService,sans-serif" font-style="normal" font-variant="normal" font-weight="400" font-stretch="normal" font-size="83" text-anchor="start" direction="ltr" writing-mode="lr-tb" unicode-bidi="normal" text-decoration="none" x="273" y="-1.67164e-14">)</tspan></text><path d="M0 0 0.000360892 793.506" stroke="#000000" stroke-width="4.58333" stroke-linecap="butt" stroke-linejoin="round" stroke-miterlimit="10" stroke-dasharray="4.58333 4.58333" stroke-opacity="1" fill="none" fill-rule="evenodd" transform="matrix(1 0 0 -1 2004.5 1567.01)"/><text fill="#C59C52" fill-opacity="1" font-family="American Typewriter,American Typewriter_MSFontService,sans-serif" font-style="normal" font-variant="normal" font-weight="400" font-stretch="normal" font-size="83" text-anchor="start" direction="ltr" writing-mode="lr-tb" unicode-bidi="normal" text-decoration="none" transform="matrix(6.12323e-17 -1 1 6.12323e-17 2167.8 2143)">Signal<tspan fill="#C59C52" fill-opacity="1" font-family="Roboto,Roboto_MSFontService,sans-serif" font-style="normal" font-variant="normal" font-weight="400" font-stretch="normal" font-size="83" text-anchor="start" direction="ltr" writing-mode="lr-tb" unicode-bidi="normal" text-decoration="none" x="246" y="-1.50632e-14">(not</tspan><tspan fill="#C59C52" fill-opacity="1" font-family="Roboto,Roboto_MSFontService,sans-serif" font-style="normal" font-variant="normal" font-weight="400" font-stretch="normal" font-size="83" text-anchor="start" direction="ltr" writing-mode="lr-tb" unicode-bidi="normal" text-decoration="none" x="394" y="-2.41255e-14">-</tspan><tspan fill="#C59C52" fill-opacity="1" font-family="Roboto,Roboto_MSFontService,sans-serif" font-style="normal" font-variant="normal" font-weight="400" font-stretch="normal" font-size="83" text-anchor="start" direction="ltr" writing-mode="lr-tb" unicode-bidi="normal" text-decoration="none" x="417" y="-2.55339e-14">full)</tspan></text><path d="M0 0 0.000360892 793.506" stroke="#000000" stroke-width="4.58333" stroke-linecap="butt" stroke-linejoin="round" stroke-miterlimit="10" stroke-dasharray="4.58333 4.58333" stroke-opacity="1" fill="none" fill-rule="evenodd" transform="matrix(1 0 0 -1 2139.5 1567.01)"/><text fill="#C59C52" fill-opacity="1" font-family="American Typewriter,American Typewriter_MSFontService,sans-serif" font-style="normal" font-variant="normal" font-weight="400" font-stretch="normal" font-size="83" text-anchor="start" direction="ltr" writing-mode="lr-tb" unicode-bidi="normal" text-decoration="none" transform="matrix(6.12323e-17 -1 1 6.12323e-17 2303.04 1988)">Ack&amp;<tspan fill="#C59C52" fill-opacity="1" font-family="American Typewriter,American Typewriter_MSFontService,sans-serif" font-style="normal" font-variant="normal" font-weight="400" font-stretch="normal" font-size="83" text-anchor="start" direction="ltr" writing-mode="lr-tb" unicode-bidi="normal" text-decoration="none" x="222" y="-1.35936e-14">Wait</tspan></text><path d="M0 0 0.000360892 793.506" stroke="#000000" stroke-width="4.58333" stroke-linecap="butt" stroke-linejoin="round" stroke-miterlimit="10" stroke-dasharray="4.58333 4.58333" stroke-opacity="1" fill="none" fill-rule="evenodd" transform="matrix(1 0 0 -1 2275.5 1567.01)"/><text fill="#000000" fill-opacity="1" font-family="American Typewriter,American Typewriter_MSFontService,sans-serif" font-style="normal" font-variant="normal" font-weight="400" font-stretch="normal" font-size="83" text-anchor="start" direction="ltr" writing-mode="lr-tb" unicode-bidi="normal" text-decoration="none" transform="matrix(6.12323e-17 -1 1 6.12323e-17 804.33 1866)">IRQ<tspan fill="#000000" fill-opacity="1" font-family="Roboto,Roboto_MSFontService,sans-serif" font-style="normal" font-variant="normal" font-weight="400" font-stretch="normal" font-size="83" text-anchor="start" direction="ltr" writing-mode="lr-tb" unicode-bidi="normal" text-decoration="none" x="145" y="-8.87869e-15">(R</tspan><tspan fill="#000000" fill-opacity="1" font-family="Roboto,Roboto_MSFontService,sans-serif" font-style="normal" font-variant="normal" font-weight="400" font-stretch="normal" font-size="55" text-anchor="start" direction="ltr" writing-mode="lr-tb" unicode-bidi="normal" text-decoration="none" x="224" y="20.0062">a</tspan><tspan fill="#000000" fill-opacity="1" font-family="Roboto,Roboto_MSFontService,sans-serif" font-style="normal" font-variant="normal" font-weight="400" font-stretch="normal" font-size="83" text-anchor="start" direction="ltr" writing-mode="lr-tb" unicode-bidi="normal" text-decoration="none" x="254" y="-1.5553e-14">)</tspan></text><path d="M0 0 0.000360892 793.506" stroke="#000000" stroke-width="4.58333" stroke-linecap="butt" stroke-linejoin="round" stroke-miterlimit="10" stroke-dasharray="4.58333 4.58333" stroke-opacity="1" fill="none" fill-rule="evenodd" transform="matrix(1 0 0 -1 776.5 1567.01)"/><text fill="#C59C52" fill-opacity="1" font-family="American Typewriter,American Typewriter_MSFontService,sans-serif" font-style="normal" font-variant="normal" font-weight="400" font-stretch="normal" font-size="83" text-anchor="start" direction="ltr" writing-mode="lr-tb" unicode-bidi="normal" text-decoration="none" transform="matrix(6.12323e-17 -1 1 6.12323e-17 939.448 2257)">Signal<tspan fill="#C59C52" fill-opacity="1" font-family="Roboto,Roboto_MSFontService,sans-serif" font-style="normal" font-variant="normal" font-weight="400" font-stretch="normal" font-size="83" text-anchor="start" direction="ltr" writing-mode="lr-tb" unicode-bidi="normal" text-decoration="none" x="247" y="-1.51244e-14">(not</tspan><tspan fill="#C59C52" fill-opacity="1" font-family="Roboto,Roboto_MSFontService,sans-serif" font-style="normal" font-variant="normal" font-weight="400" font-stretch="normal" font-size="83" text-anchor="start" direction="ltr" writing-mode="lr-tb" unicode-bidi="normal" text-decoration="none" x="394" y="-2.41255e-14">-</tspan><tspan fill="#C59C52" fill-opacity="1" font-family="Roboto,Roboto_MSFontService,sans-serif" font-style="normal" font-variant="normal" font-weight="400" font-stretch="normal" font-size="83" text-anchor="start" direction="ltr" writing-mode="lr-tb" unicode-bidi="normal" text-decoration="none" x="417" y="-2.55339e-14">empty)</tspan></text><path d="M0 0 0.000360892 793.506" stroke="#000000" stroke-width="4.58333" stroke-linecap="butt" stroke-linejoin="round" stroke-miterlimit="10" stroke-dasharray="4.58333 4.58333" stroke-opacity="1" fill="none" fill-rule="evenodd" transform="matrix(1 0 0 -1 911.5 1567.01)"/><text fill="#C59C52" fill-opacity="1" font-family="American Typewriter,American Typewriter_MSFontService,sans-serif" font-style="normal" font-variant="normal" font-weight="400" font-stretch="normal" font-size="83" text-anchor="start" direction="ltr" writing-mode="lr-tb" unicode-bidi="normal" text-decoration="none" transform="matrix(6.12323e-17 -1 1 6.12323e-17 1074.57 1987)">Ack&amp;<tspan fill="#C59C52" fill-opacity="1" font-family="American Typewriter,American Typewriter_MSFontService,sans-serif" font-style="normal" font-variant="normal" font-weight="400" font-stretch="normal" font-size="83" text-anchor="start" direction="ltr" writing-mode="lr-tb" unicode-bidi="normal" text-decoration="none" x="221" y="-1.35323e-14">Wait</tspan></text><path d="M0 0 0.000360892 793.506" stroke="#000000" stroke-width="4.58333" stroke-linecap="butt" stroke-linejoin="round" stroke-miterlimit="10" stroke-dasharray="4.58333 4.58333" stroke-opacity="1" fill="none" fill-rule="evenodd" transform="matrix(1 0 0 -1 1046.5 1567.01)"/><text fill="#47678B" fill-opacity="1" font-family="Roboto,Roboto_MSFontService,sans-serif" font-style="normal" font-variant="normal" font-weight="400" font-stretch="normal" font-size="83" text-anchor="start" direction="ltr" writing-mode="lr-tb" unicode-bidi="normal" text-decoration="none" transform="matrix(1 0 0 1 490.767 1461)">Other</text><path d="M592 1367 775.055 1367" stroke="#47678B" stroke-width="10.3125" stroke-linecap="butt" stroke-linejoin="round" stroke-miterlimit="10" stroke-opacity="1" fill="none" fill-rule="evenodd"/><path d="M775 1364 775.001 1497.29" stroke="#47678B" stroke-width="10.3125" stroke-linecap="butt" stroke-linejoin="round" stroke-miterlimit="10" stroke-dasharray="30.9375 10.3125" stroke-opacity="1" fill="none" fill-rule="evenodd"/><path d="M775 1500 1769.62 1500" stroke="#47678B" stroke-width="10.3125" stroke-linecap="butt" stroke-linejoin="round" stroke-miterlimit="10" stroke-dasharray="30.9375 10.3125" stroke-opacity="1" fill="none" fill-rule="evenodd"/><path d="M0 0 0.000360892 133.289" stroke="#47678B" stroke-width="10.3125" stroke-linecap="butt" stroke-linejoin="round" stroke-miterlimit="10" stroke-dasharray="30.9375 10.3125" stroke-opacity="1" fill="none" fill-rule="evenodd" transform="matrix(1 0 0 -1 1770 1501.29)"/><path d="M0 0 80.5609 0.000360892" stroke="#47678B" stroke-width="10.3125" stroke-linecap="butt" stroke-linejoin="round" stroke-miterlimit="10" stroke-opacity="1" fill="none" fill-rule="evenodd" transform="matrix(1 0 0 -1 2298 1363)"/><path d="M1770 1365 2003.88 1365" stroke="#47678B" stroke-width="10.3125" stroke-linecap="butt" stroke-linejoin="round" stroke-miterlimit="10" stroke-opacity="1" fill="none" fill-rule="evenodd"/><path d="M2004 1365 2004 1498.29" stroke="#47678B" stroke-width="10.3125" stroke-linecap="butt" stroke-linejoin="round" stroke-miterlimit="10" stroke-dasharray="30.9375 10.3125" stroke-opacity="1" fill="none" fill-rule="evenodd"/><path d="M0 0 296.222 0.0656824" stroke="#47678B" stroke-width="10.3125" stroke-linecap="butt" stroke-linejoin="round" stroke-miterlimit="10" stroke-dasharray="30.9375 10.3125" stroke-opacity="1" fill="none" fill-rule="evenodd" transform="matrix(1 0 0 -1 2003 1497.07)"/><path d="M0 0 0.000360892 133.289" stroke="#47678B" stroke-width="10.3125" stroke-linecap="butt" stroke-linejoin="round" stroke-miterlimit="10" stroke-dasharray="30.9375 10.3125" stroke-opacity="1" fill="none" fill-rule="evenodd" transform="matrix(1 0 0 -1 2300 1492.29)"/><text fill="#47678B" fill-opacity="1" font-family="Roboto,Roboto_MSFontService,sans-serif" font-style="normal" font-variant="normal" font-weight="400" font-stretch="normal" font-size="64" text-anchor="start" direction="ltr" writing-mode="lr-tb" unicode-bidi="normal" text-decoration="none" transform="matrix(1 0 0 1 2411.89 1385)">user<tspan fill="#47678B" fill-opacity="1" font-family="Roboto,Roboto_MSFontService,sans-serif" font-style="normal" font-variant="normal" font-weight="400" font-stretch="normal" font-size="64" text-anchor="start" direction="ltr" writing-mode="lr-tb" unicode-bidi="normal" text-decoration="none" x="-0.134033" y="136">kernel</tspan><tspan fill="#C59C52" fill-opacity="1" font-family="Roboto,Roboto_MSFontService,sans-serif" font-style="normal" font-variant="normal" font-weight="400" font-stretch="normal" font-size="83" text-anchor="start" direction="ltr" writing-mode="lr-tb" unicode-bidi="normal" text-decoration="none" x="-1921.41" y="-455">Driver</tspan></text><path d="M599 969 799.58 969" stroke="#C59C52" stroke-width="10.3125" stroke-linecap="butt" stroke-linejoin="round" stroke-miterlimit="10" stroke-dasharray="30.9375 10.3125" stroke-opacity="1" fill="none" fill-rule="evenodd"/><path d="M5.15625-1.3961e-05 5.15654 107.508-5.15596 107.508-5.15625 1.3961e-05ZM15.469 102.352 0.000360892 133.289-15.4685 102.352Z" fill="#C59C52" fill-rule="nonzero" fill-opacity="1" transform="matrix(1 0 0 -1 799 969.289)"/><path d="M0 0 33.7795 0.000360892" stroke="#C59C52" stroke-width="10.3125" stroke-linecap="butt" stroke-linejoin="round" stroke-miterlimit="10" stroke-opacity="1" fill="none" fill-rule="evenodd" transform="matrix(1 0 0 -1 909 969)"/><path d="M5.15625-1.3961e-05 5.15654 107.508-5.15596 107.508-5.15625 1.3961e-05ZM15.469 102.352 0.000360892 133.289-15.4685 102.352Z" fill="#C59C52" fill-rule="nonzero" fill-opacity="1" transform="matrix(1 0 0 -1 943 969.289)"/><path d="M941 836 1044.58 836.066" stroke="#C59C52" stroke-width="10.3125" stroke-linecap="butt" stroke-linejoin="round" stroke-miterlimit="10" stroke-opacity="1" fill="none" fill-rule="evenodd"/><path d="M1050.16 836 1050.16 943.508 1039.84 943.508 1039.84 836ZM1060.47 938.352 1045 969.289 1029.53 938.352Z" fill="#C59C52" fill-rule="nonzero" fill-opacity="1"/><path d="M1067 970 1485.42 970" stroke="#C59C52" stroke-width="10.3125" stroke-linecap="butt" stroke-linejoin="round" stroke-miterlimit="10" stroke-dasharray="30.9375 10.3125" stroke-opacity="1" fill="none" fill-rule="evenodd"/><path d="M5.15625-1.3961e-05 5.15654 107.508-5.15596 107.508-5.15625 1.3961e-05ZM15.469 102.352 0.000360892 133.289-15.4685 102.352Z" fill="#C59C52" fill-rule="nonzero" fill-opacity="1" transform="matrix(1 0 0 -1 1484 969.289)"/><path d="M1484 840 1599.75 840" stroke="#C59C52" stroke-width="10.3125" stroke-linecap="butt" stroke-linejoin="round" stroke-miterlimit="10" stroke-opacity="1" fill="none" fill-rule="evenodd"/><path d="M1605.16 842 1605.16 949.508 1594.84 949.508 1594.84 842ZM1615.47 944.351 1600 975.289 1584.53 944.351Z" fill="#C59C52" fill-rule="nonzero" fill-opacity="1"/><path d="M1600 969 2030.3 969" stroke="#C59C52" stroke-width="10.3125" stroke-linecap="butt" stroke-linejoin="round" stroke-miterlimit="10" stroke-dasharray="30.9375 10.3125" stroke-opacity="1" fill="none" fill-rule="evenodd"/><path d="M5.15625-1.3961e-05 5.15654 107.508-5.15596 107.508-5.15625 1.3961e-05ZM15.469 102.352 0.000360892 133.289-15.4685 102.352Z" fill="#C59C52" fill-rule="nonzero" fill-opacity="1" transform="matrix(1 0 0 -1 2031 969.289)"/><path d="M0 0 108.84 0.633005" stroke="#C59C52" stroke-width="10.3125" stroke-linecap="butt" stroke-linejoin="round" stroke-miterlimit="10" stroke-opacity="1" fill="none" fill-rule="evenodd" transform="matrix(1 0 0 -1 802 836.633)"/><path d="M917.156 836 917.156 943.508 906.844 943.508 906.844 836ZM927.469 938.352 912 969.289 896.531 938.352Z" fill="#C59C52" fill-rule="nonzero" fill-opacity="1"/><path d="M2030 843 2137.65 843" stroke="#C59C52" stroke-width="10.3125" stroke-linecap="butt" stroke-linejoin="round" stroke-miterlimit="10" stroke-opacity="1" fill="none" fill-rule="evenodd"/><path d="M2145.16 843 2145.16 950.508 2134.84 950.508 2134.84 843ZM2155.47 945.351 2140 976.289 2124.53 945.352Z" fill="#C59C52" fill-rule="nonzero" fill-opacity="1"/><path d="M2274 966 2378.63 966" stroke="#C59C52" stroke-width="10.3125" stroke-linecap="butt" stroke-linejoin="round" stroke-miterlimit="10" stroke-dasharray="30.9375 10.3125" stroke-opacity="1" fill="none" fill-rule="evenodd"/><text fill="#C59C52" fill-opacity="1" font-family="Roboto,Roboto_MSFontService,sans-serif" font-style="normal" font-variant="normal" font-weight="400" font-stretch="normal" font-size="64" text-anchor="start" direction="ltr" writing-mode="lr-tb" unicode-bidi="normal" text-decoration="none" transform="matrix(1 0 0 1 2411.89 860)">user<tspan fill="#C59C52" fill-opacity="1" font-family="Roboto,Roboto_MSFontService,sans-serif" font-style="normal" font-variant="normal" font-weight="400" font-stretch="normal" font-size="64" text-anchor="start" direction="ltr" writing-mode="lr-tb" unicode-bidi="normal" text-decoration="none" x="-0.134033" y="128">kernel</tspan></text><path d="M0 0 33.7795 0.000360892" stroke="#C59C52" stroke-width="10.3125" stroke-linecap="butt" stroke-linejoin="round" stroke-miterlimit="10" stroke-opacity="1" fill="none" fill-rule="evenodd" transform="matrix(1 0 0 -1 2138 972)"/><path d="M5.15625-1.3961e-05 5.15654 107.508-5.15596 107.508-5.15625 1.3961e-05ZM15.469 102.352 0.000360892 133.289-15.4685 102.352Z" fill="#C59C52" fill-rule="nonzero" fill-opacity="1" transform="matrix(1 0 0 -1 2172 972.289)"/><path d="M2174 842 2274.02 842.124" stroke="#C59C52" stroke-width="10.3125" stroke-linecap="butt" stroke-linejoin="round" stroke-miterlimit="10" stroke-opacity="1" fill="none" fill-rule="evenodd"/><path d="M2280.16 839 2280.16 946.508 2269.84 946.508 2269.84 839ZM2290.47 941.352 2275 972.289 2259.53 941.352Z" fill="#C59C52" fill-rule="nonzero" fill-opacity="1"/><text fill="#789A47" fill-opacity="1" font-family="American Typewriter,American Typewriter_MSFontService,sans-serif" font-style="normal" font-variant="normal" font-weight="400" font-stretch="normal" font-size="83" text-anchor="start" direction="ltr" writing-mode="lr-tb" unicode-bidi="normal" text-decoration="none" transform="matrix(6.12323e-17 -1 1 6.12323e-17 1764.08 1766)">Wait</text><path d="M0 0 0.000360892 793.506" stroke="#000000" stroke-width="4.58333" stroke-linecap="butt" stroke-linejoin="round" stroke-miterlimit="10" stroke-dasharray="4.58333 4.58333" stroke-opacity="1" fill="none" fill-rule="evenodd" transform="matrix(1 0 0 -1 1736.5 1567.01)"/><text fill="#789A47" fill-opacity="1" font-family="Roboto,Roboto_MSFontService,sans-serif" font-style="normal" font-variant="normal" font-weight="400" font-stretch="normal" font-size="83" text-anchor="start" direction="ltr" writing-mode="lr-tb" unicode-bidi="normal" text-decoration="none" transform="matrix(1 0 0 1 490.479 1197)">Server</text><path d="M0 0 466.142 0.16168" stroke="#789A47" stroke-width="10.3125" stroke-linecap="butt" stroke-linejoin="round" stroke-miterlimit="10" stroke-dasharray="30.9375 10.3125" stroke-opacity="1" fill="none" fill-rule="evenodd" transform="matrix(1 0 0 -1 608 1236.16)"/><path d="M5.15625-1.3961e-05 5.15654 107.508-5.15596 107.508-5.15625 1.3961e-05ZM15.469 102.352 0.000360892 133.289-15.4685 102.352Z" fill="#789A47" fill-rule="nonzero" fill-opacity="1" transform="matrix(1 0 0 -1 1074 1236.29)"/><path d="M0 0 106.535 0.000360892" stroke="#789A47" stroke-width="10.3125" stroke-linecap="butt" stroke-linejoin="round" stroke-miterlimit="10" stroke-opacity="1" fill="none" fill-rule="evenodd" transform="matrix(1 0 0 -1 1074 1103)"/><path d="M1186.16 1103 1186.16 1210.51 1175.84 1210.51 1175.84 1103ZM1196.47 1205.35 1181 1236.29 1165.53 1205.35Z" fill="#789A47" fill-rule="nonzero" fill-opacity="1"/><path d="M0 0 33.7795 0.000360892" stroke="#789A47" stroke-width="10.3125" stroke-linecap="butt" stroke-linejoin="round" stroke-miterlimit="10" stroke-opacity="1" fill="none" fill-rule="evenodd" transform="matrix(1 0 0 -1 1183 1236)"/><path d="M5.15625-1.3961e-05 5.15654 107.508-5.15596 107.508-5.15625 1.3961e-05ZM15.469 102.352 0.000360892 133.289-15.4685 102.352Z" fill="#789A47" fill-rule="nonzero" fill-opacity="1" transform="matrix(1 0 0 -1 1217 1236.29)"/><path d="M1216 1102 1316.84 1102" stroke="#789A47" stroke-width="10.3125" stroke-linecap="butt" stroke-linejoin="round" stroke-miterlimit="10" stroke-opacity="1" fill="none" fill-rule="evenodd"/><path d="M1321.16 1102 1321.16 1209.51 1310.84 1209.51 1310.84 1102ZM1331.47 1204.35 1316 1235.29 1300.53 1204.35Z" fill="#789A47" fill-rule="nonzero" fill-opacity="1"/><path d="M0 0 33.7795 0.000360892" stroke="#789A47" stroke-width="10.3125" stroke-linecap="butt" stroke-linejoin="round" stroke-miterlimit="10" stroke-opacity="1" fill="none" fill-rule="evenodd" transform="matrix(1 0 0 -1 1319 1235)"/><path d="M5.15625-1.3961e-05 5.15654 107.508-5.15596 107.508-5.15625 1.3961e-05ZM15.469 102.352 0.000360892 133.289-15.4685 102.352Z" fill="#789A47" fill-rule="nonzero" fill-opacity="1" transform="matrix(1 0 0 -1 1353 1235.29)"/><path d="M1347 1102 1450.08 1102" stroke="#789A47" stroke-width="10.3125" stroke-linecap="butt" stroke-linejoin="round" stroke-miterlimit="10" stroke-opacity="1" fill="none" fill-rule="evenodd"/><path d="M1455.16 1102 1455.16 1209.51 1444.84 1209.51 1444.84 1102ZM1465.47 1204.35 1450 1235.29 1434.53 1204.35Z" fill="#789A47" fill-rule="nonzero" fill-opacity="1"/><path d="M1736 1228 2379.31 1228" stroke="#789A47" stroke-width="10.3125" stroke-linecap="butt" stroke-linejoin="round" stroke-miterlimit="10" stroke-dasharray="30.9375 10.3125" stroke-opacity="1" fill="none" fill-rule="evenodd"/><text fill="#789A47" fill-opacity="1" font-family="Roboto,Roboto_MSFontService,sans-serif" font-style="normal" font-variant="normal" font-weight="400" font-stretch="normal" font-size="64" text-anchor="start" direction="ltr" writing-mode="lr-tb" unicode-bidi="normal" text-decoration="none" transform="matrix(1 0 0 1 2411.89 1126)">user<tspan fill="#789A47" fill-opacity="1" font-family="Roboto,Roboto_MSFontService,sans-serif" font-style="normal" font-variant="normal" font-weight="400" font-stretch="normal" font-size="64" text-anchor="start" direction="ltr" writing-mode="lr-tb" unicode-bidi="normal" text-decoration="none" x="0" y="124">kernel</tspan></text><path d="M1450 1235 1635.43 1235" stroke="#789A47" stroke-width="10.3125" stroke-linecap="butt" stroke-linejoin="round" stroke-miterlimit="10" stroke-dasharray="30.9375 10.3125" stroke-opacity="1" fill="none" fill-rule="evenodd"/><path d="M1632 1102 1735.08 1102" stroke="#789A47" stroke-width="10.3125" stroke-linecap="butt" stroke-linejoin="round" stroke-miterlimit="10" stroke-opacity="1" fill="none" fill-rule="evenodd"/><path d="M1741.16 1102 1741.16 1209.51 1730.84 1209.51 1730.84 1102ZM1751.47 1204.35 1736 1235.29 1720.53 1204.35Z" fill="#789A47" fill-rule="nonzero" fill-opacity="1"/><path d="M5.15625-1.3961e-05 5.15654 107.508-5.15596 107.508-5.15625 1.3961e-05ZM15.469 102.352 0.000360892 133.289-15.4685 102.352Z" fill="#789A47" fill-rule="nonzero" fill-opacity="1" transform="matrix(1 0 0 -1 1632 1235.29)"/></g></svg>