<svg width="2979" height="642" xmlns="http://www.w3.org/2000/svg" xmlns:xlink="http://www.w3.org/1999/xlink" xml:space="preserve" overflow="hidden"><g transform="translate(-165 -838)"><g><rect x="2814" y="841" width="311" height="346" fill="#000000" fill-opacity="1"/><text fill="#FFFFFF" fill-opacity="1" font-family="Roboto,Roboto_MSFontService,sans-serif" font-style="normal" font-variant="normal" font-weight="400" font-stretch="normal" font-size="83" text-anchor="start" direction="ltr" writing-mode="lr-tb" unicode-bidi="normal" text-decoration="none" transform="matrix(1 0 0 1 2847.09 1043)">Device</text><rect x="1940" y="841" width="311" height="346" fill="#FFD372" fill-opacity="1"/><text fill="#000000" fill-opacity="1" font-family="Roboto,Roboto_MSFontService,sans-serif" font-style="normal" font-variant="normal" font-weight="400" font-stretch="normal" font-size="83" text-anchor="start" direction="ltr" writing-mode="lr-tb" unicode-bidi="normal" text-decoration="none" transform="matrix(1 0 0 1 1998.68 1043)">Driver</text><rect x="1020" y="841" width="347" height="346" fill="#CBE4AA" fill-opacity="1"/><text fill="#000000" fill-opacity="1" font-family="Roboto,Roboto_MSFontService,sans-serif" font-style="normal" font-variant="normal" font-weight="400" font-stretch="normal" font-size="83" text-anchor="start" direction="ltr" writing-mode="lr-tb" unicode-bidi="normal" text-decoration="none" transform="matrix(1 0 0 1 1129.74 1035)">Virt</text><rect x="1480" y="861" width="347" height="105" fill="#9AA8BC" fill-opacity="1"/><text fill="#000000" fill-opacity="1" font-family="Roboto,Roboto_MSFontService,sans-serif" font-style="normal" font-variant="normal" font-weight="400" font-stretch="normal" font-size="73" text-anchor="start" direction="ltr" writing-mode="lr-tb" unicode-bidi="normal" text-decoration="none" transform="matrix(1 0 0 1 1515.27 940)">Tx D MD</text><path d="M1914.72 1000.21 1845.03 937.869 1852.67 929.328 1922.36 991.674ZM1925.73 979.314 1939.89 1015.04 1902.82 1004.93ZM1841.66 950.228 1827.5 914.5 1864.58 924.608Z" fill="#C59C52" fill-rule="nonzero" fill-opacity="1"/><path d="M25.1698 14.8286 94.8642 77.1734 87.2247 85.7135 17.5303 23.3686ZM14.1609 35.7284 0 0 37.0793 10.1083ZM98.2336 64.8137 112.395 100.542 75.3152 90.4338Z" fill="#789A47" fill-rule="nonzero" fill-opacity="1" transform="matrix(-1 0 0 1 1479.89 914.5)"/><rect x="1480" y="1062" width="347" height="103" fill="#9AA8BC" fill-opacity="1"/><text fill="#000000" fill-opacity="1" font-family="Roboto,Roboto_MSFontService,sans-serif" font-style="normal" font-variant="normal" font-weight="400" font-stretch="normal" font-size="73" text-anchor="start" direction="ltr" writing-mode="lr-tb" unicode-bidi="normal" text-decoration="none" transform="matrix(1 0 0 1 1514.41 1140)">Rx D MD</text><path d="M1454.67 1099.6 1385.11 1037.81 1392.72 1029.24 1462.28 1091.03ZM1465.61 1078.66 1479.89 1114.34 1442.78 1104.36ZM1381.79 1050.18 1367.5 1014.5 1404.61 1024.48Z" fill="#789A47" fill-rule="nonzero" fill-opacity="1"/><path d="M25.2215 14.7405 94.7825 76.5294 87.173 85.0961 17.612 23.3072ZM14.2858 35.6787 0 0 37.1144 9.97855ZM98.1087 64.1579 112.395 99.8365 75.2801 89.858Z" fill="#C59C52" fill-rule="nonzero" fill-opacity="1" transform="matrix(-1 0 0 1 1939.89 1014.5)"/><rect x="2363" y="964" width="339" height="105" fill="#9AA8BC" fill-opacity="1"/><text fill="#000000" fill-opacity="1" font-family="Roboto,Roboto_MSFontService,sans-serif" font-style="normal" font-variant="normal" font-weight="400" font-stretch="normal" font-size="73" text-anchor="start" direction="ltr" writing-mode="lr-tb" unicode-bidi="normal" text-decoration="none" transform="matrix(1 0 0 1 2404.69 1043)">Dev Ctrl</text><path d="M2334.74 1022.08 2280.01 1020.86 2280.27 1009.41 2334.99 1010.63ZM2329.52 999.044 2363.5 1016.99 2328.75 1033.41ZM2285.48 1032.45 2251.5 1014.5 2286.25 998.081Z" fill="#C59C52" fill-rule="nonzero" fill-opacity="1"/><path d="M28.7662-5.09056 83.4906-3.87298 83.2357 7.58252 28.5113 6.36494ZM33.9842 17.9479 0 0 34.7488-16.4186ZM78.0177-15.4559 112.002 2.49196 77.2531 18.9106Z" fill="#000000" fill-rule="nonzero" fill-opacity="1" transform="matrix(-1 0 0 1 2814.5 1014.5)"/><rect x="560" y="859" width="347" height="104" fill="#9AA8BC" fill-opacity="1"/><text fill="#000000" fill-opacity="1" font-family="Roboto,Roboto_MSFontService,sans-serif" font-style="normal" font-variant="normal" font-weight="400" font-stretch="normal" font-size="73" text-anchor="start" direction="ltr" writing-mode="lr-tb" unicode-bidi="normal" text-decoration="none" transform="matrix(1 0 0 1 596.119 937)">Tx V MD</text><path d="M994.902 999.329 924.754 935.074 932.493 926.624 1002.64 990.879ZM1006.16 978.56 1019.89 1014.45 982.937 1003.91ZM921.239 947.393 907.5 911.5 944.458 922.045Z" fill="#789A47" fill-rule="nonzero" fill-opacity="1"/><rect x="560" y="1064" width="347" height="103" fill="#9AA8BC" fill-opacity="1"/><text fill="#000000" fill-opacity="1" font-family="Roboto,Roboto_MSFontService,sans-serif" font-style="normal" font-variant="normal" font-weight="400" font-stretch="normal" font-size="73" text-anchor="start" direction="ltr" writing-mode="lr-tb" unicode-bidi="normal" text-decoration="none" transform="matrix(1 0 0 1 595.26 1142)">Rx V MD</text><path d="M25.0949 14.955 94.9819 78.1076 87.2996 86.6092 17.4126 23.4565ZM13.9811 35.7992 0 0 37.028 10.2946ZM98.4134 65.765 112.395 101.564 75.3665 91.2695Z" fill="#789A47" fill-rule="nonzero" fill-opacity="1" transform="matrix(-1 0 0 1 1019.89 1014.5)"/><rect x="192" y="845" width="250" height="346" stroke="#000000" stroke-width="5.72917" stroke-linecap="butt" stroke-linejoin="round" stroke-miterlimit="10" stroke-dasharray="22.9167 17.1875" stroke-opacity="1" fill="#FFFFFF" fill-opacity="1"/><text fill="#000000" fill-opacity="1" font-family="Roboto,Roboto_MSFontService,sans-serif" font-style="normal" font-variant="normal" font-weight="400" font-stretch="normal" font-size="83" text-anchor="start" direction="ltr" writing-mode="lr-tb" unicode-bidi="normal" text-decoration="none" transform="matrix(1 0 0 1 216.212 1047)">Client</text><path d="M25.0502 15.0298 100.448 83.5721 92.7407 92.0506 17.3426 23.5083ZM13.8743 35.8407 0 0 36.9971 10.405ZM103.917 71.2397 117.791 107.08 80.7938 96.6754Z" fill="#A6A6A6" fill-rule="nonzero" fill-opacity="1" transform="matrix(-1 0 0 1 560.291 911.5)"/><path d="M534.567 1102.09 460.921 1041.17 468.224 1032.34 541.87 1093.26ZM544.759 1080.78 560.291 1115.94 522.849 1107.27ZM458.032 1053.65 442.5 1018.5 479.942 1027.17Z" fill="#A6A6A6" fill-rule="nonzero" fill-opacity="1"/><rect x="192" y="1318" width="2933" height="140" fill="#9AA8BC" fill-opacity="1"/><text fill="#000000" fill-opacity="1" font-family="Roboto,Roboto_MSFontService,sans-serif" font-style="normal" font-variant="normal" font-weight="400" font-stretch="normal" font-size="73" text-anchor="start" direction="ltr" writing-mode="lr-tb" unicode-bidi="normal" text-decoration="none" transform="matrix(1 0 0 1 1582.29 1414)">Data</text><path d="M29.0834 2.74907 410.943 117.383 407.648 128.357 25.7889 13.7236ZM27.9817 26.3453 0 0 37.8653-6.57814ZM408.75 104.761 436.732 131.106 398.866 137.685Z" fill="#C59C52" fill-rule="nonzero" fill-opacity="1" transform="matrix(-1 0 0 1 2095.23 1187.5)"/><path d="M1629.69 1321.48 345.476 1199.9 346.556 1188.5 1630.77 1310.08ZM1626.14 1298.13 1658.74 1318.48 1622.9 1332.35ZM350.102 1211.85 317.5 1191.5 353.342 1177.63Z" fill="#A6A6A6" fill-rule="nonzero" fill-opacity="1"/></g></g></svg>