<svg width="2980" height="642" xmlns="http://www.w3.org/2000/svg" xmlns:xlink="http://www.w3.org/1999/xlink" xml:space="preserve" overflow="hidden"><g transform="translate(-155 -861)"><g><rect x="2805" y="866" width="311" height="346" fill="#000000" fill-opacity="1"/><text fill="#FFFFFF" fill-opacity="1" font-family="Roboto,Roboto_MSFontService,sans-serif" font-style="normal" font-variant="normal" font-weight="400" font-stretch="normal" font-size="83" text-anchor="start" direction="ltr" writing-mode="lr-tb" unicode-bidi="normal" text-decoration="none" transform="matrix(1 0 0 1 2838.32 1068)">Device</text><rect x="1931" y="866" width="311" height="346" fill="#FFD372" fill-opacity="1"/><text fill="#000000" fill-opacity="1" font-family="Roboto,Roboto_MSFontService,sans-serif" font-style="normal" font-variant="normal" font-weight="400" font-stretch="normal" font-size="83" text-anchor="start" direction="ltr" writing-mode="lr-tb" unicode-bidi="normal" text-decoration="none" transform="matrix(1 0 0 1 1989.91 1068)">Driver</text><rect x="1011" y="866" width="348" height="346" fill="#CBE4AA" fill-opacity="1"/><text fill="#000000" fill-opacity="1" font-family="Roboto,Roboto_MSFontService,sans-serif" font-style="normal" font-variant="normal" font-weight="400" font-stretch="normal" font-size="83" text-anchor="start" direction="ltr" writing-mode="lr-tb" unicode-bidi="normal" text-decoration="none" transform="matrix(1 0 0 1 1121.26 1060)">Virt</text><rect x="1471" y="988" width="379" height="103" fill="#9AA8BC" fill-opacity="1"/><text fill="#000000" fill-opacity="1" font-family="Roboto,Roboto_MSFontService,sans-serif" font-style="normal" font-variant="normal" font-weight="400" font-stretch="normal" font-size="73" text-anchor="start" direction="ltr" writing-mode="lr-tb" unicode-bidi="normal" text-decoration="none" transform="matrix(1 0 0 1 1571.48 1065)">D </text><text fill="#000000" fill-opacity="1" font-family="Roboto,Roboto_MSFontService,sans-serif" font-style="normal" font-variant="normal" font-weight="400" font-stretch="normal" font-size="73" text-anchor="start" direction="ltr" writing-mode="lr-tb" unicode-bidi="normal" text-decoration="none" transform="matrix(1 0 0 1 1637.94 1065)">MD</text><path d="M28.6459-5.72907 83.7487-5.7289 83.7487 5.72944 28.6458 5.72926ZM34.3749 17.1876 0 0 34.3751-17.1874ZM78.0196-17.1872 112.395 0.000360892 78.0195 17.1878Z" fill="#789A47" fill-rule="nonzero" fill-opacity="1" transform="matrix(-1 0 0 1 1471.89 1039.5)"/><path d="M1902.82 1045.23 1879.15 1045.23 1879.15 1033.77 1902.82 1033.77ZM1897.09 1022.31 1931.46 1039.5 1897.09 1056.69ZM1884.87 1056.69 1850.5 1039.5 1884.88 1022.31Z" fill="#C59C52" fill-rule="nonzero" fill-opacity="1"/><rect x="2354" y="990" width="339" height="104" fill="#9AA8BC" fill-opacity="1"/><text fill="#000000" fill-opacity="1" font-family="Roboto,Roboto_MSFontService,sans-serif" font-style="normal" font-variant="normal" font-weight="400" font-stretch="normal" font-size="73" text-anchor="start" direction="ltr" writing-mode="lr-tb" unicode-bidi="normal" text-decoration="none" transform="matrix(1 0 0 1 2396.21 1068)">Dev Ctrl</text><path d="M2325.74 1047.08 2271.01 1045.86 2271.27 1034.41 2325.99 1035.63ZM2320.52 1024.04 2354.5 1041.99 2319.75 1058.41ZM2276.48 1057.45 2242.5 1039.5 2277.25 1023.08Z" fill="#C59C52" fill-rule="nonzero" fill-opacity="1"/><path d="M28.7662-5.09056 83.4906-3.87298 83.2357 7.58252 28.5113 6.36494ZM33.9842 17.9479 0 0 34.7488-16.4186ZM78.0177-15.4559 112.002 2.49196 77.2531 18.9106Z" fill="#000000" fill-rule="nonzero" fill-opacity="1" transform="matrix(-1 0 0 1 2805.5 1039.5)"/><rect x="541" y="989" width="348" height="103" fill="#9AA8BC" fill-opacity="1"/><text fill="#000000" fill-opacity="1" font-family="Roboto,Roboto_MSFontService,sans-serif" font-style="normal" font-variant="normal" font-weight="400" font-stretch="normal" font-size="73" text-anchor="start" direction="ltr" writing-mode="lr-tb" unicode-bidi="normal" text-decoration="none" transform="matrix(1 0 0 1 626.299 1067)">V </text><text fill="#000000" fill-opacity="1" font-family="Roboto,Roboto_MSFontService,sans-serif" font-style="normal" font-variant="normal" font-weight="400" font-stretch="normal" font-size="73" text-anchor="start" direction="ltr" writing-mode="lr-tb" unicode-bidi="normal" text-decoration="none" transform="matrix(1 0 0 1 691.612 1067)">MD</text><path d="M28.7102-5.39762 93.8503-4.64452 93.7179 6.81305 28.5777 6.05994ZM34.174 17.5837 0 0 34.5714-16.789ZM88.254-16.1683 122.428 1.41542 87.8567 18.2044Z" fill="#789A47" fill-rule="nonzero" fill-opacity="1" transform="matrix(-1 0 0 1 1011.93 1039.5)"/><rect x="184" y="870" width="250" height="346" stroke="#000000" stroke-width="5.72917" stroke-linecap="butt" stroke-linejoin="round" stroke-miterlimit="10" stroke-dasharray="22.9167 17.1875" stroke-opacity="1" fill="#FFFFFF" fill-opacity="1"/><text fill="#000000" fill-opacity="1" font-family="Roboto,Roboto_MSFontService,sans-serif" font-style="normal" font-variant="normal" font-weight="400" font-stretch="normal" font-size="83" text-anchor="start" direction="ltr" writing-mode="lr-tb" unicode-bidi="normal" text-decoration="none" transform="matrix(1 0 0 1 207.441 1072)">Client</text><path d="M28.7809-5.00661 79.2652-3.73599 78.9769 7.71871 28.4926 6.4481ZM33.9317 18.047 0 0 34.7966-16.3172ZM73.8261-15.3348 107.758 2.71211 72.9612 19.0293Z" fill="#A6A6A6" fill-rule="nonzero" fill-opacity="1" transform="matrix(-1 0 0 1 542.258 1041.5)"/><rect x="184" y="1343" width="2932" height="140" fill="#9AA8BC" fill-opacity="1"/><text fill="#000000" fill-opacity="1" font-family="Roboto,Roboto_MSFontService,sans-serif" font-style="normal" font-variant="normal" font-weight="400" font-stretch="normal" font-size="73" text-anchor="start" direction="ltr" writing-mode="lr-tb" unicode-bidi="normal" text-decoration="none" transform="matrix(1 0 0 1 1573.8 1439)">Data</text><path d="M29.0838 2.74917 410.943 117.383 407.648 128.357 25.7892 13.7237ZM27.9817 26.3453 0 0 37.8653-6.57814ZM408.75 104.761 436.732 131.106 398.866 137.685Z" fill="#C59C52" fill-rule="nonzero" fill-opacity="1" transform="matrix(-1 0 0 1 2087.23 1212.5)"/><path d="M1621.69 1346.48 337.476 1224.9 338.556 1213.5 1622.77 1335.08ZM1618.14 1323.13 1650.74 1343.48 1614.9 1357.35ZM342.102 1236.85 309.5 1216.5 345.342 1202.63Z" fill="#A6A6A6" fill-rule="nonzero" fill-opacity="1"/></g></g></svg>