<?xml version="1.0" encoding="UTF-8" standalone="no"?>
<svg
   version="1.1"
   viewBox="0.0 0.0 543.0 372.0"
   fill="none"
   stroke="none"
   stroke-linecap="square"
   stroke-miterlimit="10"
   width="543"
   height="372"
   id="svg106"
   sodipodi:docname="latencies.svg"
   inkscape:version="1.1.2 (b8e25be8, 2022-02-05)"
   xmlns:inkscape="http://www.inkscape.org/namespaces/inkscape"
   xmlns:sodipodi="http://sodipodi.sourceforge.net/DTD/sodipodi-0.dtd"
   xmlns="http://www.w3.org/2000/svg"
   xmlns:svg="http://www.w3.org/2000/svg">
  <defs
     id="defs110" />
  <sodipodi:namedview
     id="namedview108"
     pagecolor="#ffffff"
     bordercolor="#666666"
     borderopacity="1.0"
     inkscape:pageshadow="2"
     inkscape:pageopacity="0.0"
     inkscape:pagecheckerboard="0"
     showgrid="false"
     inkscape:zoom="2.0239411"
     inkscape:cx="271.25296"
     inkscape:cy="186.0232"
     inkscape:window-width="1473"
     inkscape:window-height="1019"
     inkscape:window-x="0"
     inkscape:window-y="0"
     inkscape:window-maximized="0"
     inkscape:current-layer="svg106" />
  <path
     fill="#ffffff"
     d="M0 0L543.0 0L543.0 372.0L0 372.0L0 0Z"
     fill-rule="nonzero"
     id="path9" />
  <path
     stroke="#cccccc"
     stroke-width="1.0"
     stroke-linecap="butt"
     d="M144.5 85.5L144.5 275.5"
     fill-rule="nonzero"
     id="path11" />
  <path
     stroke="#cccccc"
     stroke-width="1.0"
     stroke-linecap="butt"
     d="M238.5 85.5L238.5 275.5"
     fill-rule="nonzero"
     id="path13" />
  <path
     stroke="#cccccc"
     stroke-width="1.0"
     stroke-linecap="butt"
     d="M331.5 85.5L331.5 275.5"
     fill-rule="nonzero"
     id="path15" />
  <path
     stroke="#cccccc"
     stroke-width="1.0"
     stroke-linecap="butt"
     d="M424.5 85.5L424.5 275.5"
     fill-rule="nonzero"
     id="path17" />
  <path
     stroke="#cccccc"
     stroke-width="1.0"
     stroke-linecap="butt"
     d="M517.5 85.5L517.5 275.5"
     fill-rule="nonzero"
     id="path19" />
  <path
     stroke="#333333"
     stroke-width="1.0"
     stroke-linecap="butt"
     d="M91.5 275.5L524.5 275.5"
     fill-rule="nonzero"
     id="path21" />
  <path
     stroke="#cccccc"
     stroke-width="1.0"
     stroke-linecap="butt"
     d="M91.5 211.5L524.5 211.5"
     fill-rule="nonzero"
     id="path23" />
  <path
     stroke="#cccccc"
     stroke-width="1.0"
     stroke-linecap="butt"
     d="M91.5 148.5L524.5 148.5"
     fill-rule="nonzero"
     id="path25" />
  <path
     stroke="#cccccc"
     stroke-width="1.0"
     stroke-linecap="butt"
     d="M91.5 85.5L524.5 85.5"
     fill-rule="nonzero"
     id="path27" />
  <clipPath
     id="id_0">
    <path
       d="M91.6 85.5L524.4 85.5L524.4 275.0L91.6 275.0L91.6 85.5Z"
       clip-rule="nonzero"
       id="path29" />
  </clipPath>
  <path
     stroke="#4285f4"
     stroke-width="2.0"
     stroke-linecap="butt"
     clip-path="url(#id_0)"
     d="M98.38066 272.90286L144.96274 273.07974L191.54482 273.105L238.12689 273.0671L284.70895 272.86496L331.29105 272.70074L377.8731 272.52386L424.4552 272.03116L471.03726 271.91748L517.6193 269.03708"
     fill-rule="nonzero"
     id="path32" />
  <path
     stroke="#fbbc04"
     stroke-width="2.0"
     stroke-linecap="butt"
     clip-path="url(#id_0)"
     d="M98.38066 264.94388L144.96274 264.05954L191.54482 263.99637L238.12689 262.84674L284.70895 248.5837L331.29105 245.61487L377.8731 115.946335L424.4552 109.970764L471.03726 105.90283"
     fill-rule="nonzero"
     id="path34" />
  <path
     fill="#4285f4"
     clip-path="url(#id_0)"
     d="M102.88066 272.90286C102.88066 275.38815 100.865944 277.40286 98.38066 277.40286C95.89538 277.40286 93.88066 275.38815 93.88066 272.90286C93.88066 270.41757 95.89538 268.40286 98.38066 268.40286C100.865944 268.40286 102.88066 270.41757 102.88066 272.90286Z"
     fill-rule="nonzero"
     id="path36" />
  <path
     fill="#4285f4"
     clip-path="url(#id_0)"
     d="M149.46274 273.07974C149.46274 275.565 147.44801 277.57974 144.96274 277.57974C142.47746 277.57974 140.46274 275.565 140.46274 273.07974C140.46274 270.59445 142.47746 268.57974 144.96274 268.57974C147.44801 268.57974 149.46274 270.59445 149.46274 273.07974Z"
     fill-rule="nonzero"
     id="path38" />
  <path
     fill="#4285f4"
     clip-path="url(#id_0)"
     d="M196.04482 273.105C196.04482 275.59027 194.03009 277.605 191.54482 277.605C189.05952 277.605 187.04482 275.59027 187.04482 273.105C187.04482 270.61972 189.05952 268.605 191.54482 268.605C194.03009 268.605 196.04482 270.61972 196.04482 273.105Z"
     fill-rule="nonzero"
     id="path40" />
  <path
     fill="#4285f4"
     clip-path="url(#id_0)"
     d="M242.62689 273.0671C242.62689 275.55237 240.61217 277.5671 238.12689 277.5671C235.6416 277.5671 233.62689 275.55237 233.62689 273.0671C233.62689 270.58182 235.6416 268.5671 238.12689 268.5671C240.61217 268.5671 242.62689 270.58182 242.62689 273.0671Z"
     fill-rule="nonzero"
     id="path42" />
  <path
     fill="#4285f4"
     clip-path="url(#id_0)"
     d="M289.20895 272.86496C289.20895 275.35025 287.19424 277.36496 284.70895 277.36496C282.2237 277.36496 280.20895 275.35025 280.20895 272.86496C280.20895 270.3797 282.2237 268.36496 284.70895 268.36496C287.19424 268.36496 289.20895 270.3797 289.20895 272.86496Z"
     fill-rule="nonzero"
     id="path44" />
  <path
     fill="#4285f4"
     clip-path="url(#id_0)"
     d="M335.79105 272.70074C335.79105 275.186 333.7763 277.20074 331.29105 277.20074C328.80576 277.20074 326.79105 275.186 326.79105 272.70074C326.79105 270.21545 328.80576 268.20074 331.29105 268.20074C333.7763 268.20074 335.79105 270.21545 335.79105 272.70074Z"
     fill-rule="nonzero"
     id="path46" />
  <path
     fill="#4285f4"
     clip-path="url(#id_0)"
     d="M382.3731 272.52386C382.3731 275.00916 380.3584 277.02386 377.8731 277.02386C375.38782 277.02386 373.3731 275.00916 373.3731 272.52386C373.3731 270.03857 375.38782 268.02386 377.8731 268.02386C380.3584 268.02386 382.3731 270.03857 382.3731 272.52386Z"
     fill-rule="nonzero"
     id="path48" />
  <path
     fill="#4285f4"
     clip-path="url(#id_0)"
     d="M428.9552 272.03116C428.9552 274.51645 426.94046 276.53116 424.4552 276.53116C421.9699 276.53116 419.9552 274.51645 419.9552 272.03116C419.9552 269.5459 421.9699 267.53116 424.4552 267.53116C426.94046 267.53116 428.9552 269.5459 428.9552 272.03116Z"
     fill-rule="nonzero"
     id="path50" />
  <path
     fill="#4285f4"
     clip-path="url(#id_0)"
     d="M475.53726 271.91748C475.53726 274.40274 473.52255 276.41748 471.03726 276.41748C468.55197 276.41748 466.53726 274.40274 466.53726 271.91748C466.53726 269.4322 468.55197 267.41748 471.03726 267.41748C473.52255 267.41748 475.53726 269.4322 475.53726 271.91748Z"
     fill-rule="nonzero"
     id="path52" />
  <path
     fill="#4285f4"
     clip-path="url(#id_0)"
     d="M522.1193 269.03708C522.1193 271.52234 520.1046 273.53708 517.6193 273.53708C515.13403 273.53708 513.1193 271.52234 513.1193 269.03708C513.1193 266.5518 515.13403 264.53708 517.6193 264.53708C520.1046 264.53708 522.1193 266.5518 522.1193 269.03708Z"
     fill-rule="nonzero"
     id="path54" />
  <path
     fill="#fbbc04"
     clip-path="url(#id_0)"
     d="M102.88066 264.94388C102.88066 267.42914 100.865944 269.44388 98.38066 269.44388C95.89538 269.44388 93.88066 267.42914 93.88066 264.94388C93.88066 262.4586 95.89538 260.44388 98.38066 260.44388C100.865944 260.44388 102.88066 262.4586 102.88066 264.94388Z"
     fill-rule="nonzero"
     id="path56" />
  <path
     fill="#fbbc04"
     clip-path="url(#id_0)"
     d="M149.46274 264.05954C149.46274 266.5448 147.44801 268.55954 144.96274 268.55954C142.47746 268.55954 140.46274 266.5448 140.46274 264.05954C140.46274 261.57425 142.47746 259.55954 144.96274 259.55954C147.44801 259.55954 149.46274 261.57425 149.46274 264.05954Z"
     fill-rule="nonzero"
     id="path58" />
  <path
     fill="#fbbc04"
     clip-path="url(#id_0)"
     d="M196.04482 263.99637C196.04482 266.48166 194.03009 268.49637 191.54482 268.49637C189.05952 268.49637 187.04482 266.48166 187.04482 263.99637C187.04482 261.51108 189.05952 259.49637 191.54482 259.49637C194.03009 259.49637 196.04482 261.51108 196.04482 263.99637Z"
     fill-rule="nonzero"
     id="path60" />
  <path
     fill="#fbbc04"
     clip-path="url(#id_0)"
     d="M242.62689 262.84674C242.62689 265.332 240.61217 267.34674 238.12689 267.34674C235.6416 267.34674 233.62689 265.332 233.62689 262.84674C233.62689 260.36145 235.6416 258.34674 238.12689 258.34674C240.61217 258.34674 242.62689 260.36145 242.62689 262.84674Z"
     fill-rule="nonzero"
     id="path62" />
  <path
     fill="#fbbc04"
     clip-path="url(#id_0)"
     d="M289.20895 248.5837C289.20895 251.06898 287.19424 253.0837 284.70895 253.0837C282.2237 253.0837 280.20895 251.06898 280.20895 248.5837C280.20895 246.09842 282.2237 244.0837 284.70895 244.0837C287.19424 244.0837 289.20895 246.09842 289.20895 248.5837Z"
     fill-rule="nonzero"
     id="path64" />
  <path
     fill="#fbbc04"
     clip-path="url(#id_0)"
     d="M335.79105 245.61487C335.79105 248.10014 333.7763 250.11487 331.29105 250.11487C328.80576 250.11487 326.79105 248.10014 326.79105 245.61487C326.79105 243.1296 328.80576 241.11487 331.29105 241.11487C333.7763 241.11487 335.79105 243.1296 335.79105 245.61487Z"
     fill-rule="nonzero"
     id="path66" />
  <path
     fill="#fbbc04"
     clip-path="url(#id_0)"
     d="M382.3731 115.946335C382.3731 118.43162 380.3584 120.446335 377.8731 120.446335C375.38782 120.446335 373.3731 118.43162 373.3731 115.946335C373.3731 113.46105 375.38782 111.446335 377.8731 111.446335C380.3584 111.446335 382.3731 113.46105 382.3731 115.946335Z"
     fill-rule="nonzero"
     id="path68" />
  <path
     fill="#fbbc04"
     clip-path="url(#id_0)"
     d="M428.9552 109.970764C428.9552 112.45605 426.94046 114.470764 424.4552 114.470764C421.9699 114.470764 419.9552 112.45605 419.9552 109.970764C419.9552 107.48549 421.9699 105.470764 424.4552 105.470764C426.94046 105.470764 428.9552 107.48549 428.9552 109.970764Z"
     fill-rule="nonzero"
     id="path70" />
  <path
     fill="#fbbc04"
     clip-path="url(#id_0)"
     d="M475.53726 105.90283C475.53726 108.388115 473.52255 110.40283 471.03726 110.40283C468.55197 110.40283 466.53726 108.388115 466.53726 105.90283C466.53726 103.41755 468.55197 101.40283 471.03726 101.40283C473.52255 101.40283 475.53726 103.41755 475.53726 105.90283Z"
     fill-rule="nonzero"
     id="path72" />
  <path
     fill="#000000"
     d="M226.9375 324.0L226.9375 315.40625L230.75 315.40625Q231.90625 315.40625 232.5 315.64062Q233.09375 315.875 233.45312 316.46875Q233.8125 317.04688 233.8125 317.75Q233.8125 318.67188 233.21875 319.29688Q232.625 319.92188 231.39062 320.09375Q231.84375 320.3125 232.07812 320.51562Q232.57812 320.96875 233.01562 321.65625L234.51562 324.0L233.07812 324.0L231.95312 322.21875Q231.45312 321.4375 231.125 321.03125Q230.8125 320.625 230.54688 320.46875Q230.29688 320.29688 230.03125 320.21875Q229.84375 320.1875 229.40625 320.1875L228.07812 320.1875L228.07812 324.0L226.9375 324.0ZM228.07812 319.20312L230.53125 319.20312Q231.29688 319.20312 231.73438 319.04688Q232.1875 318.875 232.40625 318.53125Q232.64062 318.17188 232.64062 317.75Q232.64062 317.14062 232.1875 316.75Q231.75 316.35938 230.79688 316.35938L228.07812 316.35938L228.07812 319.20312ZM240.04688 322.0L241.14062 322.125Q240.89062 323.07812 240.1875 323.60938Q239.48438 324.14062 238.40625 324.14062Q237.04688 324.14062 236.23438 323.29688Q235.4375 322.45312 235.4375 320.9375Q235.4375 319.375 236.25 318.51562Q237.0625 317.64062 238.34375 317.64062Q239.59375 317.64062 240.375 318.48438Q241.17188 319.32812 241.17188 320.875Q241.17188 320.96875 241.17188 321.15625L236.53125 321.15625Q236.59375 322.1875 237.10938 322.73438Q237.625 323.26562 238.40625 323.26562Q238.98438 323.26562 239.39062 322.96875Q239.8125 322.65625 240.04688 322.0ZM236.59375 320.29688L240.0625 320.29688Q240.0 319.5 239.67188 319.10938Q239.15625 318.5 238.35938 318.5Q237.625 318.5 237.125 318.98438Q236.64062 319.46875 236.59375 320.29688ZM246.76562 326.39062L246.76562 323.34375Q246.51562 323.6875 246.0625 323.92188Q245.625 324.14062 245.125 324.14062Q244.01562 324.14062 243.21875 323.26562Q242.42188 322.375 242.42188 320.82812Q242.42188 319.89062 242.75 319.15625Q243.07812 318.40625 243.6875 318.03125Q244.3125 317.64062 245.04688 317.64062Q246.20312 317.64062 246.85938 318.60938L246.85938 317.78125L247.8125 317.78125L247.8125 326.39062L246.76562 326.39062ZM243.5 320.875Q243.5 322.07812 244.0 322.67188Q244.51562 323.26562 245.21875 323.26562Q245.89062 323.26562 246.375 322.70312Q246.85938 322.125 246.85938 320.96875Q246.85938 319.71875 246.34375 319.09375Q245.84375 318.46875 245.14062 318.46875Q244.46875 318.46875 243.98438 319.0625Q243.5 319.64062 243.5 320.875ZM253.875 324.0L253.875 323.07812Q253.14062 324.14062 251.89062 324.14062Q251.34375 324.14062 250.85938 323.9375Q250.39062 323.71875 250.15625 323.40625Q249.92188 323.07812 249.82812 322.60938Q249.76562 322.3125 249.76562 321.625L249.76562 317.78125L250.82812 317.78125L250.82812 321.23438Q250.82812 322.04688 250.89062 322.34375Q250.98438 322.75 251.29688 323.0Q251.625 323.23438 252.10938 323.23438Q252.57812 323.23438 252.98438 323.0Q253.40625 322.75 253.57812 322.32812Q253.76562 321.90625 253.76562 321.10938L253.76562 317.78125L254.8125 317.78125L254.8125 324.0L253.875 324.0ZM261.04688 322.0L262.14062 322.125Q261.89062 323.07812 261.1875 323.60938Q260.48438 324.14062 259.40625 324.14062Q258.04688 324.14062 257.23438 323.29688Q256.4375 322.45312 256.4375 320.9375Q256.4375 319.375 257.25 318.51562Q258.0625 317.64062 259.34375 317.64062Q260.59375 317.64062 261.375 318.48438Q262.17188 319.32812 262.17188 320.875Q262.17188 320.96875 262.17188 321.15625L257.53125 321.15625Q257.59375 322.1875 258.10938 322.73438Q258.625 323.26562 259.40625 323.26562Q259.98438 323.26562 260.39062 322.96875Q260.8125 322.65625 261.04688 322.0ZM257.59375 320.29688L261.0625 320.29688Q261.0 319.5 260.67188 319.10938Q260.15625 318.5 259.35938 318.5Q258.625 318.5 258.125 318.98438Q257.64062 319.46875 257.59375 320.29688ZM263.375 322.14062L264.40625 321.98438Q264.5 322.60938 264.89062 322.9375Q265.29688 323.26562 266.03125 323.26562Q266.75 323.26562 267.09375 322.98438Q267.45312 322.6875 267.45312 322.28125Q267.45312 321.92188 267.14062 321.71875Q266.92188 321.57812 266.0625 321.35938Q264.90625 321.0625 264.45312 320.85938Q264.01562 320.64062 263.78125 320.26562Q263.54688 319.89062 263.54688 319.42188Q263.54688 319.01562 263.73438 318.65625Q263.92188 318.29688 264.25 318.0625Q264.5 317.89062 264.92188 317.76562Q265.34375 317.64062 265.84375 317.64062Q266.5625 317.64062 267.10938 317.85938Q267.67188 318.0625 267.9375 318.42188Q268.20312 318.78125 268.29688 319.375L267.26562 319.51562Q267.20312 319.04688 266.85938 318.78125Q266.53125 318.5 265.90625 318.5Q265.1875 318.5 264.875 318.75Q264.5625 318.98438 264.5625 319.3125Q264.5625 319.51562 264.6875 319.67188Q264.82812 319.84375 265.09375 319.95312Q265.25 320.01562 266.03125 320.21875Q267.15625 320.53125 267.59375 320.71875Q268.03125 320.90625 268.28125 321.26562Q268.53125 321.625 268.53125 322.17188Q268.53125 322.70312 268.21875 323.17188Q267.92188 323.625 267.34375 323.89062Q266.76562 324.14062 266.03125 324.14062Q264.8125 324.14062 264.17188 323.64062Q263.54688 323.125 263.375 322.14062ZM273.09375 323.0625L273.25 323.98438Q272.79688 324.07812 272.45312 324.07812Q271.875 324.07812 271.5625 323.90625Q271.25 323.71875 271.10938 323.42188Q270.98438 323.125 270.98438 322.17188L270.98438 318.59375L270.21875 318.59375L270.21875 317.78125L270.98438 317.78125L270.98438 316.23438L272.03125 315.60938L272.03125 317.78125L273.09375 317.78125L273.09375 318.59375L272.03125 318.59375L272.03125 322.23438Q272.03125 322.6875 272.07812 322.8125Q272.14062 322.9375 272.26562 323.01562Q272.39062 323.09375 272.625 323.09375Q272.8125 323.09375 273.09375 323.0625ZM278.04688 322.0L279.14062 322.125Q278.89062 323.07812 278.1875 323.60938Q277.48438 324.14062 276.40625 324.14062Q275.04688 324.14062 274.23438 323.29688Q273.4375 322.45312 273.4375 320.9375Q273.4375 319.375 274.25 318.51562Q275.0625 317.64062 276.34375 317.64062Q277.59375 317.64062 278.375 318.48438Q279.17188 319.32812 279.17188 320.875Q279.17188 320.96875 279.17188 321.15625L274.53125 321.15625Q274.59375 322.1875 275.10938 322.73438Q275.625 323.26562 276.40625 323.26562Q276.98438 323.26562 277.39062 322.96875Q277.8125 322.65625 278.04688 322.0ZM274.59375 320.29688L278.0625 320.29688Q278.0 319.5 277.67188 319.10938Q277.15625 318.5 276.35938 318.5Q275.625 318.5 275.125 318.98438Q274.64062 319.46875 274.59375 320.29688ZM284.82812 324.0L284.82812 323.21875Q284.23438 324.14062 283.09375 324.14062Q282.34375 324.14062 281.71875 323.73438Q281.09375 323.3125 280.75 322.57812Q280.40625 321.84375 280.40625 320.89062Q280.40625 319.96875 280.71875 319.20312Q281.03125 318.4375 281.65625 318.04688Q282.28125 317.64062 283.04688 317.64062Q283.60938 317.64062 284.04688 317.875Q284.48438 318.10938 284.76562 318.48438L284.76562 315.40625L285.8125 315.40625L285.8125 324.0L284.82812 324.0ZM281.5 320.89062Q281.5 322.09375 282.0 322.6875Q282.5 323.26562 283.1875 323.26562Q283.875 323.26562 284.35938 322.70312Q284.84375 322.14062 284.84375 320.98438Q284.84375 319.70312 284.34375 319.10938Q283.85938 318.51562 283.14062 318.51562Q282.4375 318.51562 281.96875 319.09375Q281.5 319.65625 281.5 320.89062ZM293.09375 323.0625L293.25 323.98438Q292.79688 324.07812 292.45312 324.07812Q291.875 324.07812 291.5625 323.90625Q291.25 323.71875 291.10938 323.42188Q290.98438 323.125 290.98438 322.17188L290.98438 318.59375L290.21875 318.59375L290.21875 317.78125L290.98438 317.78125L290.98438 316.23438L292.03125 315.60938L292.03125 317.78125L293.09375 317.78125L293.09375 318.59375L292.03125 318.59375L292.03125 322.23438Q292.03125 322.6875 292.07812 322.8125Q292.14062 322.9375 292.26562 323.01562Q292.39062 323.09375 292.625 323.09375Q292.8125 323.09375 293.09375 323.0625ZM293.79688 324.0L293.79688 315.40625L294.84375 315.40625L294.84375 318.48438Q295.57812 317.64062 296.70312 317.64062Q297.40625 317.64062 297.90625 317.92188Q298.42188 318.1875 298.64062 318.67188Q298.85938 319.14062 298.85938 320.0625L298.85938 324.0L297.8125 324.0L297.8125 320.0625Q297.8125 319.26562 297.46875 318.90625Q297.125 318.54688 296.5 318.54688Q296.03125 318.54688 295.60938 318.79688Q295.20312 319.03125 295.01562 319.45312Q294.84375 319.85938 294.84375 320.59375L294.84375 324.0L293.79688 324.0ZM300.78125 324.0L300.78125 317.78125L301.73438 317.78125L301.73438 318.71875Q302.09375 318.0625 302.39062 317.85938Q302.70312 317.64062 303.07812 317.64062Q303.60938 317.64062 304.15625 317.96875L303.79688 318.95312Q303.40625 318.71875 303.03125 318.71875Q302.67188 318.71875 302.39062 318.9375Q302.125 319.14062 302.01562 319.51562Q301.82812 320.07812 301.82812 320.73438L301.82812 324.0L300.78125 324.0ZM304.40625 320.89062Q304.40625 319.15625 305.35938 318.32812Q306.15625 317.64062 307.3125 317.64062Q308.59375 317.64062 309.40625 318.48438Q310.23438 319.3125 310.23438 320.79688Q310.23438 322.0 309.875 322.6875Q309.51562 323.375 308.8125 323.76562Q308.125 324.14062 307.3125 324.14062Q306.01562 324.14062 305.20312 323.3125Q304.40625 322.46875 304.40625 320.89062ZM305.48438 320.89062Q305.48438 322.07812 306.0 322.67188Q306.53125 323.26562 307.3125 323.26562Q308.10938 323.26562 308.625 322.67188Q309.14062 322.07812 309.14062 320.85938Q309.14062 319.70312 308.60938 319.10938Q308.09375 318.51562 307.3125 318.51562Q306.53125 318.51562 306.0 319.10938Q305.48438 319.6875 305.48438 320.89062ZM315.875 324.0L315.875 323.07812Q315.14062 324.14062 313.89062 324.14062Q313.34375 324.14062 312.85938 323.9375Q312.39062 323.71875 312.15625 323.40625Q311.92188 323.07812 311.82812 322.60938Q311.76562 322.3125 311.76562 321.625L311.76562 317.78125L312.82812 317.78125L312.82812 321.23438Q312.82812 322.04688 312.89062 322.34375Q312.98438 322.75 313.29688 323.0Q313.625 323.23438 314.10938 323.23438Q314.57812 323.23438 314.98438 323.0Q315.40625 322.75 315.57812 322.32812Q315.76562 321.90625 315.76562 321.10938L315.76562 317.78125L316.8125 317.78125L316.8125 324.0L315.875 324.0ZM318.59375 324.51562L319.625 324.67188Q319.6875 325.14062 319.98438 325.35938Q320.375 325.65625 321.04688 325.65625Q321.78125 325.65625 322.17188 325.35938Q322.57812 325.0625 322.71875 324.54688Q322.8125 324.21875 322.79688 323.1875Q322.10938 324.0 321.07812 324.0Q319.79688 324.0 319.09375 323.07812Q318.39062 322.14062 318.39062 320.85938Q318.39062 319.96875 318.70312 319.21875Q319.03125 318.45312 319.64062 318.04688Q320.25 317.64062 321.07812 317.64062Q322.1875 317.64062 322.90625 318.53125L322.90625 317.78125L323.875 317.78125L323.875 323.15625Q323.875 324.60938 323.57812 325.21875Q323.28125 325.82812 322.64062 326.17188Q322.0 326.53125 321.0625 326.53125Q319.95312 326.53125 319.26562 326.03125Q318.57812 325.53125 318.59375 324.51562ZM319.46875 320.78125Q319.46875 322.0 319.95312 322.5625Q320.4375 323.125 321.17188 323.125Q321.90625 323.125 322.39062 322.5625Q322.89062 322.0 322.89062 320.8125Q322.89062 319.67188 322.375 319.09375Q321.875 318.51562 321.15625 318.51562Q320.45312 318.51562 319.95312 319.09375Q319.46875 319.65625 319.46875 320.78125ZM325.79688 324.0L325.79688 315.40625L326.84375 315.40625L326.84375 318.48438Q327.57812 317.64062 328.70312 317.64062Q329.40625 317.64062 329.90625 317.92188Q330.42188 318.1875 330.64062 318.67188Q330.85938 319.14062 330.85938 320.0625L330.85938 324.0L329.8125 324.0L329.8125 320.0625Q329.8125 319.26562 329.46875 318.90625Q329.125 318.54688 328.5 318.54688Q328.03125 318.54688 327.60938 318.79688Q327.20312 319.03125 327.01562 319.45312Q326.84375 319.85938 326.84375 320.59375L326.84375 324.0L325.79688 324.0ZM332.79688 326.39062L332.79688 317.78125L333.75 317.78125L333.75 318.57812Q334.09375 318.10938 334.51562 317.875Q334.95312 317.64062 335.5625 317.64062Q336.35938 317.64062 336.96875 318.04688Q337.57812 318.45312 337.875 319.20312Q338.1875 319.95312 338.1875 320.84375Q338.1875 321.79688 337.84375 322.5625Q337.51562 323.32812 336.85938 323.73438Q336.20312 324.14062 335.48438 324.14062Q334.95312 324.14062 334.53125 323.92188Q334.10938 323.6875 333.84375 323.35938L333.84375 326.39062L332.79688 326.39062ZM333.75 320.92188Q333.75 322.125 334.23438 322.70312Q334.71875 323.26562 335.40625 323.26562Q336.10938 323.26562 336.60938 322.67188Q337.10938 322.07812 337.10938 320.82812Q337.10938 319.64062 336.625 319.0625Q336.14062 318.46875 335.45312 318.46875Q334.78125 318.46875 334.26562 319.09375Q333.75 319.71875 333.75 320.92188ZM343.875 324.0L343.875 323.07812Q343.14062 324.14062 341.89062 324.14062Q341.34375 324.14062 340.85938 323.9375Q340.39062 323.71875 340.15625 323.40625Q339.92188 323.07812 339.82812 322.60938Q339.76562 322.3125 339.76562 321.625L339.76562 317.78125L340.82812 317.78125L340.82812 321.23438Q340.82812 322.04688 340.89062 322.34375Q340.98438 322.75 341.29688 323.0Q341.625 323.23438 342.10938 323.23438Q342.57812 323.23438 342.98438 323.0Q343.40625 322.75 343.57812 322.32812Q343.76562 321.90625 343.76562 321.10938L343.76562 317.78125L344.8125 317.78125L344.8125 324.0L343.875 324.0ZM349.09375 323.0625L349.25 323.98438Q348.79688 324.07812 348.45312 324.07812Q347.875 324.07812 347.5625 323.90625Q347.25 323.71875 347.10938 323.42188Q346.98438 323.125 346.98438 322.17188L346.98438 318.59375L346.21875 318.59375L346.21875 317.78125L346.98438 317.78125L346.98438 316.23438L348.03125 315.60938L348.03125 317.78125L349.09375 317.78125L349.09375 318.59375L348.03125 318.59375L348.03125 322.23438Q348.03125 322.6875 348.07812 322.8125Q348.14062 322.9375 348.26562 323.01562Q348.39062 323.09375 348.625 323.09375Q348.8125 323.09375 349.09375 323.0625ZM354.8125 326.53125Q353.9375 325.42188 353.32812 323.95312Q352.73438 322.46875 352.73438 320.89062Q352.73438 319.5 353.17188 318.21875Q353.70312 316.73438 354.8125 315.26562L355.5625 315.26562Q354.85938 316.48438 354.625 317.0Q354.26562 317.8125 354.0625 318.6875Q353.8125 319.78125 353.8125 320.89062Q353.8125 323.71875 355.5625 326.53125L354.8125 326.53125ZM357.76562 324.0L356.78125 324.0L356.78125 315.40625L357.84375 315.40625L357.84375 318.46875Q358.51562 317.64062 359.54688 317.64062Q360.125 317.64062 360.625 317.875Q361.14062 318.09375 361.46875 318.51562Q361.8125 318.9375 362.0 319.53125Q362.1875 320.125 362.1875 320.79688Q362.1875 322.39062 361.39062 323.26562Q360.59375 324.14062 359.5 324.14062Q358.39062 324.14062 357.76562 323.21875L357.76562 324.0ZM357.75 320.84375Q357.75 321.95312 358.0625 322.45312Q358.5625 323.26562 359.40625 323.26562Q360.09375 323.26562 360.59375 322.67188Q361.10938 322.07812 361.10938 320.875Q361.10938 319.65625 360.625 319.07812Q360.14062 318.5 359.45312 318.5Q358.76562 318.5 358.25 319.10938Q357.75 319.70312 357.75 320.84375ZM363.79688 316.625L363.79688 315.40625L364.85938 315.40625L364.85938 316.625L363.79688 316.625ZM363.79688 324.0L363.79688 317.78125L364.85938 317.78125L364.85938 324.0L363.79688 324.0ZM369.09375 323.0625L369.25 323.98438Q368.79688 324.07812 368.45312 324.07812Q367.875 324.07812 367.5625 323.90625Q367.25 323.71875 367.10938 323.42188Q366.98438 323.125 366.98438 322.17188L366.98438 318.59375L366.21875 318.59375L366.21875 317.78125L366.98438 317.78125L366.98438 316.23438L368.03125 315.60938L368.03125 317.78125L369.09375 317.78125L369.09375 318.59375L368.03125 318.59375L368.03125 322.23438Q368.03125 322.6875 368.07812 322.8125Q368.14062 322.9375 368.26562 323.01562Q368.39062 323.09375 368.625 323.09375Q368.8125 323.09375 369.09375 323.0625ZM369.375 322.14062L370.40625 321.98438Q370.5 322.60938 370.89062 322.9375Q371.29688 323.26562 372.03125 323.26562Q372.75 323.26562 373.09375 322.98438Q373.45312 322.6875 373.45312 322.28125Q373.45312 321.92188 373.14062 321.71875Q372.92188 321.57812 372.0625 321.35938Q370.90625 321.0625 370.45312 320.85938Q370.01562 320.64062 369.78125 320.26562Q369.54688 319.89062 369.54688 319.42188Q369.54688 319.01562 369.73438 318.65625Q369.92188 318.29688 370.25 318.0625Q370.5 317.89062 370.92188 317.76562Q371.34375 317.64062 371.84375 317.64062Q372.5625 317.64062 373.10938 317.85938Q373.67188 318.0625 373.9375 318.42188Q374.20312 318.78125 374.29688 319.375L373.26562 319.51562Q373.20312 319.04688 372.85938 318.78125Q372.53125 318.5 371.90625 318.5Q371.1875 318.5 370.875 318.75Q370.5625 318.98438 370.5625 319.3125Q370.5625 319.51562 370.6875 319.67188Q370.82812 319.84375 371.09375 319.95312Q371.25 320.01562 372.03125 320.21875Q373.15625 320.53125 373.59375 320.71875Q374.03125 320.90625 374.28125 321.26562Q374.53125 321.625 374.53125 322.17188Q374.53125 322.70312 374.21875 323.17188Q373.92188 323.625 373.34375 323.89062Q372.76562 324.14062 372.03125 324.14062Q370.8125 324.14062 370.17188 323.64062Q369.54688 323.125 369.375 322.14062ZM376.0 324.14062L378.48438 315.26562L379.32812 315.26562L376.84375 324.14062L376.0 324.14062ZM379.375 322.14062L380.40625 321.98438Q380.5 322.60938 380.89062 322.9375Q381.29688 323.26562 382.03125 323.26562Q382.75 323.26562 383.09375 322.98438Q383.45312 322.6875 383.45312 322.28125Q383.45312 321.92188 383.14062 321.71875Q382.92188 321.57812 382.0625 321.35938Q380.90625 321.0625 380.45312 320.85938Q380.01562 320.64062 379.78125 320.26562Q379.54688 319.89062 379.54688 319.42188Q379.54688 319.01562 379.73438 318.65625Q379.92188 318.29688 380.25 318.0625Q380.5 317.89062 380.92188 317.76562Q381.34375 317.64062 381.84375 317.64062Q382.5625 317.64062 383.10938 317.85938Q383.67188 318.0625 383.9375 318.42188Q384.20312 318.78125 384.29688 319.375L383.26562 319.51562Q383.20312 319.04688 382.85938 318.78125Q382.53125 318.5 381.90625 318.5Q381.1875 318.5 380.875 318.75Q380.5625 318.98438 380.5625 319.3125Q380.5625 319.51562 380.6875 319.67188Q380.82812 319.84375 381.09375 319.95312Q381.25 320.01562 382.03125 320.21875Q383.15625 320.53125 383.59375 320.71875Q384.03125 320.90625 384.28125 321.26562Q384.53125 321.625 384.53125 322.17188Q384.53125 322.70312 384.21875 323.17188Q383.92188 323.625 383.34375 323.89062Q382.76562 324.14062 382.03125 324.14062Q380.8125 324.14062 380.17188 323.64062Q379.54688 323.125 379.375 322.14062ZM387.48438 326.53125L386.73438 326.53125Q388.48438 323.71875 388.48438 320.89062Q388.48438 319.79688 388.23438 318.70312Q388.03125 317.82812 387.67188 317.01562Q387.4375 316.5 386.73438 315.26562L387.48438 315.26562Q388.57812 316.73438 389.10938 318.21875Q389.5625 319.5 389.5625 320.89062Q389.5625 322.46875 388.95312 323.95312Q388.34375 325.42188 387.48438 326.53125Z"
     fill-rule="nonzero"
     id="path74" />
  <path
     fill="#000000"
     d="M29.6 234.26562L21.00625 230.96875L21.00625 229.75L29.6 226.23438L29.6 227.51562L26.990625 228.53125L26.990625 232.10938L29.6 233.0625L29.6 234.26562ZM26.06875 231.78125L26.06875 228.875L23.69375 229.76562Q22.615625 230.1875 21.9125 230.375Q22.740625 230.54688 23.553125 230.84375L26.06875 231.78125ZM29.6 224.73438L23.38125 227.09375L23.38125 225.98438L27.1 224.64062Q27.709375 224.4375 28.35 224.25Q27.865625 224.10938 27.178125 223.85938L23.38125 222.46875L23.38125 221.39062L29.6 223.75L29.6 224.73438ZM27.6 217.20312L27.725 216.10938Q28.678125 216.35938 29.209375 217.0625Q29.740625 217.76562 29.740625 218.84375Q29.740625 220.20312 28.896875 221.01562Q28.053125 221.8125 26.5375 221.8125Q24.975 221.8125 24.115625 221.0Q23.240625 220.1875 23.240625 218.90625Q23.240625 217.65625 24.084375 216.875Q24.928125 216.07812 26.475 216.07812Q26.56875 216.07812 26.75625 216.07812L26.75625 220.71875Q27.7875 220.65625 28.334375 220.14062Q28.865625 219.625 28.865625 218.84375Q28.865625 218.26562 28.56875 217.85938Q28.25625 217.4375 27.6 217.20312ZM25.896875 220.65625L25.896875 217.1875Q25.1 217.25 24.709375 217.57812Q24.1 218.09375 24.1 218.89062Q24.1 219.625 24.584375 220.125Q25.06875 220.60938 25.896875 220.65625ZM29.6 214.46875L23.38125 214.46875L23.38125 213.51562L24.31875 213.51562Q23.6625 213.15625 23.459375 212.85938Q23.240625 212.54688 23.240625 212.17188Q23.240625 211.64062 23.56875 211.09375L24.553125 211.45312Q24.31875 211.84375 24.31875 212.21875Q24.31875 212.57812 24.5375 212.85938Q24.740625 213.125 25.115625 213.23438Q25.678125 213.42188 26.334375 213.42188L29.6 213.42188L29.6 214.46875ZM28.834375 206.39062Q29.334375 206.98438 29.5375 207.53125Q29.740625 208.0625 29.740625 208.6875Q29.740625 209.71875 29.240625 210.26562Q28.740625 210.8125 27.959375 210.8125Q27.50625 210.8125 27.13125 210.60938Q26.740625 210.40625 26.521875 210.0625Q26.2875 209.71875 26.178125 209.29688Q26.084375 209.0 26.00625 208.35938Q25.865625 207.09375 25.646875 206.48438Q25.428125 206.48438 25.38125 206.48438Q24.725 206.48438 24.459375 206.78125Q24.115625 207.1875 24.115625 207.98438Q24.115625 208.71875 24.38125 209.07812Q24.63125 209.4375 25.2875 209.60938L25.146875 210.64062Q24.490625 210.5 24.084375 210.17188Q23.678125 209.84375 23.459375 209.23438Q23.240625 208.625 23.240625 207.82812Q23.240625 207.03125 23.428125 206.53125Q23.615625 206.03125 23.896875 205.79688Q24.178125 205.5625 24.615625 205.46875Q24.88125 205.42188 25.584375 205.42188L26.990625 205.42188Q28.459375 205.42188 28.85 205.35938Q29.240625 205.28125 29.6 205.07812L29.6 206.1875Q29.271875 206.34375 28.834375 206.39062ZM26.475 206.48438Q26.709375 207.0625 26.88125 208.20312Q26.975 208.85938 27.1 209.125Q27.209375 209.39062 27.428125 209.54688Q27.646875 209.6875 27.928125 209.6875Q28.35 209.6875 28.63125 209.375Q28.9125 209.04688 28.9125 208.4375Q28.9125 207.82812 28.646875 207.35938Q28.38125 206.875 27.9125 206.65625Q27.553125 206.48438 26.865625 206.48438L26.475 206.48438ZM30.115625 203.65625L30.271875 202.625Q30.740625 202.5625 30.959375 202.26562Q31.25625 201.875 31.25625 201.20312Q31.25625 200.46875 30.959375 200.07812Q30.6625 199.67188 30.146875 199.53125Q29.81875 199.4375 28.7875 199.45312Q29.6 200.14062 29.6 201.17188Q29.6 202.45312 28.678125 203.15625Q27.740625 203.85938 26.459375 203.85938Q25.56875 203.85938 24.81875 203.54688Q24.053125 203.21875 23.646875 202.60938Q23.240625 202.0 23.240625 201.17188Q23.240625 200.0625 24.13125 199.34375L23.38125 199.34375L23.38125 198.375L28.75625 198.375Q30.209375 198.375 30.81875 198.67188Q31.428125 198.96875 31.771875 199.60938Q32.13125 200.25 32.13125 201.1875Q32.13125 202.29688 31.63125 202.98438Q31.13125 203.67188 30.115625 203.65625ZM26.38125 202.78125Q27.6 202.78125 28.1625 202.29688Q28.725 201.8125 28.725 201.07812Q28.725 200.34375 28.1625 199.85938Q27.6 199.35938 26.4125 199.35938Q25.271875 199.35938 24.69375 199.875Q24.115625 200.375 24.115625 201.09375Q24.115625 201.79688 24.69375 202.29688Q25.25625 202.78125 26.38125 202.78125ZM27.6 192.20312L27.725 191.10938Q28.678125 191.35938 29.209375 192.0625Q29.740625 192.76562 29.740625 193.84375Q29.740625 195.20312 28.896875 196.01562Q28.053125 196.8125 26.5375 196.8125Q24.975 196.8125 24.115625 196.0Q23.240625 195.1875 23.240625 193.90625Q23.240625 192.65625 24.084375 191.875Q24.928125 191.07812 26.475 191.07812Q26.56875 191.07812 26.75625 191.07812L26.75625 195.71875Q27.7875 195.65625 28.334375 195.14062Q28.865625 194.625 28.865625 193.84375Q28.865625 193.26562 28.56875 192.85938Q28.25625 192.4375 27.6 192.20312ZM25.896875 195.65625L25.896875 192.1875Q25.1 192.25 24.709375 192.57812Q24.1 193.09375 24.1 193.89062Q24.1 194.625 24.584375 195.125Q25.06875 195.60938 25.896875 195.65625ZM29.6 186.3125L21.00625 186.3125L21.00625 182.5Q21.00625 181.34375 21.240625 180.75Q21.475 180.15625 22.06875 179.79688Q22.646875 179.4375 23.35 179.4375Q24.271875 179.4375 24.896875 180.03125Q25.521875 180.625 25.69375 181.85938Q25.9125 181.40625 26.115625 181.17188Q26.56875 180.67188 27.25625 180.23438L29.6 178.73438L29.6 180.17188L27.81875 181.29688Q27.0375 181.79688 26.63125 182.125Q26.225 182.4375 26.06875 182.70312Q25.896875 182.95312 25.81875 183.21875Q25.7875 183.40625 25.7875 183.84375L25.7875 185.17188L29.6 185.17188L29.6 186.3125ZM24.803125 185.17188L24.803125 182.71875Q24.803125 181.95312 24.646875 181.51562Q24.475 181.0625 24.13125 180.84375Q23.771875 180.60938 23.35 180.60938Q22.740625 180.60938 22.35 181.0625Q21.959375 181.5 21.959375 182.45312L21.959375 185.17188L24.803125 185.17188ZM29.6 175.14062L22.021875 175.14062L22.021875 177.96875L21.00625 177.96875L21.00625 171.15625L22.021875 171.15625L22.021875 174.0L29.6 174.0L29.6 175.14062ZM29.6 168.14062L22.021875 168.14062L22.021875 170.96875L21.00625 170.96875L21.00625 164.15625L22.021875 164.15625L22.021875 167.0L29.6 167.0L29.6 168.14062ZM32.13125 158.4375Q31.021875 159.3125 29.553125 159.92188Q28.06875 160.51562 26.490625 160.51562Q25.1 160.51562 23.81875 160.07812Q22.334375 159.54688 20.865625 158.4375L20.865625 157.6875Q22.084375 158.39062 22.6 158.625Q23.4125 158.98438 24.2875 159.1875Q25.38125 159.4375 26.490625 159.4375Q29.31875 159.4375 32.13125 157.6875L32.13125 158.4375ZM23.38125 151.28125L29.6 151.28125L29.6 152.23438L28.865625 152.23438Q29.334375 152.53125 29.50625 152.82812Q29.740625 153.23438 29.740625 153.78125Q29.740625 154.26562 29.553125 154.64062Q29.4125 154.92188 28.975 155.26562L31.990625 155.26562L31.990625 156.3125L23.38125 156.3125L23.38125 155.26562L26.00625 155.26562Q27.44375 155.26562 27.88125 155.125Q28.303125 154.96875 28.553125 154.625Q28.7875 154.28125 28.7875 153.82812Q28.7875 153.35938 28.5375 153.0Q28.271875 152.625 27.865625 152.48438Q27.459375 152.32812 26.0375 152.32812L23.38125 152.32812L23.38125 151.28125ZM27.740625 149.875L27.584375 148.84375Q28.209375 148.75 28.5375 148.35938Q28.865625 147.95312 28.865625 147.21875Q28.865625 146.5 28.584375 146.15625Q28.2875 145.79688 27.88125 145.79688Q27.521875 145.79688 27.31875 146.10938Q27.178125 146.32812 26.959375 147.1875Q26.6625 148.34375 26.459375 148.79688Q26.240625 149.23438 25.865625 149.46875Q25.490625 149.70312 25.021875 149.70312Q24.615625 149.70312 24.25625 149.51562Q23.896875 149.32812 23.6625 149.0Q23.490625 148.75 23.365625 148.32812Q23.240625 147.90625 23.240625 147.40625Q23.240625 146.6875 23.459375 146.14062Q23.6625 145.57812 24.021875 145.3125Q24.38125 145.04688 24.975 144.95312L25.115625 145.98438Q24.646875 146.04688 24.38125 146.39062Q24.1 146.71875 24.1 147.34375Q24.1 148.0625 24.35 148.375Q24.584375 148.6875 24.9125 148.6875Q25.115625 148.6875 25.271875 148.5625Q25.44375 148.42188 25.553125 148.15625Q25.615625 148.0 25.81875 147.21875Q26.13125 146.09375 26.31875 145.65625Q26.50625 145.21875 26.865625 144.96875Q27.225 144.71875 27.771875 144.71875Q28.303125 144.71875 28.771875 145.03125Q29.225 145.32812 29.490625 145.90625Q29.740625 146.48438 29.740625 147.21875Q29.740625 148.4375 29.240625 149.07812Q28.725 149.70312 27.740625 149.875ZM32.13125 141.76562L32.13125 142.51562Q29.31875 140.76562 26.490625 140.76562Q25.396875 140.76562 24.303125 141.01562Q23.428125 141.21875 22.615625 141.57812Q22.1 141.8125 20.865625 142.51562L20.865625 141.76562Q22.334375 140.67188 23.81875 140.14062Q25.1 139.6875 26.490625 139.6875Q28.06875 139.6875 29.553125 140.29688Q31.021875 140.90625 32.13125 141.76562Z"
     fill-rule="nonzero"
     id="path76" />
  <path
     fill="#000000"
     d="M79.1 274.76562Q79.1 273.23438 79.4125 272.3125Q79.725 271.375 80.33437 270.875Q80.95937 270.375 81.89687 270.375Q82.58437 270.375 83.1 270.65625Q83.63125 270.9375 83.975 271.46875Q84.31875 271.98438 84.50625 272.73438Q84.69375 273.48438 84.69375 274.76562Q84.69375 276.28125 84.38125 277.20312Q84.08437 278.125 83.45937 278.64062Q82.85 279.14062 81.89687 279.14062Q80.6625 279.14062 79.94375 278.25Q79.1 277.1875 79.1 274.76562ZM80.17812 274.76562Q80.17812 276.875 80.67812 277.57812Q81.17812 278.28125 81.89687 278.28125Q82.63125 278.28125 83.11562 277.57812Q83.61562 276.875 83.61562 274.76562Q83.61562 272.64062 83.11562 271.95312Q82.63125 271.25 81.88125 271.25Q81.1625 271.25 80.725 271.85938Q80.17812 272.64062 80.17812 274.76562Z"
     fill-rule="nonzero"
     id="path78" />
  <path
     fill="#000000"
     d="M58.1 213.58333L59.209373 213.48958Q59.334373 214.30208 59.771873 214.70833Q60.225 215.11458 60.865623 215.11458Q61.615623 215.11458 62.146873 214.53645Q62.678123 213.95833 62.678123 213.02083Q62.678123 212.11458 62.1625 211.59895Q61.6625 211.0677 60.834373 211.0677Q60.334373 211.0677 59.9125 211.30208Q59.50625 211.53645 59.271873 211.89583L58.2875 211.77083L59.115623 207.36458L63.396873 207.36458L63.396873 208.36458L59.959373 208.36458L59.50625 210.67708Q60.271873 210.1302 61.115623 210.1302Q62.240623 210.1302 63.00625 210.91145Q63.7875 211.6927 63.7875 212.92708Q63.7875 214.08333 63.115623 214.9427Q62.2875 215.97395 60.865623 215.97395Q59.69375 215.97395 58.94375 215.3177Q58.209373 214.66145 58.1 213.58333ZM65.1 211.59895Q65.1 210.0677 65.4125 209.14583Q65.725 208.20833 66.33437 207.70833Q66.95937 207.20833 67.89687 207.20833Q68.58437 207.20833 69.1 207.48958Q69.63125 207.77083 69.975 208.30208Q70.31875 208.8177 70.50625 209.5677Q70.69375 210.3177 70.69375 211.59895Q70.69375 213.11458 70.38125 214.03645Q70.08437 214.95833 69.45937 215.47395Q68.85 215.97395 67.89687 215.97395Q66.6625 215.97395 65.94375 215.08333Q65.1 214.02083 65.1 211.59895ZM66.17812 211.59895Q66.17812 213.70833 66.67812 214.41145Q67.17812 215.11458 67.89687 215.11458Q68.63125 215.11458 69.11562 214.41145Q69.61562 213.70833 69.61562 211.59895Q69.61562 209.47395 69.11562 208.78645Q68.63125 208.08333 67.88125 208.08333Q67.1625 208.08333 66.725 208.6927Q66.17812 209.47395 66.17812 211.59895ZM72.1 211.59895Q72.1 210.0677 72.4125 209.14583Q72.725 208.20833 73.33437 207.70833Q73.95937 207.20833 74.89687 207.20833Q75.58437 207.20833 76.1 207.48958Q76.63125 207.77083 76.975 208.30208Q77.31875 208.8177 77.50625 209.5677Q77.69375 210.3177 77.69375 211.59895Q77.69375 213.11458 77.38125 214.03645Q77.08437 214.95833 76.45937 215.47395Q75.85 215.97395 74.89687 215.97395Q73.6625 215.97395 72.94375 215.08333Q72.1 214.02083 72.1 211.59895ZM73.17812 211.59895Q73.17812 213.70833 73.67812 214.41145Q74.17812 215.11458 74.89687 215.11458Q75.63125 215.11458 76.11562 214.41145Q76.61562 213.70833 76.61562 211.59895Q76.61562 209.47395 76.11562 208.78645Q75.63125 208.08333 74.88125 208.08333Q74.1625 208.08333 73.725 208.6927Q73.17812 209.47395 73.17812 211.59895ZM79.1 211.59895Q79.1 210.0677 79.4125 209.14583Q79.725 208.20833 80.33437 207.70833Q80.95937 207.20833 81.89687 207.20833Q82.58437 207.20833 83.1 207.48958Q83.63125 207.77083 83.975 208.30208Q84.31875 208.8177 84.50625 209.5677Q84.69375 210.3177 84.69375 211.59895Q84.69375 213.11458 84.38125 214.03645Q84.08437 214.95833 83.45937 215.47395Q82.85 215.97395 81.89687 215.97395Q80.6625 215.97395 79.94375 215.08333Q79.1 214.02083 79.1 211.59895ZM80.17812 211.59895Q80.17812 213.70833 80.67812 214.41145Q81.17812 215.11458 81.89687 215.11458Q82.63125 215.11458 83.11562 214.41145Q83.61562 213.70833 83.61562 211.59895Q83.61562 209.47395 83.11562 208.78645Q82.63125 208.08333 81.88125 208.08333Q81.1625 208.08333 80.725 208.6927Q80.17812 209.47395 80.17812 211.59895Z"
     fill-rule="nonzero"
     id="path80" />
  <path
     fill="#000000"
     d="M55.06875 152.66667L54.021873 152.66667L54.021873 145.94792Q53.63125 146.3073 53.00625 146.6823Q52.396873 147.04167 51.9125 147.21355L51.9125 146.19792Q52.7875 145.77605 53.44375 145.19792Q54.115623 144.60417 54.396873 144.04167L55.06875 144.04167L55.06875 152.66667ZM58.1 148.4323Q58.1 146.90105 58.4125 145.97917Q58.725 145.04167 59.334373 144.54167Q59.959373 144.04167 60.896873 144.04167Q61.584373 144.04167 62.1 144.32292Q62.63125 144.60417 62.975 145.13542Q63.31875 145.65105 63.50625 146.40105Q63.69375 147.15105 63.69375 148.4323Q63.69375 149.94792 63.38125 150.8698Q63.084373 151.79167 62.459373 152.3073Q61.85 152.8073 60.896873 152.8073Q59.6625 152.8073 58.94375 151.91667Q58.1 150.85417 58.1 148.4323ZM59.178123 148.4323Q59.178123 150.54167 59.678123 151.2448Q60.178123 151.94792 60.896873 151.94792Q61.63125 151.94792 62.115623 151.2448Q62.615623 150.54167 62.615623 148.4323Q62.615623 146.3073 62.115623 145.6198Q61.63125 144.91667 60.88125 144.91667Q60.1625 144.91667 59.725 145.52605Q59.178123 146.3073 59.178123 148.4323ZM65.1 148.4323Q65.1 146.90105 65.4125 145.97917Q65.725 145.04167 66.33437 144.54167Q66.95937 144.04167 67.89687 144.04167Q68.58437 144.04167 69.1 144.32292Q69.63125 144.60417 69.975 145.13542Q70.31875 145.65105 70.50625 146.40105Q70.69375 147.15105 70.69375 148.4323Q70.69375 149.94792 70.38125 150.8698Q70.08437 151.79167 69.45937 152.3073Q68.85 152.8073 67.89687 152.8073Q66.6625 152.8073 65.94375 151.91667Q65.1 150.85417 65.1 148.4323ZM66.17812 148.4323Q66.17812 150.54167 66.67812 151.2448Q67.17812 151.94792 67.89687 151.94792Q68.63125 151.94792 69.11562 151.2448Q69.61562 150.54167 69.61562 148.4323Q69.61562 146.3073 69.11562 145.6198Q68.63125 144.91667 67.88125 144.91667Q67.1625 144.91667 66.725 145.52605Q66.17812 146.3073 66.17812 148.4323ZM72.1 148.4323Q72.1 146.90105 72.4125 145.97917Q72.725 145.04167 73.33437 144.54167Q73.95937 144.04167 74.89687 144.04167Q75.58437 144.04167 76.1 144.32292Q76.63125 144.60417 76.975 145.13542Q77.31875 145.65105 77.50625 146.40105Q77.69375 147.15105 77.69375 148.4323Q77.69375 149.94792 77.38125 150.8698Q77.08437 151.79167 76.45937 152.3073Q75.85 152.8073 74.89687 152.8073Q73.6625 152.8073 72.94375 151.91667Q72.1 150.85417 72.1 148.4323ZM73.17812 148.4323Q73.17812 150.54167 73.67812 151.2448Q74.17812 151.94792 74.89687 151.94792Q75.63125 151.94792 76.11562 151.2448Q76.61562 150.54167 76.61562 148.4323Q76.61562 146.3073 76.11562 145.6198Q75.63125 144.91667 74.88125 144.91667Q74.1625 144.91667 73.725 145.52605Q73.17812 146.3073 73.17812 148.4323ZM79.1 148.4323Q79.1 146.90105 79.4125 145.97917Q79.725 145.04167 80.33437 144.54167Q80.95937 144.04167 81.89687 144.04167Q82.58437 144.04167 83.1 144.32292Q83.63125 144.60417 83.975 145.13542Q84.31875 145.65105 84.50625 146.40105Q84.69375 147.15105 84.69375 148.4323Q84.69375 149.94792 84.38125 150.8698Q84.08437 151.79167 83.45937 152.3073Q82.85 152.8073 81.89687 152.8073Q80.6625 152.8073 79.94375 151.91667Q79.1 150.85417 79.1 148.4323ZM80.17812 148.4323Q80.17812 150.54167 80.67812 151.2448Q81.17812 151.94792 81.89687 151.94792Q82.63125 151.94792 83.11562 151.2448Q83.61562 150.54167 83.61562 148.4323Q83.61562 146.3073 83.11562 145.6198Q82.63125 144.91667 81.88125 144.91667Q81.1625 144.91667 80.725 145.52605Q80.17812 146.3073 80.17812 148.4323Z"
     fill-rule="nonzero"
     id="path82" />
  <path
     fill="#000000"
     d="M55.06875 89.5L54.021873 89.5L54.021873 82.78125Q53.63125 83.140625 53.00625 83.515625Q52.396873 83.875 51.9125 84.046875L51.9125 83.03125Q52.7875 82.609375 53.44375 82.03125Q54.115623 81.4375 54.396873 80.875L55.06875 80.875L55.06875 89.5ZM58.1 87.25L59.209373 87.15625Q59.334373 87.96875 59.771873 88.375Q60.225 88.78125 60.865623 88.78125Q61.615623 88.78125 62.146873 88.203125Q62.678123 87.625 62.678123 86.6875Q62.678123 85.78125 62.1625 85.265625Q61.6625 84.734375 60.834373 84.734375Q60.334373 84.734375 59.9125 84.96875Q59.50625 85.203125 59.271873 85.5625L58.2875 85.4375L59.115623 81.03125L63.396873 81.03125L63.396873 82.03125L59.959373 82.03125L59.50625 84.34375Q60.271873 83.796875 61.115623 83.796875Q62.240623 83.796875 63.00625 84.578125Q63.7875 85.359375 63.7875 86.59375Q63.7875 87.75 63.115623 88.609375Q62.2875 89.640625 60.865623 89.640625Q59.69375 89.640625 58.94375 88.984375Q58.209373 88.328125 58.1 87.25ZM65.1 85.265625Q65.1 83.734375 65.4125 82.8125Q65.725 81.875 66.33437 81.375Q66.95937 80.875 67.89687 80.875Q68.58437 80.875 69.1 81.15625Q69.63125 81.4375 69.975 81.96875Q70.31875 82.484375 70.50625 83.234375Q70.69375 83.984375 70.69375 85.265625Q70.69375 86.78125 70.38125 87.703125Q70.08437 88.625 69.45937 89.140625Q68.85 89.640625 67.89687 89.640625Q66.6625 89.640625 65.94375 88.75Q65.1 87.6875 65.1 85.265625ZM66.17812 85.265625Q66.17812 87.375 66.67812 88.078125Q67.17812 88.78125 67.89687 88.78125Q68.63125 88.78125 69.11562 88.078125Q69.61562 87.375 69.61562 85.265625Q69.61562 83.140625 69.11562 82.453125Q68.63125 81.75 67.88125 81.75Q67.1625 81.75 66.725 82.359375Q66.17812 83.140625 66.17812 85.265625ZM72.1 85.265625Q72.1 83.734375 72.4125 82.8125Q72.725 81.875 73.33437 81.375Q73.95937 80.875 74.89687 80.875Q75.58437 80.875 76.1 81.15625Q76.63125 81.4375 76.975 81.96875Q77.31875 82.484375 77.50625 83.234375Q77.69375 83.984375 77.69375 85.265625Q77.69375 86.78125 77.38125 87.703125Q77.08437 88.625 76.45937 89.140625Q75.85 89.640625 74.89687 89.640625Q73.6625 89.640625 72.94375 88.75Q72.1 87.6875 72.1 85.265625ZM73.17812 85.265625Q73.17812 87.375 73.67812 88.078125Q74.17812 88.78125 74.89687 88.78125Q75.63125 88.78125 76.11562 88.078125Q76.61562 87.375 76.61562 85.265625Q76.61562 83.140625 76.11562 82.453125Q75.63125 81.75 74.88125 81.75Q74.1625 81.75 73.725 82.359375Q73.17812 83.140625 73.17812 85.265625ZM79.1 85.265625Q79.1 83.734375 79.4125 82.8125Q79.725 81.875 80.33437 81.375Q80.95937 80.875 81.89687 80.875Q82.58437 80.875 83.1 81.15625Q83.63125 81.4375 83.975 81.96875Q84.31875 82.484375 84.50625 83.234375Q84.69375 83.984375 84.69375 85.265625Q84.69375 86.78125 84.38125 87.703125Q84.08437 88.625 83.45937 89.140625Q82.85 89.640625 81.89687 89.640625Q80.6625 89.640625 79.94375 88.75Q79.1 87.6875 79.1 85.265625ZM80.17812 85.265625Q80.17812 87.375 80.67812 88.078125Q81.17812 88.78125 81.89687 88.78125Q82.63125 88.78125 83.11562 88.078125Q83.61562 87.375 83.61562 85.265625Q83.61562 83.140625 83.11562 82.453125Q82.63125 81.75 81.88125 81.75Q81.1625 81.75 80.725 82.359375Q80.17812 83.140625 80.17812 85.265625Z"
     fill-rule="nonzero"
     id="path84" />
  <path
     fill="#000000"
     d="M124.50961 290.98438L124.50961 292.0L118.82211 292.0Q118.82211 291.625 118.94711 291.26562Q119.16586 290.6875 119.63461 290.125Q120.11899 289.5625 121.02524 288.82812Q122.43149 287.67188 122.91586 287.0Q123.41586 286.32812 123.41586 285.73438Q123.41586 285.10938 122.96274 284.6875Q122.50961 284.25 121.79086 284.25Q121.02524 284.25 120.57211 284.70312Q120.11899 285.15625 120.10336 285.96875L119.02524 285.85938Q119.13461 284.64062 119.85336 284.01562Q120.58774 283.375 121.82211 283.375Q123.05649 283.375 123.77524 284.0625Q124.49399 284.75 124.49399 285.76562Q124.49399 286.28125 124.27524 286.78125Q124.07211 287.26562 123.57211 287.82812Q123.08774 288.375 121.96274 289.32812Q121.00961 290.125 120.72836 290.42188Q120.46274 290.70312 120.29086 290.98438L124.50961 290.98438ZM126.55649 292.0L126.55649 290.79688L127.75961 290.79688L127.75961 292.0L126.55649 292.0ZM128.96274 287.76562Q128.96274 286.23438 129.27524 285.3125Q129.58774 284.375 130.19711 283.875Q130.82211 283.375 131.75961 283.375Q132.44711 283.375 132.96274 283.65625Q133.49399 283.9375 133.83774 284.46875Q134.18149 284.98438 134.36899 285.73438Q134.55649 286.48438 134.55649 287.76562Q134.55649 289.28125 134.24399 290.20312Q133.94711 291.125 133.32211 291.64062Q132.71274 292.14062 131.75961 292.14062Q130.52524 292.14062 129.80649 291.25Q128.96274 290.1875 128.96274 287.76562ZM130.04086 287.76562Q130.04086 289.875 130.54086 290.57812Q131.04086 291.28125 131.75961 291.28125Q132.49399 291.28125 132.97836 290.57812Q133.47836 289.875 133.47836 287.76562Q133.47836 285.64062 132.97836 284.95312Q132.49399 284.25 131.74399 284.25Q131.02524 284.25 130.58774 284.85938Q130.04086 285.64062 130.04086 287.76562ZM135.96274 287.76562Q135.96274 286.23438 136.27524 285.3125Q136.58774 284.375 137.19711 283.875Q137.82211 283.375 138.75961 283.375Q139.44711 283.375 139.96274 283.65625Q140.49399 283.9375 140.83774 284.46875Q141.18149 284.98438 141.36899 285.73438Q141.55649 286.48438 141.55649 287.76562Q141.55649 289.28125 141.24399 290.20312Q140.94711 291.125 140.32211 291.64062Q139.71274 292.14062 138.75961 292.14062Q137.52524 292.14062 136.80649 291.25Q135.96274 290.1875 135.96274 287.76562ZM137.04086 287.76562Q137.04086 289.875 137.54086 290.57812Q138.04086 291.28125 138.75961 291.28125Q139.49399 291.28125 139.97836 290.57812Q140.47836 289.875 140.47836 287.76562Q140.47836 285.64062 139.97836 284.95312Q139.49399 284.25 138.74399 284.25Q138.02524 284.25 137.58774 284.85938Q137.04086 285.64062 137.04086 287.76562ZM143.41586 292.0L143.41586 283.40625L149.61899 283.40625L149.61899 284.42188L144.55649 284.42188L144.55649 287.04688L149.30649 287.04688L149.30649 288.0625L144.55649 288.0625L144.55649 290.98438L149.82211 290.98438L149.82211 292.0L143.41586 292.0ZM153.46274 290.60938L153.46274 288.25L151.13461 288.25L151.13461 287.26562L153.46274 287.26562L153.46274 284.9375L154.46274 284.9375L154.46274 287.26562L156.80649 287.26562L156.80649 288.25L154.46274 288.25L154.46274 290.60938L153.46274 290.60938ZM157.96274 287.76562Q157.96274 286.23438 158.27524 285.3125Q158.58774 284.375 159.19711 283.875Q159.82211 283.375 160.75961 283.375Q161.44711 283.375 161.96274 283.65625Q162.49399 283.9375 162.83774 284.46875Q163.18149 284.98438 163.36899 285.73438Q163.55649 286.48438 163.55649 287.76562Q163.55649 289.28125 163.24399 290.20312Q162.94711 291.125 162.32211 291.64062Q161.71274 292.14062 160.75961 292.14062Q159.52524 292.14062 158.80649 291.25Q157.96274 290.1875 157.96274 287.76562ZM159.04086 287.76562Q159.04086 289.875 159.54086 290.57812Q160.04086 291.28125 160.75961 291.28125Q161.49399 291.28125 161.97836 290.57812Q162.47836 289.875 162.47836 287.76562Q162.47836 285.64062 161.97836 284.95312Q161.49399 284.25 160.74399 284.25Q160.02524 284.25 159.58774 284.85938Q159.04086 285.64062 159.04086 287.76562ZM166.58774 287.34375Q165.93149 287.09375 165.60336 286.65625Q165.29086 286.20312 165.29086 285.59375Q165.29086 284.65625 165.96274 284.01562Q166.65024 283.375 167.75961 283.375Q168.88461 283.375 169.57211 284.03125Q170.25961 284.6875 170.25961 285.625Q170.25961 286.21875 169.94711 286.65625Q169.63461 287.09375 168.99399 287.34375Q169.79086 287.59375 170.19711 288.17188Q170.60336 288.75 170.60336 289.54688Q170.60336 290.64062 169.82211 291.39062Q169.05649 292.14062 167.77524 292.14062Q166.50961 292.14062 165.72836 291.39062Q164.94711 290.64062 164.94711 289.51562Q164.94711 288.67188 165.36899 288.10938Q165.80649 287.54688 166.58774 287.34375ZM166.36899 285.54688Q166.36899 286.15625 166.75961 286.54688Q167.16586 286.9375 167.79086 286.9375Q168.40024 286.9375 168.79086 286.5625Q169.18149 286.17188 169.18149 285.60938Q169.18149 285.03125 168.77524 284.64062Q168.36899 284.23438 167.77524 284.23438Q167.16586 284.23438 166.75961 284.625Q166.36899 285.01562 166.36899 285.54688ZM166.04086 289.51562Q166.04086 289.96875 166.24399 290.39062Q166.46274 290.8125 166.88461 291.04688Q167.30649 291.28125 167.79086 291.28125Q168.54086 291.28125 169.02524 290.79688Q169.52524 290.3125 169.52524 289.5625Q169.52524 288.79688 169.02524 288.29688Q168.52524 287.79688 167.75961 287.79688Q167.00961 287.79688 166.52524 288.29688Q166.04086 288.78125 166.04086 289.51562Z"
     fill-rule="nonzero"
     id="path86" />
  <path
     fill="#000000"
     d="M215.50189 292.0L215.50189 289.9375L211.78314 289.9375L211.78314 288.96875L215.70502 283.40625L216.56439 283.40625L216.56439 288.96875L217.72064 288.96875L217.72064 289.9375L216.56439 289.9375L216.56439 292.0L215.50189 292.0ZM215.50189 288.96875L215.50189 285.10938L212.81439 288.96875L215.50189 288.96875ZM219.72064 292.0L219.72064 290.79688L220.92377 290.79688L220.92377 292.0L219.72064 292.0ZM222.12689 287.76562Q222.12689 286.23438 222.43939 285.3125Q222.75189 284.375 223.36127 283.875Q223.98627 283.375 224.92377 283.375Q225.61127 283.375 226.12689 283.65625Q226.65814 283.9375 227.00189 284.46875Q227.34564 284.98438 227.53314 285.73438Q227.72064 286.48438 227.72064 287.76562Q227.72064 289.28125 227.40814 290.20312Q227.11127 291.125 226.48627 291.64062Q225.87689 292.14062 224.92377 292.14062Q223.68939 292.14062 222.97064 291.25Q222.12689 290.1875 222.12689 287.76562ZM223.20502 287.76562Q223.20502 289.875 223.70502 290.57812Q224.20502 291.28125 224.92377 291.28125Q225.65814 291.28125 226.14252 290.57812Q226.64252 289.875 226.64252 287.76562Q226.64252 285.64062 226.14252 284.95312Q225.65814 284.25 224.90814 284.25Q224.18939 284.25 223.75189 284.85938Q223.20502 285.64062 223.20502 287.76562ZM229.12689 287.76562Q229.12689 286.23438 229.43939 285.3125Q229.75189 284.375 230.36127 283.875Q230.98627 283.375 231.92377 283.375Q232.61127 283.375 233.12689 283.65625Q233.65814 283.9375 234.00189 284.46875Q234.34564 284.98438 234.53314 285.73438Q234.72064 286.48438 234.72064 287.76562Q234.72064 289.28125 234.40814 290.20312Q234.11127 291.125 233.48627 291.64062Q232.87689 292.14062 231.92377 292.14062Q230.68939 292.14062 229.97064 291.25Q229.12689 290.1875 229.12689 287.76562ZM230.20502 287.76562Q230.20502 289.875 230.70502 290.57812Q231.20502 291.28125 231.92377 291.28125Q232.65814 291.28125 233.14252 290.57812Q233.64252 289.875 233.64252 287.76562Q233.64252 285.64062 233.14252 284.95312Q232.65814 284.25 231.90814 284.25Q231.18939 284.25 230.75189 284.85938Q230.20502 285.64062 230.20502 287.76562ZM236.58002 292.0L236.58002 283.40625L242.78314 283.40625L242.78314 284.42188L237.72064 284.42188L237.72064 287.04688L242.47064 287.04688L242.47064 288.0625L237.72064 288.0625L237.72064 290.98438L242.98627 290.98438L242.98627 292.0L236.58002 292.0ZM246.62689 290.60938L246.62689 288.25L244.29877 288.25L244.29877 287.26562L246.62689 287.26562L246.62689 284.9375L247.62689 284.9375L247.62689 287.26562L249.97064 287.26562L249.97064 288.25L247.62689 288.25L247.62689 290.60938L246.62689 290.60938ZM251.12689 287.76562Q251.12689 286.23438 251.43939 285.3125Q251.75189 284.375 252.36127 283.875Q252.98627 283.375 253.92377 283.375Q254.61127 283.375 255.12689 283.65625Q255.65814 283.9375 256.0019 284.46875Q256.34564 284.98438 256.53314 285.73438Q256.72064 286.48438 256.72064 287.76562Q256.72064 289.28125 256.40814 290.20312Q256.11127 291.125 255.48627 291.64062Q254.87689 292.14062 253.92377 292.14062Q252.68939 292.14062 251.97064 291.25Q251.12689 290.1875 251.12689 287.76562ZM252.20502 287.76562Q252.20502 289.875 252.70502 290.57812Q253.20502 291.28125 253.92377 291.28125Q254.65814 291.28125 255.14252 290.57812Q255.64252 289.875 255.64252 287.76562Q255.64252 285.64062 255.14252 284.95312Q254.65814 284.25 253.90814 284.25Q253.18939 284.25 252.75189 284.85938Q252.20502 285.64062 252.20502 287.76562ZM259.7519 287.34375Q259.09564 287.09375 258.76752 286.65625Q258.45502 286.20312 258.45502 285.59375Q258.45502 284.65625 259.1269 284.01562Q259.8144 283.375 260.92377 283.375Q262.04877 283.375 262.73627 284.03125Q263.42377 284.6875 263.42377 285.625Q263.42377 286.21875 263.11127 286.65625Q262.79877 287.09375 262.15814 287.34375Q262.95502 287.59375 263.36127 288.17188Q263.76752 288.75 263.76752 289.54688Q263.76752 290.64062 262.98627 291.39062Q262.22064 292.14062 260.9394 292.14062Q259.67377 292.14062 258.89252 291.39062Q258.11127 290.64062 258.11127 289.51562Q258.11127 288.67188 258.53314 288.10938Q258.97064 287.54688 259.7519 287.34375ZM259.53314 285.54688Q259.53314 286.15625 259.92377 286.54688Q260.33002 286.9375 260.95502 286.9375Q261.5644 286.9375 261.95502 286.5625Q262.34564 286.17188 262.34564 285.60938Q262.34564 285.03125 261.9394 284.64062Q261.53314 284.23438 260.9394 284.23438Q260.33002 284.23438 259.92377 284.625Q259.53314 285.01562 259.53314 285.54688ZM259.20502 289.51562Q259.20502 289.96875 259.40814 290.39062Q259.6269 290.8125 260.04877 291.04688Q260.47064 291.28125 260.95502 291.28125Q261.70502 291.28125 262.1894 290.79688Q262.6894 290.3125 262.6894 289.5625Q262.6894 288.79688 262.1894 288.29688Q261.6894 287.79688 260.92377 287.79688Q260.17377 287.79688 259.6894 288.29688Q259.20502 288.78125 259.20502 289.51562Z"
     fill-rule="nonzero"
     id="path88" />
  <path
     fill="#000000"
     d="M310.7598 285.51562L309.71292 285.59375Q309.5723 284.96875 309.3223 284.6875Q308.8848 284.23438 308.2598 284.23438Q307.7598 284.23438 307.36917 284.51562Q306.8848 284.89062 306.58792 285.59375Q306.30667 286.28125 306.29105 287.5625Q306.66605 286.98438 307.21292 286.70312Q307.77542 286.42188 308.3848 286.42188Q309.43167 286.42188 310.16605 287.20312Q310.91605 287.98438 310.91605 289.20312Q310.91605 290.01562 310.55667 290.71875Q310.21292 291.40625 309.60355 291.78125Q308.99417 292.14062 308.22855 292.14062Q306.90042 292.14062 306.0723 291.17188Q305.24417 290.20312 305.24417 287.98438Q305.24417 285.48438 306.16605 284.35938Q306.96292 283.375 308.3223 283.375Q309.33792 283.375 309.97855 283.95312Q310.6348 284.51562 310.7598 285.51562ZM306.46292 289.21875Q306.46292 289.76562 306.68167 290.26562Q306.91605 290.75 307.3223 291.01562Q307.74417 291.28125 308.21292 291.28125Q308.86917 291.28125 309.35355 290.75Q309.83792 290.20312 309.83792 289.28125Q309.83792 288.39062 309.35355 287.875Q308.8848 287.35938 308.16605 287.35938Q307.4473 287.35938 306.9473 287.875Q306.46292 288.39062 306.46292 289.21875ZM312.8848 292.0L312.8848 290.79688L314.08792 290.79688L314.08792 292.0L312.8848 292.0ZM315.29105 287.76562Q315.29105 286.23438 315.60355 285.3125Q315.91605 284.375 316.52542 283.875Q317.15042 283.375 318.08792 283.375Q318.77542 283.375 319.29105 283.65625Q319.8223 283.9375 320.16605 284.46875Q320.5098 284.98438 320.6973 285.73438Q320.8848 286.48438 320.8848 287.76562Q320.8848 289.28125 320.5723 290.20312Q320.27542 291.125 319.65042 291.64062Q319.04105 292.14062 318.08792 292.14062Q316.85355 292.14062 316.1348 291.25Q315.29105 290.1875 315.29105 287.76562ZM316.36917 287.76562Q316.36917 289.875 316.86917 290.57812Q317.36917 291.28125 318.08792 291.28125Q318.8223 291.28125 319.30667 290.57812Q319.80667 289.875 319.80667 287.76562Q319.80667 285.64062 319.30667 284.95312Q318.8223 284.25 318.0723 284.25Q317.35355 284.25 316.91605 284.85938Q316.36917 285.64062 316.36917 287.76562ZM322.29105 287.76562Q322.29105 286.23438 322.60355 285.3125Q322.91605 284.375 323.52542 283.875Q324.15042 283.375 325.08792 283.375Q325.77542 283.375 326.29105 283.65625Q326.8223 283.9375 327.16605 284.46875Q327.5098 284.98438 327.6973 285.73438Q327.8848 286.48438 327.8848 287.76562Q327.8848 289.28125 327.5723 290.20312Q327.27542 291.125 326.65042 291.64062Q326.04105 292.14062 325.08792 292.14062Q323.85355 292.14062 323.1348 291.25Q322.29105 290.1875 322.29105 287.76562ZM323.36917 287.76562Q323.36917 289.875 323.86917 290.57812Q324.36917 291.28125 325.08792 291.28125Q325.8223 291.28125 326.30667 290.57812Q326.80667 289.875 326.80667 287.76562Q326.80667 285.64062 326.30667 284.95312Q325.8223 284.25 325.0723 284.25Q324.35355 284.25 323.91605 284.85938Q323.36917 285.64062 323.36917 287.76562ZM329.74417 292.0L329.74417 283.40625L335.9473 283.40625L335.9473 284.42188L330.8848 284.42188L330.8848 287.04688L335.6348 287.04688L335.6348 288.0625L330.8848 288.0625L330.8848 290.98438L336.15042 290.98438L336.15042 292.0L329.74417 292.0ZM339.79105 290.60938L339.79105 288.25L337.46292 288.25L337.46292 287.26562L339.79105 287.26562L339.79105 284.9375L340.79105 284.9375L340.79105 287.26562L343.1348 287.26562L343.1348 288.25L340.79105 288.25L340.79105 290.60938L339.79105 290.60938ZM344.29105 287.76562Q344.29105 286.23438 344.60355 285.3125Q344.91605 284.375 345.52542 283.875Q346.15042 283.375 347.08792 283.375Q347.77542 283.375 348.29105 283.65625Q348.8223 283.9375 349.16605 284.46875Q349.5098 284.98438 349.6973 285.73438Q349.8848 286.48438 349.8848 287.76562Q349.8848 289.28125 349.5723 290.20312Q349.27542 291.125 348.65042 291.64062Q348.04105 292.14062 347.08792 292.14062Q345.85355 292.14062 345.1348 291.25Q344.29105 290.1875 344.29105 287.76562ZM345.36917 287.76562Q345.36917 289.875 345.86917 290.57812Q346.36917 291.28125 347.08792 291.28125Q347.8223 291.28125 348.30667 290.57812Q348.80667 289.875 348.80667 287.76562Q348.80667 285.64062 348.30667 284.95312Q347.8223 284.25 347.0723 284.25Q346.35355 284.25 345.91605 284.85938Q345.36917 285.64062 345.36917 287.76562ZM352.91605 287.34375Q352.2598 287.09375 351.93167 286.65625Q351.61917 286.20312 351.61917 285.59375Q351.61917 284.65625 352.29105 284.01562Q352.97855 283.375 354.08792 283.375Q355.21292 283.375 355.90042 284.03125Q356.58792 284.6875 356.58792 285.625Q356.58792 286.21875 356.27542 286.65625Q355.96292 287.09375 355.3223 287.34375Q356.11917 287.59375 356.52542 288.17188Q356.93167 288.75 356.93167 289.54688Q356.93167 290.64062 356.15042 291.39062Q355.3848 292.14062 354.10355 292.14062Q352.83792 292.14062 352.05667 291.39062Q351.27542 290.64062 351.27542 289.51562Q351.27542 288.67188 351.6973 288.10938Q352.1348 287.54688 352.91605 287.34375ZM352.6973 285.54688Q352.6973 286.15625 353.08792 286.54688Q353.49417 286.9375 354.11917 286.9375Q354.72855 286.9375 355.11917 286.5625Q355.5098 286.17188 355.5098 285.60938Q355.5098 285.03125 355.10355 284.64062Q354.6973 284.23438 354.10355 284.23438Q353.49417 284.23438 353.08792 284.625Q352.6973 285.01562 352.6973 285.54688ZM352.36917 289.51562Q352.36917 289.96875 352.5723 290.39062Q352.79105 290.8125 353.21292 291.04688Q353.6348 291.28125 354.11917 291.28125Q354.86917 291.28125 355.35355 290.79688Q355.85355 290.3125 355.85355 289.5625Q355.85355 288.79688 355.35355 288.29688Q354.85355 287.79688 354.08792 287.79688Q353.33792 287.79688 352.85355 288.29688Q352.36917 288.78125 352.36917 289.51562Z"
     fill-rule="nonzero"
     id="path90" />
  <path
     fill="#000000"
     d="M400.0802 287.34375Q399.42395 287.09375 399.09583 286.65625Q398.78333 286.20312 398.78333 285.59375Q398.78333 284.65625 399.4552 284.01562Q400.1427 283.375 401.25208 283.375Q402.37708 283.375 403.06458 284.03125Q403.75208 284.6875 403.75208 285.625Q403.75208 286.21875 403.43958 286.65625Q403.12708 287.09375 402.48645 287.34375Q403.28333 287.59375 403.68958 288.17188Q404.09583 288.75 404.09583 289.54688Q404.09583 290.64062 403.31458 291.39062Q402.54895 292.14062 401.2677 292.14062Q400.00208 292.14062 399.22083 291.39062Q398.43958 290.64062 398.43958 289.51562Q398.43958 288.67188 398.86145 288.10938Q399.29895 287.54688 400.0802 287.34375ZM399.86145 285.54688Q399.86145 286.15625 400.25208 286.54688Q400.65833 286.9375 401.28333 286.9375Q401.8927 286.9375 402.28333 286.5625Q402.67395 286.17188 402.67395 285.60938Q402.67395 285.03125 402.2677 284.64062Q401.86145 284.23438 401.2677 284.23438Q400.65833 284.23438 400.25208 284.625Q399.86145 285.01562 399.86145 285.54688ZM399.53333 289.51562Q399.53333 289.96875 399.73645 290.39062Q399.9552 290.8125 400.37708 291.04688Q400.79895 291.28125 401.28333 291.28125Q402.03333 291.28125 402.5177 290.79688Q403.0177 290.3125 403.0177 289.5625Q403.0177 288.79688 402.5177 288.29688Q402.0177 287.79688 401.25208 287.79688Q400.50208 287.79688 400.0177 288.29688Q399.53333 288.78125 399.53333 289.51562ZM406.04895 292.0L406.04895 290.79688L407.25208 290.79688L407.25208 292.0L406.04895 292.0ZM408.4552 287.76562Q408.4552 286.23438 408.7677 285.3125Q409.0802 284.375 409.68958 283.875Q410.31458 283.375 411.25208 283.375Q411.93958 283.375 412.4552 283.65625Q412.98645 283.9375 413.3302 284.46875Q413.67395 284.98438 413.86145 285.73438Q414.04895 286.48438 414.04895 287.76562Q414.04895 289.28125 413.73645 290.20312Q413.43958 291.125 412.81458 291.64062Q412.2052 292.14062 411.25208 292.14062Q410.0177 292.14062 409.29895 291.25Q408.4552 290.1875 408.4552 287.76562ZM409.53333 287.76562Q409.53333 289.875 410.03333 290.57812Q410.53333 291.28125 411.25208 291.28125Q411.98645 291.28125 412.47083 290.57812Q412.97083 289.875 412.97083 287.76562Q412.97083 285.64062 412.47083 284.95312Q411.98645 284.25 411.23645 284.25Q410.5177 284.25 410.0802 284.85938Q409.53333 285.64062 409.53333 287.76562ZM415.4552 287.76562Q415.4552 286.23438 415.7677 285.3125Q416.0802 284.375 416.68958 283.875Q417.31458 283.375 418.25208 283.375Q418.93958 283.375 419.4552 283.65625Q419.98645 283.9375 420.3302 284.46875Q420.67395 284.98438 420.86145 285.73438Q421.04895 286.48438 421.04895 287.76562Q421.04895 289.28125 420.73645 290.20312Q420.43958 291.125 419.81458 291.64062Q419.2052 292.14062 418.25208 292.14062Q417.0177 292.14062 416.29895 291.25Q415.4552 290.1875 415.4552 287.76562ZM416.53333 287.76562Q416.53333 289.875 417.03333 290.57812Q417.53333 291.28125 418.25208 291.28125Q418.98645 291.28125 419.47083 290.57812Q419.97083 289.875 419.97083 287.76562Q419.97083 285.64062 419.47083 284.95312Q418.98645 284.25 418.23645 284.25Q417.5177 284.25 417.0802 284.85938Q416.53333 285.64062 416.53333 287.76562ZM422.90833 292.0L422.90833 283.40625L429.11145 283.40625L429.11145 284.42188L424.04895 284.42188L424.04895 287.04688L428.79895 287.04688L428.79895 288.0625L424.04895 288.0625L424.04895 290.98438L429.31458 290.98438L429.31458 292.0L422.90833 292.0ZM432.9552 290.60938L432.9552 288.25L430.62708 288.25L430.62708 287.26562L432.9552 287.26562L432.9552 284.9375L433.9552 284.9375L433.9552 287.26562L436.29895 287.26562L436.29895 288.25L433.9552 288.25L433.9552 290.60938L432.9552 290.60938ZM437.4552 287.76562Q437.4552 286.23438 437.7677 285.3125Q438.0802 284.375 438.68958 283.875Q439.31458 283.375 440.25208 283.375Q440.93958 283.375 441.4552 283.65625Q441.98645 283.9375 442.3302 284.46875Q442.67395 284.98438 442.86145 285.73438Q443.04895 286.48438 443.04895 287.76562Q443.04895 289.28125 442.73645 290.20312Q442.43958 291.125 441.81458 291.64062Q441.2052 292.14062 440.25208 292.14062Q439.0177 292.14062 438.29895 291.25Q437.4552 290.1875 437.4552 287.76562ZM438.53333 287.76562Q438.53333 289.875 439.03333 290.57812Q439.53333 291.28125 440.25208 291.28125Q440.98645 291.28125 441.47083 290.57812Q441.97083 289.875 441.97083 287.76562Q441.97083 285.64062 441.47083 284.95312Q440.98645 284.25 440.23645 284.25Q439.5177 284.25 439.0802 284.85938Q438.53333 285.64062 438.53333 287.76562ZM446.0802 287.34375Q445.42395 287.09375 445.09583 286.65625Q444.78333 286.20312 444.78333 285.59375Q444.78333 284.65625 445.4552 284.01562Q446.1427 283.375 447.25208 283.375Q448.37708 283.375 449.06458 284.03125Q449.75208 284.6875 449.75208 285.625Q449.75208 286.21875 449.43958 286.65625Q449.12708 287.09375 448.48645 287.34375Q449.28333 287.59375 449.68958 288.17188Q450.09583 288.75 450.09583 289.54688Q450.09583 290.64062 449.31458 291.39062Q448.54895 292.14062 447.2677 292.14062Q446.00208 292.14062 445.22083 291.39062Q444.43958 290.64062 444.43958 289.51562Q444.43958 288.67188 444.86145 288.10938Q445.29895 287.54688 446.0802 287.34375ZM445.86145 285.54688Q445.86145 286.15625 446.25208 286.54688Q446.65833 286.9375 447.28333 286.9375Q447.8927 286.9375 448.28333 286.5625Q448.67395 286.17188 448.67395 285.60938Q448.67395 285.03125 448.2677 284.64062Q447.86145 284.23438 447.2677 284.23438Q446.65833 284.23438 446.25208 284.625Q445.86145 285.01562 445.86145 285.54688ZM445.53333 289.51562Q445.53333 289.96875 445.73645 290.39062Q445.9552 290.8125 446.37708 291.04688Q446.79895 291.28125 447.28333 291.28125Q448.03333 291.28125 448.5177 290.79688Q449.0177 290.3125 449.0177 289.5625Q449.0177 288.79688 448.5177 288.29688Q448.0177 287.79688 447.25208 287.79688Q446.50208 287.79688 446.0177 288.29688Q445.53333 288.78125 445.53333 289.51562Z"
     fill-rule="nonzero"
     id="path92" />
  <path
     fill="#4285f4"
     d="M156.0 346.4C156.0 349.7137 153.3137 352.4 150.0 352.4C146.6863 352.4 144.0 349.7137 144.0 346.4C144.0 343.0863 146.6863 340.4 150.0 340.4C153.3137 340.4 156.0 343.0863 156.0 346.4Z"
     fill-rule="nonzero"
     id="path94" />
  <path
     fill="#1a1a1a"
     d="M164.375 348.54062L165.40625 348.38437Q165.5 349.00937 165.89062 349.3375Q166.29688 349.66562 167.03125 349.66562Q167.75 349.66562 168.09375 349.38437Q168.45312 349.0875 168.45312 348.68124Q168.45312 348.32187 168.14062 348.11874Q167.92188 347.97812 167.0625 347.75937Q165.90625 347.4625 165.45312 347.25937Q165.01562 347.04062 164.78125 346.66562Q164.54688 346.29062 164.54688 345.82187Q164.54688 345.41562 164.73438 345.05624Q164.92188 344.69687 165.25 344.4625Q165.5 344.29062 165.92188 344.16562Q166.34375 344.04062 166.84375 344.04062Q167.5625 344.04062 168.10938 344.25937Q168.67188 344.4625 168.9375 344.82187Q169.20312 345.18124 169.29688 345.775L168.26562 345.91562Q168.20312 345.44687 167.85938 345.18124Q167.53125 344.9 166.90625 344.9Q166.1875 344.9 165.875 345.15Q165.5625 345.38437 165.5625 345.7125Q165.5625 345.91562 165.6875 346.07187Q165.82812 346.24374 166.09375 346.35312Q166.25 346.41562 167.03125 346.61874Q168.15625 346.93124 168.59375 347.11874Q169.03125 347.30624 169.28125 347.66562Q169.53125 348.025 169.53125 348.57187Q169.53125 349.10312 169.21875 349.57187Q168.92188 350.025 168.34375 350.29062Q167.76562 350.54062 167.03125 350.54062Q165.8125 350.54062 165.17188 350.04062Q164.54688 349.525 164.375 348.54062ZM176.04688 348.4L177.14062 348.525Q176.89062 349.47812 176.1875 350.00937Q175.48438 350.54062 174.40625 350.54062Q173.04688 350.54062 172.23438 349.69687Q171.4375 348.85312 171.4375 347.3375Q171.4375 345.775 172.25 344.91562Q173.0625 344.04062 174.34375 344.04062Q175.59375 344.04062 176.375 344.88437Q177.17188 345.72812 177.17188 347.275Q177.17188 347.36874 177.17188 347.55624L172.53125 347.55624Q172.59375 348.5875 173.10938 349.13437Q173.625 349.66562 174.40625 349.66562Q174.98438 349.66562 175.39062 349.36874Q175.8125 349.05624 176.04688 348.4ZM172.59375 346.69687L176.0625 346.69687Q176.0 345.9 175.67188 345.50937Q175.15625 344.9 174.35938 344.9Q173.625 344.9 173.125 345.38437Q172.64062 345.86874 172.59375 346.69687ZM178.875 350.4L178.875 341.80624L180.01562 341.80624L180.01562 349.38437L184.25 349.38437L184.25 350.4L178.875 350.4ZM188.875 350.4L188.875 348.3375L185.15625 348.3375L185.15625 347.36874L189.07812 341.80624L189.9375 341.80624L189.9375 347.36874L191.09375 347.36874L191.09375 348.3375L189.9375 348.3375L189.9375 350.4L188.875 350.4ZM188.875 347.36874L188.875 343.50937L186.1875 347.36874L188.875 347.36874ZM199.85938 349.63437Q199.26562 350.13437 198.71875 350.3375Q198.1875 350.54062 197.5625 350.54062Q196.53125 350.54062 195.98438 350.04062Q195.4375 349.54062 195.4375 348.75937Q195.4375 348.30624 195.64062 347.93124Q195.84375 347.54062 196.1875 347.32187Q196.53125 347.0875 196.95312 346.97812Q197.25 346.88437 197.89062 346.80624Q199.15625 346.66562 199.76562 346.44687Q199.76562 346.22812 199.76562 346.18124Q199.76562 345.525 199.46875 345.25937Q199.0625 344.91562 198.26562 344.91562Q197.53125 344.91562 197.17188 345.18124Q196.8125 345.43124 196.64062 346.0875L195.60938 345.94687Q195.75 345.29062 196.07812 344.88437Q196.40625 344.47812 197.01562 344.25937Q197.625 344.04062 198.42188 344.04062Q199.21875 344.04062 199.71875 344.22812Q200.21875 344.41562 200.45312 344.69687Q200.6875 344.97812 200.78125 345.41562Q200.82812 345.68124 200.82812 346.38437L200.82812 347.79062Q200.82812 349.25937 200.89062 349.65Q200.96875 350.04062 201.17188 350.4L200.0625 350.4Q199.90625 350.07187 199.85938 349.63437ZM199.76562 347.275Q199.1875 347.50937 198.04688 347.68124Q197.39062 347.775 197.125 347.9Q196.85938 348.00937 196.70312 348.22812Q196.5625 348.44687 196.5625 348.72812Q196.5625 349.15 196.875 349.43124Q197.20312 349.7125 197.8125 349.7125Q198.42188 349.7125 198.89062 349.44687Q199.375 349.18124 199.59375 348.7125Q199.76562 348.35312 199.76562 347.66562L199.76562 347.275ZM204.51562 350.4L202.15625 344.18124L203.26562 344.18124L204.60938 347.9Q204.8125 348.50937 205.0 349.15Q205.14062 348.66562 205.39062 347.97812L206.78125 344.18124L207.85938 344.18124L205.5 350.4L204.51562 350.4ZM212.04688 348.4L213.14062 348.525Q212.89062 349.47812 212.1875 350.00937Q211.48438 350.54062 210.40625 350.54062Q209.04688 350.54062 208.23438 349.69687Q207.4375 348.85312 207.4375 347.3375Q207.4375 345.775 208.25 344.91562Q209.0625 344.04062 210.34375 344.04062Q211.59375 344.04062 212.375 344.88437Q213.17188 345.72812 213.17188 347.275Q213.17188 347.36874 213.17188 347.55624L208.53125 347.55624Q208.59375 348.5875 209.10938 349.13437Q209.625 349.66562 210.40625 349.66562Q210.98438 349.66562 211.39062 349.36874Q211.8125 349.05624 212.04688 348.4ZM208.59375 346.69687L212.0625 346.69687Q212.0 345.9 211.67188 345.50937Q211.15625 344.9 210.35938 344.9Q209.625 344.9 209.125 345.38437Q208.64062 345.86874 208.59375 346.69687ZM214.78125 350.4L214.78125 344.18124L215.73438 344.18124L215.73438 345.11874Q216.09375 344.4625 216.39062 344.25937Q216.70312 344.04062 217.07812 344.04062Q217.60938 344.04062 218.15625 344.36874L217.79688 345.35312Q217.40625 345.11874 217.03125 345.11874Q216.67188 345.11874 216.39062 345.3375Q216.125 345.54062 216.01562 345.91562Q215.82812 346.47812 215.82812 347.13437L215.82812 350.4L214.78125 350.4ZM222.85938 349.63437Q222.26562 350.13437 221.71875 350.3375Q221.1875 350.54062 220.5625 350.54062Q219.53125 350.54062 218.98438 350.04062Q218.4375 349.54062 218.4375 348.75937Q218.4375 348.30624 218.64062 347.93124Q218.84375 347.54062 219.1875 347.32187Q219.53125 347.0875 219.95312 346.97812Q220.25 346.88437 220.89062 346.80624Q222.15625 346.66562 222.76562 346.44687Q222.76562 346.22812 222.76562 346.18124Q222.76562 345.525 222.46875 345.25937Q222.0625 344.91562 221.26562 344.91562Q220.53125 344.91562 220.17188 345.18124Q219.8125 345.43124 219.64062 346.0875L218.60938 345.94687Q218.75 345.29062 219.07812 344.88437Q219.40625 344.47812 220.01562 344.25937Q220.625 344.04062 221.42188 344.04062Q222.21875 344.04062 222.71875 344.22812Q223.21875 344.41562 223.45312 344.69687Q223.6875 344.97812 223.78125 345.41562Q223.82812 345.68124 223.82812 346.38437L223.82812 347.79062Q223.82812 349.25937 223.89062 349.65Q223.96875 350.04062 224.17188 350.4L223.0625 350.4Q222.90625 350.07187 222.85938 349.63437ZM222.76562 347.275Q222.1875 347.50937 221.04688 347.68124Q220.39062 347.775 220.125 347.9Q219.85938 348.00937 219.70312 348.22812Q219.5625 348.44687 219.5625 348.72812Q219.5625 349.15 219.875 349.43124Q220.20312 349.7125 220.8125 349.7125Q221.42188 349.7125 221.89062 349.44687Q222.375 349.18124 222.59375 348.7125Q222.76562 348.35312 222.76562 347.66562L222.76562 347.275ZM225.59375 350.91562L226.625 351.07187Q226.6875 351.54062 226.98438 351.75937Q227.375 352.05624 228.04688 352.05624Q228.78125 352.05624 229.17188 351.75937Q229.57812 351.4625 229.71875 350.94687Q229.8125 350.61874 229.79688 349.5875Q229.10938 350.4 228.07812 350.4Q226.79688 350.4 226.09375 349.47812Q225.39062 348.54062 225.39062 347.25937Q225.39062 346.36874 225.70312 345.61874Q226.03125 344.85312 226.64062 344.44687Q227.25 344.04062 228.07812 344.04062Q229.1875 344.04062 229.90625 344.93124L229.90625 344.18124L230.875 344.18124L230.875 349.55624Q230.875 351.00937 230.57812 351.61874Q230.28125 352.22812 229.64062 352.57187Q229.0 352.93124 228.0625 352.93124Q226.95312 352.93124 226.26562 352.43124Q225.57812 351.93124 225.59375 350.91562ZM226.46875 347.18124Q226.46875 348.4 226.95312 348.9625Q227.4375 349.525 228.17188 349.525Q228.90625 349.525 229.39062 348.9625Q229.89062 348.4 229.89062 347.2125Q229.89062 346.07187 229.375 345.49374Q228.875 344.91562 228.15625 344.91562Q227.45312 344.91562 226.95312 345.49374Q226.46875 346.05624 226.46875 347.18124ZM237.04688 348.4L238.14062 348.525Q237.89062 349.47812 237.1875 350.00937Q236.48438 350.54062 235.40625 350.54062Q234.04688 350.54062 233.23438 349.69687Q232.4375 348.85312 232.4375 347.3375Q232.4375 345.775 233.25 344.91562Q234.0625 344.04062 235.34375 344.04062Q236.59375 344.04062 237.375 344.88437Q238.17188 345.72812 238.17188 347.275Q238.17188 347.36874 238.17188 347.55624L233.53125 347.55624Q233.59375 348.5875 234.10938 349.13437Q234.625 349.66562 235.40625 349.66562Q235.98438 349.66562 236.39062 349.36874Q236.8125 349.05624 237.04688 348.4ZM233.59375 346.69687L237.0625 346.69687Q237.0 345.9 236.67188 345.50937Q236.15625 344.9 235.35938 344.9Q234.625 344.9 234.125 345.38437Q233.64062 345.86874 233.59375 346.69687ZM242.9375 350.4L242.9375 341.80624L246.75 341.80624Q247.90625 341.80624 248.5 342.04062Q249.09375 342.275 249.45312 342.86874Q249.8125 343.44687 249.8125 344.15Q249.8125 345.07187 249.21875 345.69687Q248.625 346.32187 247.39062 346.49374Q247.84375 346.7125 248.07812 346.91562Q248.57812 347.36874 249.01562 348.05624L250.51562 350.4L249.07812 350.4L247.95312 348.61874Q247.45312 347.8375 247.125 347.43124Q246.8125 347.025 246.54688 346.86874Q246.29688 346.69687 246.03125 346.61874Q245.84375 346.5875 245.40625 346.5875L244.07812 346.5875L244.07812 350.4L242.9375 350.4ZM244.07812 345.60312L246.53125 345.60312Q247.29688 345.60312 247.73438 345.44687Q248.1875 345.275 248.40625 344.93124Q248.64062 344.57187 248.64062 344.15Q248.64062 343.54062 248.1875 343.15Q247.75 342.75937 246.79688 342.75937L244.07812 342.75937L244.07812 345.60312ZM254.10938 350.4L254.10938 342.82187L251.28125 342.82187L251.28125 341.80624L258.09375 341.80624L258.09375 342.82187L255.25 342.82187L255.25 350.4L254.10938 350.4ZM261.10938 350.4L261.10938 342.82187L258.28125 342.82187L258.28125 341.80624L265.09375 341.80624L265.09375 342.82187L262.25 342.82187L262.25 350.4L261.10938 350.4Z"
     fill-rule="nonzero"
     id="path96" />
  <path
     fill="#fbbc04"
     d="M293.0 346.4C293.0 349.7137 290.31372 352.4 287.0 352.4C283.68628 352.4 281.0 349.7137 281.0 346.4C281.0 343.0863 283.68628 340.4 287.0 340.4C290.31372 340.4 293.0 343.0863 293.0 346.4Z"
     fill-rule="nonzero"
     id="path98" />
  <path
     fill="#1a1a1a"
     d="M301.76562 350.4L301.76562 341.80624L302.82812 341.80624L302.82812 350.4L301.76562 350.4ZM304.79688 343.025L304.79688 341.80624L305.85938 341.80624L305.85938 343.025L304.79688 343.025ZM304.79688 350.4L304.79688 344.18124L305.85938 344.18124L305.85938 350.4L304.79688 350.4ZM307.79688 350.4L307.79688 344.18124L308.73438 344.18124L308.73438 345.05624Q309.42188 344.04062 310.71875 344.04062Q311.28125 344.04062 311.75 344.24374Q312.23438 344.44687 312.46875 344.775Q312.70312 345.10312 312.79688 345.54062Q312.84375 345.8375 312.84375 346.57187L312.84375 350.4L311.79688 350.4L311.79688 346.61874Q311.79688 345.9625 311.67188 345.65Q311.54688 345.3375 311.23438 345.15Q310.92188 344.94687 310.5 344.94687Q309.82812 344.94687 309.32812 345.38437Q308.84375 345.80624 308.84375 346.99374L308.84375 350.4L307.79688 350.4ZM318.875 350.4L318.875 349.47812Q318.14062 350.54062 316.89062 350.54062Q316.34375 350.54062 315.85938 350.3375Q315.39062 350.11874 315.15625 349.80624Q314.92188 349.47812 314.82812 349.00937Q314.76562 348.7125 314.76562 348.025L314.76562 344.18124L315.82812 344.18124L315.82812 347.63437Q315.82812 348.44687 315.89062 348.74374Q315.98438 349.15 316.29688 349.4Q316.625 349.63437 317.10938 349.63437Q317.57812 349.63437 317.98438 349.4Q318.40625 349.15 318.57812 348.72812Q318.76562 348.30624 318.76562 347.50937L318.76562 344.18124L319.8125 344.18124L319.8125 350.4L318.875 350.4ZM321.09375 350.4L323.35938 347.16562L321.26562 344.18124L322.57812 344.18124L323.53125 345.63437Q323.79688 346.05624 323.96875 346.3375Q324.21875 345.94687 324.4375 345.65L325.48438 344.18124L326.75 344.18124L324.59375 347.10312L326.90625 350.4L325.625 350.4L324.34375 348.4625L324.0 347.94687L322.35938 350.4L321.09375 350.4ZM333.85938 349.63437Q333.26562 350.13437 332.71875 350.3375Q332.1875 350.54062 331.5625 350.54062Q330.53125 350.54062 329.98438 350.04062Q329.4375 349.54062 329.4375 348.75937Q329.4375 348.30624 329.64062 347.93124Q329.84375 347.54062 330.1875 347.32187Q330.53125 347.0875 330.95312 346.97812Q331.25 346.88437 331.89062 346.80624Q333.15625 346.66562 333.76562 346.44687Q333.76562 346.22812 333.76562 346.18124Q333.76562 345.525 333.46875 345.25937Q333.0625 344.91562 332.26562 344.91562Q331.53125 344.91562 331.17188 345.18124Q330.8125 345.43124 330.64062 346.0875L329.60938 345.94687Q329.75 345.29062 330.07812 344.88437Q330.40625 344.47812 331.01562 344.25937Q331.625 344.04062 332.42188 344.04062Q333.21875 344.04062 333.71875 344.22812Q334.21875 344.41562 334.45312 344.69687Q334.6875 344.97812 334.78125 345.41562Q334.82812 345.68124 334.82812 346.38437L334.82812 347.79062Q334.82812 349.25937 334.89062 349.65Q334.96875 350.04062 335.17188 350.4L334.0625 350.4Q333.90625 350.07187 333.85938 349.63437ZM333.76562 347.275Q333.1875 347.50937 332.04688 347.68124Q331.39062 347.775 331.125 347.9Q330.85938 348.00937 330.70312 348.22812Q330.5625 348.44687 330.5625 348.72812Q330.5625 349.15 330.875 349.43124Q331.20312 349.7125 331.8125 349.7125Q332.42188 349.7125 332.89062 349.44687Q333.375 349.18124 333.59375 348.7125Q333.76562 348.35312 333.76562 347.66562L333.76562 347.275ZM338.51562 350.4L336.15625 344.18124L337.26562 344.18124L338.60938 347.9Q338.8125 348.50937 339.0 349.15Q339.14062 348.66562 339.39062 347.97812L340.78125 344.18124L341.85938 344.18124L339.5 350.4L338.51562 350.4ZM346.04688 348.4L347.14062 348.525Q346.89062 349.47812 346.1875 350.00937Q345.48438 350.54062 344.40625 350.54062Q343.04688 350.54062 342.23438 349.69687Q341.4375 348.85312 341.4375 347.3375Q341.4375 345.775 342.25 344.91562Q343.0625 344.04062 344.34375 344.04062Q345.59375 344.04062 346.375 344.88437Q347.17188 345.72812 347.17188 347.275Q347.17188 347.36874 347.17188 347.55624L342.53125 347.55624Q342.59375 348.5875 343.10938 349.13437Q343.625 349.66562 344.40625 349.66562Q344.98438 349.66562 345.39062 349.36874Q345.8125 349.05624 346.04688 348.4ZM342.59375 346.69687L346.0625 346.69687Q346.0 345.9 345.67188 345.50937Q345.15625 344.9 344.35938 344.9Q343.625 344.9 343.125 345.38437Q342.64062 345.86874 342.59375 346.69687ZM348.78125 350.4L348.78125 344.18124L349.73438 344.18124L349.73438 345.11874Q350.09375 344.4625 350.39062 344.25937Q350.70312 344.04062 351.07812 344.04062Q351.60938 344.04062 352.15625 344.36874L351.79688 345.35312Q351.40625 345.11874 351.03125 345.11874Q350.67188 345.11874 350.39062 345.3375Q350.125 345.54062 350.01562 345.91562Q349.82812 346.47812 349.82812 347.13437L349.82812 350.4L348.78125 350.4ZM356.85938 349.63437Q356.26562 350.13437 355.71875 350.3375Q355.1875 350.54062 354.5625 350.54062Q353.53125 350.54062 352.98438 350.04062Q352.4375 349.54062 352.4375 348.75937Q352.4375 348.30624 352.64062 347.93124Q352.84375 347.54062 353.1875 347.32187Q353.53125 347.0875 353.95312 346.97812Q354.25 346.88437 354.89062 346.80624Q356.15625 346.66562 356.76562 346.44687Q356.76562 346.22812 356.76562 346.18124Q356.76562 345.525 356.46875 345.25937Q356.0625 344.91562 355.26562 344.91562Q354.53125 344.91562 354.17188 345.18124Q353.8125 345.43124 353.64062 346.0875L352.60938 345.94687Q352.75 345.29062 353.07812 344.88437Q353.40625 344.47812 354.01562 344.25937Q354.625 344.04062 355.42188 344.04062Q356.21875 344.04062 356.71875 344.22812Q357.21875 344.41562 357.45312 344.69687Q357.6875 344.97812 357.78125 345.41562Q357.82812 345.68124 357.82812 346.38437L357.82812 347.79062Q357.82812 349.25937 357.89062 349.65Q357.96875 350.04062 358.17188 350.4L357.0625 350.4Q356.90625 350.07187 356.85938 349.63437ZM356.76562 347.275Q356.1875 347.50937 355.04688 347.68124Q354.39062 347.775 354.125 347.9Q353.85938 348.00937 353.70312 348.22812Q353.5625 348.44687 353.5625 348.72812Q353.5625 349.15 353.875 349.43124Q354.20312 349.7125 354.8125 349.7125Q355.42188 349.7125 355.89062 349.44687Q356.375 349.18124 356.59375 348.7125Q356.76562 348.35312 356.76562 347.66562L356.76562 347.275ZM359.59375 350.91562L360.625 351.07187Q360.6875 351.54062 360.98438 351.75937Q361.375 352.05624 362.04688 352.05624Q362.78125 352.05624 363.17188 351.75937Q363.57812 351.4625 363.71875 350.94687Q363.8125 350.61874 363.79688 349.5875Q363.10938 350.4 362.07812 350.4Q360.79688 350.4 360.09375 349.47812Q359.39062 348.54062 359.39062 347.25937Q359.39062 346.36874 359.70312 345.61874Q360.03125 344.85312 360.64062 344.44687Q361.25 344.04062 362.07812 344.04062Q363.1875 344.04062 363.90625 344.93124L363.90625 344.18124L364.875 344.18124L364.875 349.55624Q364.875 351.00937 364.57812 351.61874Q364.28125 352.22812 363.64062 352.57187Q363.0 352.93124 362.0625 352.93124Q360.95312 352.93124 360.26562 352.43124Q359.57812 351.93124 359.59375 350.91562ZM360.46875 347.18124Q360.46875 348.4 360.95312 348.9625Q361.4375 349.525 362.17188 349.525Q362.90625 349.525 363.39062 348.9625Q363.89062 348.4 363.89062 347.2125Q363.89062 346.07187 363.375 345.49374Q362.875 344.91562 362.15625 344.91562Q361.45312 344.91562 360.95312 345.49374Q360.46875 346.05624 360.46875 347.18124ZM371.04688 348.4L372.14062 348.525Q371.89062 349.47812 371.1875 350.00937Q370.48438 350.54062 369.40625 350.54062Q368.04688 350.54062 367.23438 349.69687Q366.4375 348.85312 366.4375 347.3375Q366.4375 345.775 367.25 344.91562Q368.0625 344.04062 369.34375 344.04062Q370.59375 344.04062 371.375 344.88437Q372.17188 345.72812 372.17188 347.275Q372.17188 347.36874 372.17188 347.55624L367.53125 347.55624Q367.59375 348.5875 368.10938 349.13437Q368.625 349.66562 369.40625 349.66562Q369.98438 349.66562 370.39062 349.36874Q370.8125 349.05624 371.04688 348.4ZM367.59375 346.69687L371.0625 346.69687Q371.0 345.9 370.67188 345.50937Q370.15625 344.9 369.35938 344.9Q368.625 344.9 368.125 345.38437Q367.64062 345.86874 367.59375 346.69687ZM376.9375 350.4L376.9375 341.80624L380.75 341.80624Q381.90625 341.80624 382.5 342.04062Q383.09375 342.275 383.45312 342.86874Q383.8125 343.44687 383.8125 344.15Q383.8125 345.07187 383.21875 345.69687Q382.625 346.32187 381.39062 346.49374Q381.84375 346.7125 382.07812 346.91562Q382.57812 347.36874 383.01562 348.05624L384.51562 350.4L383.07812 350.4L381.95312 348.61874Q381.45312 347.8375 381.125 347.43124Q380.8125 347.025 380.54688 346.86874Q380.29688 346.69687 380.03125 346.61874Q379.84375 346.5875 379.40625 346.5875L378.07812 346.5875L378.07812 350.4L376.9375 350.4ZM378.07812 345.60312L380.53125 345.60312Q381.29688 345.60312 381.73438 345.44687Q382.1875 345.275 382.40625 344.93124Q382.64062 344.57187 382.64062 344.15Q382.64062 343.54062 382.1875 343.15Q381.75 342.75937 380.79688 342.75937L378.07812 342.75937L378.07812 345.60312ZM388.10938 350.4L388.10938 342.82187L385.28125 342.82187L385.28125 341.80624L392.09375 341.80624L392.09375 342.82187L389.25 342.82187L389.25 350.4L388.10938 350.4ZM395.10938 350.4L395.10938 342.82187L392.28125 342.82187L392.28125 341.80624L399.09375 341.80624L399.09375 342.82187L396.25 342.82187L396.25 350.4L395.10938 350.4Z"
     fill-rule="nonzero"
     id="path100" />
</svg>
