<svg width="2108" height="651" xmlns="http://www.w3.org/2000/svg" xmlns:xlink="http://www.w3.org/1999/xlink" xml:space="preserve" overflow="hidden"><g transform="translate(-554 -1113)"><g><rect x="2514" y="1289" width="95.0002" height="281" fill="#000000" fill-opacity="1"/><text fill="#000000" fill-opacity="1" font-family="Roboto,Roboto_MSFontService,sans-serif" font-style="normal" font-variant="normal" font-weight="400" font-stretch="normal" font-size="64" text-anchor="start" direction="ltr" writing-mode="lr-tb" unicode-bidi="normal" text-decoration="none" transform="matrix(1 0 0 1 2508.22 1258)">NIC</text><rect x="2115" y="1287" width="249" height="281" fill="#FFD372" fill-opacity="1"/><text fill="#000000" fill-opacity="1" font-family="Roboto,Roboto_MSFontService,sans-serif" font-style="normal" font-variant="normal" font-weight="400" font-stretch="normal" font-size="55" text-anchor="start" direction="ltr" writing-mode="lr-tb" unicode-bidi="normal" text-decoration="none" transform="matrix(1 0 0 1 2174.95 1446)">Driver</text><path d="M1950.25 1220.33 2091.35 1393.28 2086.03 1397.63 1944.92 1224.68ZM1946.89 1244.39 1943.49 1217.48 1969.16 1226.21 1969.16 1226.21C1970.96 1226.83 1971.92 1228.78 1971.31 1230.58 1970.7 1232.37 1968.74 1233.33 1966.95 1232.72L1946.48 1225.76 1951 1222.08 1953.71 1243.53C1953.95 1245.41 1952.61 1247.13 1950.73 1247.37 1948.84 1247.6 1947.12 1246.27 1946.89 1244.39ZM2103.55 1377.42 2114.77 1427.42 2068.04 1406.39Z" fill="#000000" fill-rule="nonzero" fill-opacity="1"/><path d="M6.68628 2.97758 146.208 181.66 140.789 185.892 1.26752 7.20873ZM2.81024 26.9536-0.0143782-0.0184136 25.4679 9.26181C27.2518 9.91147 28.1712 11.8842 27.5216 13.6681 26.8719 15.452 24.8992 16.3714 23.1153 15.7218L23.1153 15.7218 2.80097 8.32361 7.39608 4.73561 9.64785 26.2376C9.84558 28.1257 8.47523 29.8167 6.58708 30.0144 4.69892 30.2121 3.00798 28.8418 2.81024 26.9536ZM158.74 166.06 168.885 216.289 122.615 194.267Z" fill="#000000" fill-rule="nonzero" fill-opacity="1" transform="matrix(-1 0 0 1 2115.39 1427.5)"/><path d="M1495.78 1302.61 1779.13 1592.74 1774.21 1597.54 1490.86 1307.41ZM1480.13 1324.3 1464.5 1275.5 1512.92 1292.28ZM1775.42 1573.29 1781.2 1599.78 1754.85 1593.37C1753.01 1592.92 1751.87 1591.06 1752.32 1589.22 1752.77 1587.38 1754.63 1586.24 1756.48 1586.69L1777.48 1591.8 1773.31 1595.88 1768.7 1574.75C1768.3 1572.9 1769.47 1571.07 1771.33 1570.66 1773.18 1570.26 1775.01 1571.43 1775.42 1573.29Z" fill="#961800" fill-rule="nonzero" fill-opacity="1"/><path d="M6.94826 2.3059 292.894 302.203 287.918 306.947 1.97254 7.05015ZM5.45112 26.5458-0.0161219-0.0169089 26.2562 6.70857C28.0954 7.17938 29.2047 9.052 28.7339 10.8912 28.2631 12.7303 26.3905 13.8396 24.5513 13.3688L3.60711 8.00729 7.82651 3.98418 12.185 25.1598C12.5677 27.0193 11.3705 28.837 9.51103 29.2198 7.65153 29.6025 5.83384 28.4053 5.45112 26.5458ZM303.829 285.444 318.872 334.429 270.658 317.072Z" fill="#DEBDB9" fill-rule="nonzero" fill-opacity="1" transform="matrix(1 0 0 -1 1464.5 1599.93)"/><path d="M1505.75 1695.06 1774.53 1695.06 1774.53 1701.94 1505.75 1701.94ZM1510.33 1721.42 1464.5 1698.5 1510.33 1675.58ZM1758.02 1684.13 1781.01 1698.5 1758.02 1712.87C1756.41 1713.88 1754.28 1713.39 1753.28 1711.78 1752.27 1710.17 1752.76 1708.05 1754.37 1707.04L1772.7 1695.59 1772.7 1701.42 1754.37 1689.96C1752.76 1688.95 1752.27 1686.83 1753.28 1685.22 1754.28 1683.61 1756.41 1683.12 1758.02 1684.13Z" fill="#DEBDB9" fill-rule="nonzero" fill-opacity="1"/><path d="M1470.96 1162.06 1742.12 1162.06 1742.12 1168.94 1470.96 1168.94ZM1487.47 1179.87 1464.48 1165.5 1487.47 1151.13C1489.08 1150.12 1491.2 1150.61 1492.21 1152.22 1493.22 1153.83 1492.73 1155.95 1491.12 1156.96L1472.78 1168.42 1472.78 1162.59 1491.12 1174.04C1492.73 1175.05 1493.22 1177.17 1492.21 1178.78 1491.2 1180.39 1489.08 1180.88 1487.47 1179.87ZM1737.54 1142.58 1783.37 1165.5 1737.54 1188.42Z" fill="#961800" fill-rule="nonzero" fill-opacity="1"/><rect x="1249" y="1658" width="215" height="79.0001" fill="#DEBDB9" fill-opacity="1"/><text fill="#000000" fill-opacity="1" font-family="Roboto,Roboto_MSFontService,sans-serif" font-style="normal" font-variant="normal" font-weight="400" font-stretch="normal" font-size="55" text-anchor="start" direction="ltr" writing-mode="lr-tb" unicode-bidi="normal" text-decoration="none" transform="matrix(1 0 0 1 1294.94 1717)">Copy</text><path d="M6.46251-3.43748 92.5155-3.43725 92.5155 3.43775 6.46249 3.43752ZM22.9739 14.3734-0.0233616 1.11953e-07 22.974-14.3733C24.5839-15.3795 26.7047-14.89 27.7109-13.2801 28.7171-11.6702 28.2276-9.54945 26.6177-8.54327L8.28436 2.91502 8.28438-2.91497 26.6177 8.54341C28.2276 9.54961 28.717 11.6704 27.7108 13.2803 26.7046 14.8902 24.5838 15.3796 22.9739 14.3734ZM87.9322-22.9164 133.765 0.000360892 87.9321 22.9169Z" fill="#DEBDB9" fill-rule="nonzero" fill-opacity="1" transform="matrix(-1 0 0 1 1250.27 1698.5)"/><path d="M6.46243-3.43748 92.3188-3.43725 92.3188 3.43775 6.46241 3.43752ZM22.9739 14.3734-0.0233616 1.37638e-07 22.974-14.3733C24.5839-15.3795 26.7047-14.89 27.7109-13.2801 28.7171-11.6702 28.2276-9.54945 26.6177-8.54327L8.28436 2.91502 8.28438-2.91497 26.6177 8.54341C28.2276 9.54961 28.717 11.6704 27.7108 13.2803 26.7046 14.8902 24.5838 15.3796 22.9739 14.3734ZM87.7355-22.9164 133.569 0.000360892 87.7354 22.9169Z" fill="#961800" fill-rule="nonzero" fill-opacity="1" transform="matrix(-1 0 0 1 1250.07 1275.5)"/><rect x="1781" y="1560" width="165" height="167" fill="#CBE4AA" fill-opacity="1"/><text fill="#000000" fill-opacity="1" font-family="Roboto,Roboto_MSFontService,sans-serif" font-style="normal" font-variant="normal" font-weight="400" font-stretch="normal" font-size="55" text-anchor="start" direction="ltr" writing-mode="lr-tb" unicode-bidi="normal" text-decoration="none" transform="matrix(1 0 0 1 1832.57 1629)">Rx</text><text fill="#000000" fill-opacity="1" font-family="Roboto,Roboto_MSFontService,sans-serif" font-style="normal" font-variant="normal" font-weight="400" font-stretch="normal" font-size="55" text-anchor="start" direction="ltr" writing-mode="lr-tb" unicode-bidi="normal" text-decoration="none" transform="matrix(1 0 0 1 1821.11 1695)">Virt</text><rect x="1783" y="1124" width="160" height="187" fill="#CBE4AA" fill-opacity="1"/><text fill="#000000" fill-opacity="1" font-family="Roboto,Roboto_MSFontService,sans-serif" font-style="normal" font-variant="normal" font-weight="400" font-stretch="normal" font-size="55" text-anchor="start" direction="ltr" writing-mode="lr-tb" unicode-bidi="normal" text-decoration="none" transform="matrix(1 0 0 1 1833.15 1193)">Tx</text><text fill="#000000" fill-opacity="1" font-family="Roboto,Roboto_MSFontService,sans-serif" font-style="normal" font-variant="normal" font-weight="400" font-stretch="normal" font-size="55" text-anchor="start" direction="ltr" writing-mode="lr-tb" unicode-bidi="normal" text-decoration="none" transform="matrix(1 0 0 1 1821.11 1259)">Virt</text><rect x="1249" y="1365" width="208" height="145" fill="#47678B" fill-opacity="1"/><text fill="#FFFFFF" fill-opacity="1" font-family="Roboto,Roboto_MSFontService,sans-serif" font-style="normal" font-variant="normal" font-weight="400" font-stretch="normal" font-size="55" text-anchor="start" direction="ltr" writing-mode="lr-tb" unicode-bidi="normal" text-decoration="none" transform="matrix(1 0 0 1 1300.55 1456)">ARP</text><path d="M7.28064 0.758985 294.075 193.909 290.234 199.612 3.44022 6.46133ZM11.0263 24.7551-0.0193771-0.0130501 27.0844 0.911743C28.9818 0.976482 30.4674 2.56709 30.4027 4.46447 30.3379 6.36184 28.7473 7.84748 26.85 7.78275L5.24298 7.0455 8.49966 2.20993 17.3052 21.955 17.3052 21.955C18.0784 23.6889 17.2997 25.7213 15.5658 26.4945 13.8319 27.2678 11.7995 26.489 11.0263 24.7551ZM301.154 175.192 326.369 219.803 275.552 213.208Z" fill="#47678B" fill-rule="nonzero" fill-opacity="1" transform="matrix(1 0 0 -1 1457.5 1437.3)"/><path d="M1494.14 1456.76 1777.88 1637.53 1774.19 1643.33 1490.44 1462.56ZM1483.84 1481.45 1457.5 1437.5 1508.47 1442.8ZM1769.83 1619.43 1781.51 1643.91 1754.39 1643.68C1752.49 1643.66 1750.96 1642.11 1750.98 1640.21 1751 1638.31 1752.55 1636.79 1754.45 1636.8L1776.07 1636.99 1772.93 1641.91 1763.63 1622.39C1762.81 1620.68 1763.54 1618.63 1765.25 1617.81 1766.96 1616.99 1769.02 1617.72 1769.83 1619.43Z" fill="#47678B" fill-rule="nonzero" fill-opacity="1"/><rect x="559" y="1125" width="211" height="186" fill="#BC7268" fill-opacity="1"/><text fill="#000000" fill-opacity="1" font-family="Roboto,Roboto_MSFontService,sans-serif" font-style="normal" font-variant="normal" font-weight="400" font-stretch="normal" font-size="55" text-anchor="start" direction="ltr" writing-mode="lr-tb" unicode-bidi="normal" text-decoration="none" transform="matrix(1 0 0 1 595.023 1237)">Client</text><rect x="909" y="1560" width="208" height="169" fill="#DEBDB9" fill-opacity="1"/><text fill="#000000" fill-opacity="1" font-family="Roboto,Roboto_MSFontService,sans-serif" font-style="normal" font-variant="normal" font-weight="400" font-stretch="normal" font-size="55" text-anchor="start" direction="ltr" writing-mode="lr-tb" unicode-bidi="normal" text-decoration="none" transform="matrix(1 0 0 1 971.191 1664)">VM</text><path d="M2507.87 1470.94 2407.75 1470.94 2407.75 1464.06 2507.87 1464.06ZM2491.36 1453.13 2514.36 1467.5 2491.36 1481.87C2489.75 1482.88 2487.63 1482.39 2486.62 1480.78 2485.62 1479.17 2486.11 1477.05 2487.72 1476.04L2506.05 1464.59 2506.05 1470.42 2487.72 1458.96C2486.11 1457.95 2485.62 1455.83 2486.62 1454.22 2487.63 1452.61 2489.75 1452.12 2491.36 1453.13ZM2412.33 1490.42 2366.5 1467.5 2412.33 1444.58Z" fill="#000000" fill-rule="nonzero" fill-opacity="1"/><path d="M2372.96 1383.06 2473.08 1383.06 2473.08 1389.94 2372.96 1389.94ZM2389.47 1400.87 2366.48 1386.5 2389.47 1372.13C2391.08 1371.12 2393.2 1371.61 2394.21 1373.22 2395.22 1374.83 2394.73 1376.95 2393.12 1377.96L2374.78 1389.41 2374.78 1383.58 2393.12 1395.04C2394.73 1396.05 2395.22 1398.17 2394.21 1399.78 2393.2 1401.39 2391.08 1401.88 2389.47 1400.87ZM2468.5 1363.58 2514.33 1386.5 2468.5 1409.42Z" fill="#000000" fill-rule="nonzero" fill-opacity="1"/><rect x="1244" y="1560" width="220" height="79.0001" fill="#DEBDB9" fill-opacity="1"/><text fill="#000000" fill-opacity="1" font-family="Roboto,Roboto_MSFontService,sans-serif" font-style="normal" font-variant="normal" font-weight="400" font-stretch="normal" font-size="55" text-anchor="start" direction="ltr" writing-mode="lr-tb" unicode-bidi="normal" text-decoration="none" transform="matrix(1 0 0 1 1315.22 1618)">Val</text><path d="M1122.96 1596.06 1203.75 1596.06 1203.75 1602.94 1122.96 1602.94ZM1139.47 1613.87 1116.48 1599.5 1139.47 1585.13C1141.08 1584.12 1143.2 1584.61 1144.21 1586.22 1145.22 1587.83 1144.73 1589.95 1143.12 1590.96L1124.78 1602.42 1124.78 1596.59 1143.12 1608.04C1144.73 1609.05 1145.22 1611.17 1144.21 1612.78 1143.2 1614.39 1141.08 1614.88 1139.47 1613.87ZM1199.17 1576.58 1245 1599.5 1199.17 1622.42Z" fill="#DEBDB9" fill-rule="nonzero" fill-opacity="1"/><path d="M1122.96 1162.06 1208.82 1162.06 1208.82 1168.94 1122.96 1168.94ZM1139.47 1179.87 1116.48 1165.5 1139.47 1151.13C1141.08 1150.12 1143.2 1150.61 1144.21 1152.22 1145.22 1153.83 1144.73 1155.95 1143.12 1156.96L1124.78 1168.42 1124.78 1162.59 1143.12 1174.04C1144.73 1175.05 1145.22 1177.17 1144.21 1178.78 1143.2 1180.39 1141.08 1180.88 1139.47 1179.87ZM1204.24 1142.58 1250.07 1165.5 1204.24 1188.42Z" fill="#961800" fill-rule="nonzero" fill-opacity="1"/><rect x="904" y="1124" width="212" height="190" fill="#BC7268" fill-opacity="1"/><text fill="#000000" fill-opacity="1" font-family="Roboto,Roboto_MSFontService,sans-serif" font-style="normal" font-variant="normal" font-weight="400" font-stretch="normal" font-size="55" text-anchor="start" direction="ltr" writing-mode="lr-tb" unicode-bidi="normal" text-decoration="none" transform="matrix(1 0 0 1 984.99 1205)">IP </text><text fill="#000000" fill-opacity="1" font-family="Roboto,Roboto_MSFontService,sans-serif" font-style="normal" font-variant="normal" font-weight="400" font-stretch="normal" font-size="55" text-anchor="start" direction="ltr" writing-mode="lr-tb" unicode-bidi="normal" text-decoration="none" transform="matrix(1 0 0 1 941.448 1271)">Stack</text><path d="M811.785 1215.51 862.921 1216.07 862.846 1222.94 811.71 1222.39ZM816.082 1241.91 770.5 1218.5 816.579 1196.08ZM858.55 1196.54 904.131 1219.95 858.052 1242.37Z" fill="#961800" fill-rule="nonzero" fill-opacity="1"/><rect x="1249" y="1126" width="215" height="78" fill="#BC7268" fill-opacity="1"/><text fill="#000000" fill-opacity="1" font-family="Roboto,Roboto_MSFontService,sans-serif" font-style="normal" font-variant="normal" font-weight="400" font-stretch="normal" font-size="55" text-anchor="start" direction="ltr" writing-mode="lr-tb" unicode-bidi="normal" text-decoration="none" transform="matrix(1 0 0 1 1294.94 1184)">Copy</text><rect x="1249" y="1236" width="215" height="78" fill="#BC7268" fill-opacity="1"/><text fill="#000000" fill-opacity="1" font-family="Roboto,Roboto_MSFontService,sans-serif" font-style="normal" font-variant="normal" font-weight="400" font-stretch="normal" font-size="55" text-anchor="start" direction="ltr" writing-mode="lr-tb" unicode-bidi="normal" text-decoration="none" transform="matrix(1 0 0 1 1294.74 1294)">Copy</text></g></g></svg>