<svg width="2979" height="899" xmlns="http://www.w3.org/2000/svg" xmlns:xlink="http://www.w3.org/1999/xlink" xml:space="preserve" overflow="hidden"><g transform="translate(-165 -586)"><g><path d="M29.1889 1.19419 438.377 100.586 435.673 111.72 26.4843 12.3288ZM29.3469 24.8156 0 0 37.4606-8.58813ZM435.514 88.0986 464.861 112.914 427.4 121.502Z" fill="#789A47" fill-rule="nonzero" fill-opacity="1" transform="matrix(-1 0 0 1 1659.36 728.5)"/><rect x="2814" y="845" width="311" height="346" fill="#000000" fill-opacity="1"/><text fill="#FFFFFF" fill-opacity="1" font-family="Roboto,Roboto_MSFontService,sans-serif" font-style="normal" font-variant="normal" font-weight="400" font-stretch="normal" font-size="83" text-anchor="start" direction="ltr" writing-mode="lr-tb" unicode-bidi="normal" text-decoration="none" transform="matrix(1 0 0 1 2847.09 1047)">Device</text><rect x="1940" y="841" width="311" height="346" fill="#FFD372" fill-opacity="1"/><text fill="#000000" fill-opacity="1" font-family="Roboto,Roboto_MSFontService,sans-serif" font-style="normal" font-variant="normal" font-weight="400" font-stretch="normal" font-size="83" text-anchor="start" direction="ltr" writing-mode="lr-tb" unicode-bidi="normal" text-decoration="none" transform="matrix(1 0 0 1 1998.68 1043)">Driver</text><rect x="1020" y="841" width="347" height="140" fill="#CBE4AA" fill-opacity="1"/><text fill="#000000" fill-opacity="1" font-family="Roboto,Roboto_MSFontService,sans-serif" font-style="normal" font-variant="normal" font-weight="400" font-stretch="normal" font-size="83" text-anchor="start" direction="ltr" writing-mode="lr-tb" unicode-bidi="normal" text-decoration="none" transform="matrix(1 0 0 1 1074.46 936)">Tx </text><text fill="#000000" fill-opacity="1" font-family="Roboto,Roboto_MSFontService,sans-serif" font-style="normal" font-variant="normal" font-weight="400" font-stretch="normal" font-size="83" text-anchor="start" direction="ltr" writing-mode="lr-tb" unicode-bidi="normal" text-decoration="none" transform="matrix(1 0 0 1 1185.03 936)">Virt</text><rect x="192" y="1323" width="2933" height="140" fill="#9AA8BC" fill-opacity="1"/><text fill="#000000" fill-opacity="1" font-family="Roboto,Roboto_MSFontService,sans-serif" font-style="normal" font-variant="normal" font-weight="400" font-stretch="normal" font-size="73" text-anchor="start" direction="ltr" writing-mode="lr-tb" unicode-bidi="normal" text-decoration="none" transform="matrix(1 0 0 1 1532.44 1419)">Rx Data</text><rect x="1480" y="861" width="347" height="105" fill="#9AA8BC" fill-opacity="1"/><text fill="#000000" fill-opacity="1" font-family="Roboto,Roboto_MSFontService,sans-serif" font-style="normal" font-variant="normal" font-weight="400" font-stretch="normal" font-size="73" text-anchor="start" direction="ltr" writing-mode="lr-tb" unicode-bidi="normal" text-decoration="none" transform="matrix(1 0 0 1 1515.27 940)">Tx D MD</text><rect x="2363" y="1062" width="339" height="103" fill="#9AA8BC" fill-opacity="1"/><text fill="#000000" fill-opacity="1" font-family="Roboto,Roboto_MSFontService,sans-serif" font-style="normal" font-variant="normal" font-weight="400" font-stretch="normal" font-size="73" text-anchor="start" direction="ltr" writing-mode="lr-tb" unicode-bidi="normal" text-decoration="none" transform="matrix(1 0 0 1 2405.55 1140)">Dev MD</text><path d="M25.4995 14.2542 93.9459 72.7442 86.502 81.4552 18.0556 22.9652ZM14.9672 35.3982 0 0 37.2989 9.26513ZM97.0343 60.3112 112.002 95.7094 74.7026 86.4443Z" fill="#000000" fill-rule="nonzero" fill-opacity="1" transform="matrix(-1 0 0 1 2814.5 1018.5)"/><path d="M2338.31 1099.55 2269.07 1037.84 2276.7 1029.28 2345.93 1091ZM2349.28 1078.63 2363.5 1114.34 2326.41 1104.29ZM2265.72 1050.2 2251.5 1014.5 2288.6 1024.54Z" fill="#C59C52" fill-rule="nonzero" fill-opacity="1"/><path d="M1914.72 1000.21 1845.03 937.869 1852.67 929.328 1922.36 991.674ZM1925.73 979.314 1939.89 1015.04 1902.82 1004.93ZM1841.66 950.228 1827.5 914.5 1864.58 924.608Z" fill="#C59C52" fill-rule="nonzero" fill-opacity="1"/><path d="M1451.13 919.024 1396.02 917.842 1396.26 906.387 1451.38 907.569ZM1445.9 895.99 1479.89 913.911 1445.16 930.357ZM1401.5 929.421 1367.5 911.5 1402.24 895.054Z" fill="#789A47" fill-rule="nonzero" fill-opacity="1"/><path d="M1630.26 1320.8 1220.39 1201.03 1223.6 1190.04 1633.47 1309.8ZM1631.19 1297.2 1659.36 1323.33 1621.54 1330.19ZM1222.67 1213.64 1194.5 1187.5 1232.32 1180.64Z" fill="#789A47" fill-rule="nonzero" fill-opacity="1"/><path d="M29.0746-2.83628 1282.71 123.143 1281.56 134.544 27.9289 8.56463ZM32.4842 20.5384 0 0 35.9213-13.6643ZM1278.15 111.169 1310.64 131.707 1274.72 145.372Z" fill="#000000" fill-rule="nonzero" fill-opacity="1" transform="matrix(1 0 0 -1 1658.5 1323.21)"/><rect x="1480" y="1062" width="347" height="103" fill="#9AA8BC" fill-opacity="1"/><text fill="#000000" fill-opacity="1" font-family="Roboto,Roboto_MSFontService,sans-serif" font-style="normal" font-variant="normal" font-weight="400" font-stretch="normal" font-size="73" text-anchor="start" direction="ltr" writing-mode="lr-tb" unicode-bidi="normal" text-decoration="none" transform="matrix(1 0 0 1 1514.41 1140)">Rx </text><text fill="#000000" fill-opacity="1" font-family="Roboto,Roboto_MSFontService,sans-serif" font-style="normal" font-variant="normal" font-weight="400" font-stretch="normal" font-size="73" text-anchor="start" direction="ltr" writing-mode="lr-tb" unicode-bidi="normal" text-decoration="none" transform="matrix(1 0 0 1 1614.1 1140)">D</text><text fill="#000000" fill-opacity="1" font-family="Roboto,Roboto_MSFontService,sans-serif" font-style="normal" font-variant="normal" font-weight="400" font-stretch="normal" font-size="73" text-anchor="start" direction="ltr" writing-mode="lr-tb" unicode-bidi="normal" text-decoration="none" transform="matrix(1 0 0 1 1680.55 1140)">M</text><text fill="#000000" fill-opacity="1" font-family="Roboto,Roboto_MSFontService,sans-serif" font-style="normal" font-variant="normal" font-weight="400" font-stretch="normal" font-size="73" text-anchor="start" direction="ltr" writing-mode="lr-tb" unicode-bidi="normal" text-decoration="none" transform="matrix(1 0 0 1 1744.72 1140)">D</text><path d="M28.7936-4.93302 83.9185-3.4046 83.6009 8.04933 28.476 6.52091ZM33.8854 18.1336 0 0 34.8382-16.2282ZM78.5091-15.0173 112.395 3.11631 77.5564 19.3445Z" fill="#789A47" fill-rule="nonzero" fill-opacity="1" transform="matrix(-1 0 0 1 1479.89 1114.5)"/><path d="M25.2215 14.7405 94.7825 76.5294 87.173 85.0961 17.612 23.3072ZM14.2858 35.6787 0 0 37.1144 9.97855ZM98.1087 64.1579 112.395 99.8365 75.2801 89.858Z" fill="#C59C52" fill-rule="nonzero" fill-opacity="1" transform="matrix(-1 0 0 1 1939.89 1014.5)"/><rect x="1020" y="1047" width="347" height="140" fill="#CBE4AA" fill-opacity="1"/><text fill="#000000" fill-opacity="1" font-family="Roboto,Roboto_MSFontService,sans-serif" font-style="normal" font-variant="normal" font-weight="400" font-stretch="normal" font-size="83" text-anchor="start" direction="ltr" writing-mode="lr-tb" unicode-bidi="normal" text-decoration="none" transform="matrix(1 0 0 1 1073.6 1142)">Rx </text><text fill="#000000" fill-opacity="1" font-family="Roboto,Roboto_MSFontService,sans-serif" font-style="normal" font-variant="normal" font-weight="400" font-stretch="normal" font-size="83" text-anchor="start" direction="ltr" writing-mode="lr-tb" unicode-bidi="normal" text-decoration="none" transform="matrix(1 0 0 1 1185.89 1142)">Virt</text><rect x="2363" y="845" width="339" height="105" fill="#9AA8BC" fill-opacity="1"/><text fill="#000000" fill-opacity="1" font-family="Roboto,Roboto_MSFontService,sans-serif" font-style="normal" font-variant="normal" font-weight="400" font-stretch="normal" font-size="73" text-anchor="start" direction="ltr" writing-mode="lr-tb" unicode-bidi="normal" text-decoration="none" transform="matrix(1 0 0 1 2404.69 923)">Dev Ctrl</text><path d="M23.967 16.703 96.3027 92.0897 88.0349 100.023 15.6992 24.6362ZM11.3979 36.7034 0 0 36.2015 12.9037ZM100.604 80.0226 112.002 116.726 75.8004 103.822Z" fill="#C59C52" fill-rule="nonzero" fill-opacity="1" transform="matrix(-1 0 0 1 2363.5 897.5)"/><path d="M2790.83 1001.24 2717.77 922.405 2726.17 914.616 2799.23 993.448ZM2803.74 981.458 2814.5 1018.35 2778.53 1004.82ZM2713.26 934.396 2702.5 897.5 2738.47 911.03Z" fill="#000000" fill-rule="nonzero" fill-opacity="1"/><rect x="560" y="859" width="347" height="104" fill="#9AA8BC" fill-opacity="1"/><text fill="#000000" fill-opacity="1" font-family="Roboto,Roboto_MSFontService,sans-serif" font-style="normal" font-variant="normal" font-weight="400" font-stretch="normal" font-size="73" text-anchor="start" direction="ltr" writing-mode="lr-tb" unicode-bidi="normal" text-decoration="none" transform="matrix(1 0 0 1 596.119 937)">Tx V MD</text><path d="M28.6458-5.72907 83.7491-5.7289 83.749 5.72944 28.6458 5.72926ZM34.3749 17.1876 0 0 34.3751-17.1874ZM78.0199-17.1872 112.395 0.000360892 78.0198 17.1878Z" fill="#789A47" fill-rule="nonzero" fill-opacity="1" transform="matrix(-1 0 0 1 1019.89 911.5)"/><rect x="560" y="1064" width="347" height="103" fill="#9AA8BC" fill-opacity="1"/><text fill="#000000" fill-opacity="1" font-family="Roboto,Roboto_MSFontService,sans-serif" font-style="normal" font-variant="normal" font-weight="400" font-stretch="normal" font-size="73" text-anchor="start" direction="ltr" writing-mode="lr-tb" unicode-bidi="normal" text-decoration="none" transform="matrix(1 0 0 1 595.26 1142)">Rx V MD</text><path d="M991.18 1123.26 936.073 1122.58 936.214 1111.13 991.322 1111.81ZM985.735 1100.28 1019.89 1117.89 985.31 1134.65ZM941.66 1134.11 907.5 1116.5 942.085 1099.74Z" fill="#789A47" fill-rule="nonzero" fill-opacity="1"/><rect x="192" y="845" width="250" height="346" stroke="#000000" stroke-width="5.72917" stroke-linecap="butt" stroke-linejoin="round" stroke-miterlimit="10" stroke-dasharray="22.9167 17.1875" stroke-opacity="1" fill="#FFFFFF" fill-opacity="1"/><text fill="#000000" fill-opacity="1" font-family="Roboto,Roboto_MSFontService,sans-serif" font-style="normal" font-variant="normal" font-weight="400" font-stretch="normal" font-size="83" text-anchor="start" direction="ltr" writing-mode="lr-tb" unicode-bidi="normal" text-decoration="none" transform="matrix(1 0 0 1 216.212 1047)">Client</text><path d="M25.0502 15.0298 100.448 83.5721 92.7407 92.0506 17.3426 23.5083ZM13.8743 35.8407 0 0 36.9971 10.405ZM103.917 71.2397 117.791 107.08 80.7938 96.6754Z" fill="#A6A6A6" fill-rule="nonzero" fill-opacity="1" transform="matrix(-1 0 0 1 560.291 911.5)"/><path d="M534.567 1102.09 460.921 1041.17 468.224 1032.34 541.87 1093.26ZM544.759 1080.78 560.291 1115.94 522.849 1107.27ZM458.032 1053.65 442.5 1018.5 479.942 1027.17Z" fill="#A6A6A6" fill-rule="nonzero" fill-opacity="1"/><path d="M1629.68 1326.11 345.45 1200 346.57 1188.6 1630.8 1314.71ZM1626.21 1302.74 1658.74 1323.21 1622.85 1336.95ZM350.031 1211.96 317.5 1191.5 353.39 1177.75Z" fill="#A6A6A6" fill-rule="nonzero" fill-opacity="1"/><rect x="192" y="588" width="2933" height="140" fill="#9AA8BC" fill-opacity="1"/><text fill="#000000" fill-opacity="1" font-family="Roboto,Roboto_MSFontService,sans-serif" font-style="normal" font-variant="normal" font-weight="400" font-stretch="normal" font-size="73" text-anchor="start" direction="ltr" writing-mode="lr-tb" unicode-bidi="normal" text-decoration="none" transform="matrix(1 0 0 1 1533.3 684)">Tx</text><text fill="#000000" fill-opacity="1" font-family="Roboto,Roboto_MSFontService,sans-serif" font-style="normal" font-variant="normal" font-weight="400" font-stretch="normal" font-size="73" text-anchor="start" direction="ltr" writing-mode="lr-tb" unicode-bidi="normal" text-decoration="none" transform="matrix(1 0 0 1 1631.27 684)">Data</text><path d="M1687.54 725.341 2941.12 837.287 2940.1 848.7 1686.52 736.754ZM1691.21 748.677 1658.5 728.5 1694.27 714.438ZM2936.43 825.364 2969.14 845.541 2933.37 859.603Z" fill="#000000" fill-rule="nonzero" fill-opacity="1"/><path d="M29.0334-3.21739 1313.21 108.844 1312.21 120.259 28.0373 8.19756ZM32.7507 20.1107 0 0 35.739-14.1341ZM1308.49 96.9306 1341.24 117.041 1305.51 131.175Z" fill="#A6A6A6" fill-rule="nonzero" fill-opacity="1" transform="matrix(-1 0 0 1 1658.74 728.5)"/></g></g></svg>