<svg width="1980" height="651" xmlns="http://www.w3.org/2000/svg" xmlns:xlink="http://www.w3.org/1999/xlink" xml:space="preserve" overflow="hidden"><g transform="translate(-664 -976)"><g><rect x="1061" y="994" width="1200" height="383" fill="#9AA8BC" fill-opacity="1"/><text fill="#000000" fill-opacity="1" font-family="Roboto,Roboto_MSFontService,sans-serif" font-style="normal" font-variant="normal" font-weight="400" font-stretch="normal" font-size="73" text-anchor="start" direction="ltr" writing-mode="lr-tb" unicode-bidi="normal" text-decoration="none" transform="matrix(1 0 0 1 1343.12 1080)">Tx Metadata Region</text><rect x="2307" y="989" width="332" height="383" fill="#FFD372" fill-opacity="1"/><text fill="#000000" fill-opacity="1" font-family="Roboto,Roboto_MSFontService,sans-serif" font-style="normal" font-variant="normal" font-weight="400" font-stretch="normal" font-size="83" text-anchor="start" direction="ltr" writing-mode="lr-tb" unicode-bidi="normal" text-decoration="none" transform="matrix(1 0 0 1 2376.87 1084)">Driver</text><path d="M2487.65 1186.39 2484.89 1188.11 2482.72 1189.61 2480.98 1190.98 2479.67 1192.18 2480.15 1191.67 2478.07 1194.24 2478.83 1192.89 2478.03 1195.12 2478.22 1192.77 2478.57 1194.7 2477.62 1192.63 2478.97 1194.28 2477.89 1193.32 2480.09 1194.74 2479.37 1194.36 2482.27 1195.57 2485.28 1196.44 2488.86 1197.25 2497.02 1198.68 2505.2 1199.94 2509.01 1200.6 2512.44 1201.33C2514.14 1201.69 2515.49 1202.98 2515.92 1204.66L2516.89 1208.4 2517.58 1211.68 2517.97 1214.5 2518.06 1217.01C2518.07 1217.26 2518.06 1217.51 2518.02 1217.76L2517.8 1219.38C2517.75 1219.71 2517.67 1220.03 2517.55 1220.34L2517.07 1221.65C2516.88 1222.14 2516.62 1222.59 2516.29 1222.99L2514.59 1225.02C2514.34 1225.31 2514.06 1225.57 2513.75 1225.8L2511.18 1227.65 2507.84 1230.03 2506.21 1231.41 2504.4 1233.18 2502.46 1235.41 2500.37 1238.19 2500.03 1232.26 2501.75 1234.06 2504.06 1236.38 2506.81 1239.37 2509.47 1242.88C2509.64 1243.1 2509.78 1243.33 2509.9 1243.57L2511.58 1246.92C2511.73 1247.21 2511.84 1247.51 2511.93 1247.83L2512.36 1249.53C2512.44 1249.82 2512.49 1250.12 2512.5 1250.42L2512.6 1252.11C2512.62 1252.47 2512.59 1252.83 2512.53 1253.19L2512.22 1254.86C2512.15 1255.25 2512.03 1255.62 2511.87 1255.98L2511.1 1257.61C2510.94 1257.95 2510.75 1258.27 2510.51 1258.56L2509.23 1260.13C2509.03 1260.37 2508.81 1260.6 2508.56 1260.8L2506.71 1262.3C2506.45 1262.51 2506.16 1262.7 2505.86 1262.85L2503.01 1264.26 2499.17 1265.73 2491.43 1268 2487.84 1268.87 2484.96 1269.5 2483 1269.9 2482.26 1270.04 2485.79 1266.84 2484.15 1272.4 2484.21 1270.04 2485.63 1275.98 2476.71 1278.1 2475.29 1272.16C2475.11 1271.38 2475.13 1270.57 2475.36 1269.8L2477 1264.24C2477.49 1262.59 2478.85 1261.36 2480.54 1261.04L2481.18 1260.91 2483 1260.54 2485.69 1259.95 2488.87 1259.19 2495.93 1257.15 2498.95 1256.04 2501.79 1254.63 2500.94 1255.18 2502.79 1253.68 2502.12 1254.35 2503.39 1252.78 2502.8 1253.72 2503.56 1252.09 2503.21 1253.21 2503.51 1251.54 2503.45 1252.62 2503.35 1250.93 2503.49 1251.82 2503.05 1250.12 2503.39 1251.03 2501.71 1247.68 2502.14 1248.38 2500.06 1245.56 2497.59 1242.86 2495.12 1240.4 2493.4 1238.6C2491.85 1236.97 2491.7 1234.46 2493.06 1232.67L2495.58 1229.35 2498.01 1226.61 2500.32 1224.39 2502.52 1222.56 2505.83 1220.2 2508.4 1218.35 2507.56 1219.13 2509.26 1217.1 2508.48 1218.44 2508.96 1217.14 2508.72 1218.11 2508.94 1216.5 2508.9 1217.24 2508.89 1215.74 2508.61 1213.56 2508.01 1210.69 2507.04 1206.95 2510.53 1210.29 2507.44 1209.63 2503.8 1209 2495.43 1207.71 2486.81 1206.19 2482.66 1205.22 2478.75 1204.03 2475.84 1202.82C2475.59 1202.72 2475.35 1202.59 2475.12 1202.44L2472.92 1201.02C2472.52 1200.76 2472.16 1200.44 2471.85 1200.06L2470.5 1198.41C2470.02 1197.81 2469.69 1197.09 2469.55 1196.33L2469.2 1194.4C2469.06 1193.61 2469.13 1192.8 2469.4 1192.05L2470.19 1189.81C2470.37 1189.32 2470.62 1188.87 2470.95 1188.46L2473.04 1185.89C2473.18 1185.71 2473.35 1185.54 2473.52 1185.38L2475.35 1183.74 2477.52 1182.07 2480.04 1180.33 2482.8 1178.61ZM2492.5 1268.01 2489.06 1298.56 2466.68 1277.47Z" fill="#000000" fill-rule="nonzero" fill-opacity="1"/><rect x="683" y="989" width="332" height="383" fill="#CBE4AA" fill-opacity="1"/><text fill="#000000" fill-opacity="1" font-family="Roboto,Roboto_MSFontService,sans-serif" font-style="normal" font-variant="normal" font-weight="400" font-stretch="normal" font-size="83" text-anchor="start" direction="ltr" writing-mode="lr-tb" unicode-bidi="normal" text-decoration="none" transform="matrix(1 0 0 1 795.772 1084)">Virt</text><path d="M864.184 1186.37 861.466 1188.09 859.332 1189.59 857.625 1190.95 856.334 1192.16 856.815 1191.64 854.762 1194.21 855.506 1192.87 854.723 1195.1 854.91 1192.78 855.254 1194.71 854.321 1192.65 855.647 1194.31 854.579 1193.34 856.742 1194.76 856.016 1194.37 858.873 1195.58 861.822 1196.45 865.343 1197.26 873.363 1198.68 881.412 1199.94 885.165 1200.6 888.546 1201.33C890.246 1201.7 891.591 1202.99 892.019 1204.68L892.968 1208.42 893.649 1211.69 894.039 1214.51 894.128 1217.02C894.134 1217.26 894.12 1217.51 894.086 1217.75L893.865 1219.37C893.82 1219.69 893.74 1220.01 893.626 1220.32L893.148 1221.63C892.97 1222.11 892.711 1222.56 892.383 1222.96L890.71 1224.99C890.466 1225.29 890.186 1225.55 889.876 1225.78L887.345 1227.63 884.056 1230.01 882.458 1231.39 880.681 1233.16 878.769 1235.38 876.717 1238.16 876.376 1232.29 878.068 1234.09 880.35 1236.4 883.056 1239.39 885.678 1242.91C885.838 1243.12 885.979 1243.35 886.099 1243.6L887.753 1246.94C887.896 1247.23 888.008 1247.53 888.087 1247.84L888.518 1249.54C888.591 1249.83 888.636 1250.12 888.653 1250.42L888.746 1252.11C888.765 1252.47 888.743 1252.83 888.68 1253.18L888.379 1254.85C888.31 1255.23 888.193 1255.6 888.031 1255.95L887.279 1257.58C887.124 1257.92 886.928 1258.24 886.697 1258.53L885.439 1260.1C885.241 1260.35 885.018 1260.58 884.773 1260.78L882.952 1262.28C882.688 1262.49 882.401 1262.68 882.095 1262.83L879.291 1264.24 875.505 1265.72 867.877 1267.99 864.332 1268.86 861.499 1269.49 859.571 1269.89 858.835 1270.04 862.362 1266.82 860.742 1272.38 860.802 1270.04 862.199 1275.94 853.279 1278.05 851.882 1272.16C851.699 1271.39 851.72 1270.58 851.941 1269.82L853.561 1264.26C854.041 1262.61 855.402 1261.37 857.088 1261.04L857.719 1260.92 859.505 1260.55 862.154 1259.96 865.277 1259.2 872.221 1257.16 875.178 1256.05 877.982 1254.64 877.124 1255.2 878.945 1253.7 878.279 1254.38 879.537 1252.8 878.954 1253.75 879.706 1252.12 879.358 1253.22 879.659 1251.55 879.593 1252.62 879.5 1250.92 879.634 1251.8 879.202 1250.1 879.536 1251 877.882 1247.66 878.303 1248.35 876.253 1245.54 873.82 1242.83 871.393 1240.37 869.701 1238.57C868.179 1236.95 868.035 1234.48 869.36 1232.7L871.846 1229.37 874.243 1226.63 876.515 1224.41 878.68 1222.58 881.94 1220.22 884.47 1218.37 883.636 1219.16 885.308 1217.13 884.543 1218.47 885.022 1217.16 884.783 1218.12 885.005 1216.51 884.964 1217.24 884.953 1215.73 884.672 1213.55 884.083 1210.67 883.135 1206.94 886.607 1210.29 883.575 1209.63 879.992 1209 871.755 1207.7 863.262 1206.18 859.162 1205.22 855.3 1204.02 852.444 1202.81C852.191 1202.7 851.948 1202.57 851.718 1202.42L849.555 1201.01C849.15 1200.74 848.789 1200.41 848.487 1200.04L847.162 1198.38C846.684 1197.78 846.363 1197.07 846.229 1196.32L845.885 1194.39C845.747 1193.61 845.812 1192.81 846.072 1192.07L846.855 1189.84C847.026 1189.35 847.277 1188.89 847.599 1188.49L849.653 1185.92C849.8 1185.74 849.961 1185.56 850.134 1185.4L851.94 1183.76 854.073 1182.09 856.56 1180.35 859.278 1178.63ZM869.125 1268.03 865.5 1298.56 843.25 1277.34Z" fill="#000000" fill-rule="nonzero" fill-opacity="1"/><rect x="669" y="1438" width="1970" height="154" fill="#9AA8BC" fill-opacity="1"/><text fill="#000000" fill-opacity="1" font-family="Roboto,Roboto_MSFontService,sans-serif" font-style="normal" font-variant="normal" font-weight="400" font-stretch="normal" font-size="73" text-anchor="start" direction="ltr" writing-mode="lr-tb" unicode-bidi="normal" text-decoration="none" transform="matrix(1 0 0 1 1416.21 1541)">Tx Data Region</text><path d="M1242.03 1273.98 1301.69 1290.52 1298.63 1301.56 1238.97 1285.02ZM1299.23 1277.95 1327.77 1303.69 1290.05 1311.07Z" fill="#CBE4AA" fill-rule="nonzero" fill-opacity="1"/><path d="M3.8541-4.23901 58.2104 45.1816 50.5022 53.6597-3.8541 4.23901ZM61.6796 32.8495 75.5514 68.6912 38.555 58.2836Z" fill="#FFE6B1" fill-rule="nonzero" fill-opacity="1" transform="matrix(-1 0 0 1 1592.05 1211.5)"/><path d="M1313.5 1219.5C1313.5 1164.82 1357.6 1120.5 1412 1120.5 1466.4 1120.5 1510.5 1164.82 1510.5 1219.5 1510.5 1274.18 1466.4 1318.5 1412 1318.5 1357.6 1318.5 1313.5 1274.18 1313.5 1219.5Z" stroke="#FFD372" stroke-width="6.875" stroke-linecap="butt" stroke-linejoin="round" stroke-miterlimit="10" stroke-opacity="1" fill="none" fill-rule="evenodd"/><rect x="1392" y="1101" width="39.0002" height="38.9999" fill="#FFD271" fill-opacity="1"/><rect x="1394" y="1299" width="40.0002" height="38.9999" fill="#FFD271" fill-opacity="1"/><rect x="1491" y="1199" width="39.0002" height="39.9999" fill="#FFD271" fill-opacity="1"/><rect x="1293" y="1199" width="40.0002" height="39.9999" fill="#FFD271" fill-opacity="1"/><path d="M1482.69 1120.23 1510.4 1148.33 1482.29 1176.04 1454.58 1147.94Z" fill="#FFD271" fill-rule="nonzero" fill-opacity="1"/><path d="M1341.15 1261.75 1368.86 1289.86 1340.75 1317.57 1313.04 1289.46Z" fill="#FFD271" fill-rule="nonzero" fill-opacity="1"/><path d="M1490.86 1261.75 1518.57 1289.86 1490.47 1317.57 1462.76 1289.46Z" fill="#FFD271" fill-rule="nonzero" fill-opacity="1"/><path d="M1342.24 1119.3 1369.95 1147.4 1341.85 1175.11 1314.14 1147.01Z" fill="#FFD271" fill-rule="nonzero" fill-opacity="1"/><text fill="#FFE6B1" fill-opacity="1" font-family="American Typewriter,American Typewriter_MSFontService,sans-serif" font-style="normal" font-variant="normal" font-weight="400" font-stretch="condensed" font-size="83" text-anchor="start" direction="ltr" writing-mode="lr-tb" unicode-bidi="normal" text-decoration="none" transform="matrix(1 0 0 1 1348.68 1246)">TxA</text><text fill="#CBE4AA" fill-opacity="1" font-family="American Typewriter,American Typewriter_MSFontService,sans-serif" font-style="normal" font-variant="normal" font-weight="400" font-stretch="condensed" font-size="83" text-anchor="start" direction="ltr" writing-mode="lr-tb" unicode-bidi="normal" text-decoration="none" transform="matrix(1 0 0 1 1085.1 1306)">head</text><text fill="#FFE6B1" fill-opacity="1" font-family="American Typewriter,American Typewriter_MSFontService,sans-serif" font-style="normal" font-variant="normal" font-weight="400" font-stretch="condensed" font-size="83" text-anchor="start" direction="ltr" writing-mode="lr-tb" unicode-bidi="normal" text-decoration="none" transform="matrix(1 0 0 1 1595.14 1238)">tail</text><path d="M1814.07 1230.67 1814.58 1220.2 1816.11 1210.03 1818.62 1200.2 1822.05 1190.78 1826.35 1181.82 1831.47 1173.36 1837.35 1165.47 1843.95 1158.18 1851.21 1151.56 1859.09 1145.65 1867.53 1140.51 1876.47 1136.18 1885.88 1132.72 1895.69 1130.18 1905.86 1128.61 1916.33 1128.07 1926.8 1128.58 1936.97 1130.11 1946.8 1132.62 1956.22 1136.05 1965.18 1140.35 1973.64 1145.47 1981.53 1151.35 1988.82 1157.95 1995.44 1165.21 2001.35 1173.09 2006.49 1181.53 2010.82 1190.47 2014.28 1199.88 2016.82 1209.69 2018.39 1219.86 2018.93 1230.33 2018.42 1240.8 2016.89 1250.97 2014.38 1260.8 2010.95 1270.22 2006.65 1279.18 2001.53 1287.64 1995.65 1295.53 1989.05 1302.82 1981.79 1309.44 1973.91 1315.35 1965.47 1320.49 1956.53 1324.82 1947.12 1328.28 1937.31 1330.82 1927.14 1332.39 1916.67 1332.93 1906.2 1332.42 1896.03 1330.89 1886.2 1328.38 1876.78 1324.95 1867.82 1320.65 1859.36 1315.53 1851.47 1309.65 1844.18 1303.05 1837.56 1295.79 1831.65 1287.91 1826.51 1279.47 1822.18 1270.53 1818.72 1261.12 1816.18 1251.31 1814.61 1241.14ZM1821.41 1240.1 1822.84 1249.6 1825.18 1258.76 1828.38 1267.54 1832.39 1275.9 1837.16 1283.79 1842.65 1291.16 1848.81 1297.96 1855.59 1304.14 1862.93 1309.65 1870.8 1314.45 1879.15 1318.49 1887.92 1321.72 1897.07 1324.09 1906.55 1325.56 1916.33 1326.07 1926.1 1325.59 1935.6 1324.16 1944.76 1321.82 1953.54 1318.62 1961.9 1314.61 1969.79 1309.84 1977.16 1304.35 1983.96 1298.19 1990.14 1291.41 1995.65 1284.07 2000.45 1276.2 2004.49 1267.85 2007.72 1259.08 2010.09 1249.93 2011.56 1240.45 2012.07 1230.67 2011.59 1220.9 2010.16 1211.4 2007.82 1202.24 2004.62 1193.46 2000.61 1185.1 1995.84 1177.21 1990.35 1169.84 1984.19 1163.04 1977.41 1156.86 1970.07 1151.35 1962.2 1146.55 1953.85 1142.51 1945.08 1139.28 1935.93 1136.91 1926.45 1135.44 1916.67 1134.93 1906.9 1135.41 1897.4 1136.84 1888.24 1139.18 1879.46 1142.38 1871.1 1146.39 1863.21 1151.16 1855.84 1156.65 1849.04 1162.81 1842.86 1169.59 1837.35 1176.93 1832.55 1184.8 1828.51 1193.15 1825.28 1201.92 1822.91 1211.07 1821.44 1220.55 1820.93 1230.33Z" fill="#A5D162" fill-rule="nonzero" fill-opacity="1"/><rect x="1896" y="1112" width="39.9999" height="38.9999" fill="#A5D162" fill-opacity="1"/><rect x="1899" y="1310" width="39.0002" height="38.9999" fill="#A5D162" fill-opacity="1"/><rect x="1995" y="1210" width="39.9999" height="39.9999" fill="#A5D162" fill-opacity="1"/><rect x="1798" y="1210" width="38.9999" height="39.9999" fill="#A5D162" fill-opacity="1"/><path d="M1987.13 1131.39 2014.84 1159.5 1986.74 1187.21 1959.03 1159.1Z" fill="#A5D162" fill-rule="nonzero" fill-opacity="1"/><path d="M1845.6 1272.92 1873.31 1301.02 1845.2 1328.73 1817.49 1300.63Z" fill="#A5D162" fill-rule="nonzero" fill-opacity="1"/><path d="M1995.31 1272.92 2023.02 1301.02 1994.91 1328.73 1967.2 1300.63Z" fill="#A5D162" fill-rule="nonzero" fill-opacity="1"/><path d="M1846.69 1130.46 1874.4 1158.56 1846.3 1186.27 1818.59 1158.17Z" fill="#A5D162" fill-rule="nonzero" fill-opacity="1"/><text fill="#CBE4AA" fill-opacity="1" font-family="American Typewriter,American Typewriter_MSFontService,sans-serif" font-style="normal" font-variant="normal" font-weight="400" font-stretch="condensed" font-size="83" text-anchor="start" direction="ltr" writing-mode="lr-tb" unicode-bidi="normal" text-decoration="none" transform="matrix(1 0 0 1 1855.71 1255)">TxF</text><text fill="#CBE4AA" fill-opacity="1" font-family="American Typewriter,American Typewriter_MSFontService,sans-serif" font-style="normal" font-variant="normal" font-weight="400" font-stretch="condensed" font-size="83" text-anchor="start" direction="ltr" writing-mode="lr-tb" unicode-bidi="normal" text-decoration="none" transform="matrix(1 0 0 1 2118.38 1307)">tail</text><text fill="#FFE6B1" fill-opacity="1" font-family="American Typewriter,American Typewriter_MSFontService,sans-serif" font-style="normal" font-variant="normal" font-weight="400" font-stretch="condensed" font-size="83" text-anchor="start" direction="ltr" writing-mode="lr-tb" unicode-bidi="normal" text-decoration="none" transform="matrix(1 0 0 1 1597.16 1362)">head</text><path d="M0.220423-5.72492 118.794-1.15959 118.353 10.2903-0.220423 5.72492ZM113.51-12.8299 147.198 5.66745 112.187 21.5197Z" fill="#FFE6B1" fill-rule="nonzero" fill-opacity="1" transform="matrix(1 0 0 -1 1751.5 1336.17)"/><path d="M1.87174-5.41479 74.578 19.7177 70.8346 30.5473-1.87174 5.41479ZM72.9067 7.0164 99.7803 34.4912 61.6763 39.5051Z" fill="#CBE4AA" fill-rule="nonzero" fill-opacity="1" transform="matrix(-1 0 0 1 2109.28 1280.5)"/><rect x="842" y="1462" width="92.0001" height="88" fill="#FFE6B1" fill-opacity="1"/><text fill="#000000" fill-opacity="1" font-family="Roboto,Roboto_MSFontService,sans-serif" font-style="normal" font-variant="normal" font-weight="400" font-stretch="normal" font-size="73" text-anchor="start" direction="ltr" writing-mode="lr-tb" unicode-bidi="normal" text-decoration="none" transform="matrix(1 0 0 1 867.249 1532)">2</text><path d="M0.789259-3.34567 504.502 115.483 502.923 122.174-0.789259 3.34567ZM502.408 104.393 526.017 124.09 496.094 131.159Z" fill="#FFD372" fill-rule="nonzero" fill-opacity="1" transform="matrix(-1 0 0 1 1414.52 1338.5)"/><rect x="1256" y="1484" width="91.9998" height="88" fill="#FFE6B1" fill-opacity="1"/><text fill="#000000" fill-opacity="1" font-family="Roboto,Roboto_MSFontService,sans-serif" font-style="normal" font-variant="normal" font-weight="400" font-stretch="normal" font-size="73" text-anchor="start" direction="ltr" writing-mode="lr-tb" unicode-bidi="normal" text-decoration="none" transform="matrix(1 0 0 1 1281.77 1554)">2</text><path d="M2.28939-2.5642 187.317 162.633 182.738 167.762-2.28939 2.5642ZM190.766 151.888 202.122 180.46 172.451 172.402Z" fill="#FFD372" fill-rule="nonzero" fill-opacity="1" transform="matrix(-1 0 0 1 1504.62 1304.5)"/><rect x="1119" y="1456" width="92.0001" height="87" fill="#FFE6B1" fill-opacity="1"/><text fill="#000000" fill-opacity="1" font-family="Roboto,Roboto_MSFontService,sans-serif" font-style="normal" font-variant="normal" font-weight="400" font-stretch="normal" font-size="73" text-anchor="start" direction="ltr" writing-mode="lr-tb" unicode-bidi="normal" text-decoration="none" transform="matrix(1 0 0 1 1144.5 1525)">2</text><path d="M2.35564-2.50347 147.438 134.012 142.727 139.019-2.35564 2.50347ZM151.167 123.361 161.772 152.22 132.322 143.389Z" fill="#FFD372" fill-rule="nonzero" fill-opacity="1" transform="matrix(-1 0 0 1 1327.27 1304.5)"/><rect x="1953" y="1460" width="92.0001" height="87" fill="#CBE4AA" fill-opacity="1"/><text fill="#000000" fill-opacity="1" font-family="Roboto,Roboto_MSFontService,sans-serif" font-style="normal" font-variant="normal" font-weight="400" font-stretch="normal" font-size="73" text-anchor="start" direction="ltr" writing-mode="lr-tb" unicode-bidi="normal" text-decoration="none" transform="matrix(1 0 0 1 1978.67 1530)">4</text><path d="M1921.27 1347.47 1988.69 1439.51 1983.14 1443.58 1915.73 1351.53ZM1994.3 1429.72 1999.46 1460.03 1972.12 1445.97Z" fill="#A5D162" fill-rule="nonzero" fill-opacity="1"/><rect x="2215" y="1488" width="91.9998" height="88" fill="#CBE4AA" fill-opacity="1"/><text fill="#000000" fill-opacity="1" font-family="Roboto,Roboto_MSFontService,sans-serif" font-style="normal" font-variant="normal" font-weight="400" font-stretch="normal" font-size="73" text-anchor="start" direction="ltr" writing-mode="lr-tb" unicode-bidi="normal" text-decoration="none" transform="matrix(1 0 0 1 2240.76 1558)">4</text><path d="M2011.45 1312.67 2244.98 1473.24 2241.09 1478.91 2007.55 1318.33ZM2247.05 1462.15 2261.92 1489.06 2231.47 1484.81Z" fill="#A5D162" fill-rule="nonzero" fill-opacity="1"/><rect x="720" y="1469" width="91.9998" height="87.0004" fill="#789A47" fill-opacity="1"/><text fill="#FFFFFF" fill-opacity="1" font-family="Roboto,Roboto_MSFontService,sans-serif" font-style="normal" font-variant="normal" font-weight="400" font-stretch="normal" font-size="73" text-anchor="start" direction="ltr" writing-mode="lr-tb" unicode-bidi="normal" text-decoration="none" transform="matrix(1 0 0 1 744.992 1538)">1</text><path d="M2.59323-2.25645 71.2737 76.675 66.0872 81.1879-2.59323 2.25645ZM76.0448 66.448 83.7234 96.2197 55.2989 84.4996Z" fill="#789A47" fill-rule="nonzero" fill-opacity="1" transform="matrix(-1 0 0 1 850.224 1372.5)"/><rect x="951" y="1495" width="91.9998" height="88" fill="#789A47" fill-opacity="1"/><text fill="#FFFFFF" fill-opacity="1" font-family="Roboto,Roboto_MSFontService,sans-serif" font-style="normal" font-variant="normal" font-weight="400" font-stretch="normal" font-size="73" text-anchor="start" direction="ltr" writing-mode="lr-tb" unicode-bidi="normal" text-decoration="none" transform="matrix(1 0 0 1 976.267 1565)">1</text><path d="M851.699 1369.86 981.64 1478.05 977.241 1483.33 847.3 1375.14ZM984.717 1467.19 997.052 1495.36 967.12 1488.33Z" fill="#789A47" fill-rule="nonzero" fill-opacity="1"/><rect x="2096" y="1483" width="93.0002" height="88" fill="#C59C52" fill-opacity="1"/><text fill="#FFFFFF" fill-opacity="1" font-family="Roboto,Roboto_MSFontService,sans-serif" font-style="normal" font-variant="normal" font-weight="400" font-stretch="normal" font-size="73" text-anchor="start" direction="ltr" writing-mode="lr-tb" unicode-bidi="normal" text-decoration="none" transform="matrix(1 0 0 1 2121.87 1553)">3</text><path d="M1.09257-3.25925 310.285 100.389 308.099 106.907-1.09257 3.25925ZM309.217 89.1543 330.92 110.932 300.476 115.228Z" fill="#C59C52" fill-rule="nonzero" fill-opacity="1" transform="matrix(-1 0 0 1 2473.42 1372.5)"/><rect x="2485" y="1458" width="92.0002" height="88" fill="#C59C52" fill-opacity="1"/><text fill="#FFFFFF" fill-opacity="1" font-family="Roboto,Roboto_MSFontService,sans-serif" font-style="normal" font-variant="normal" font-weight="400" font-stretch="normal" font-size="73" text-anchor="start" direction="ltr" writing-mode="lr-tb" unicode-bidi="normal" text-decoration="none" transform="matrix(1 0 0 1 2510.37 1528)">3</text><path d="M2476.35 1370.59 2521.17 1437.4 2515.46 1441.23 2470.65 1374.41ZM2527.18 1427.85 2531.08 1458.35 2504.34 1443.17Z" fill="#C59C52" fill-rule="nonzero" fill-opacity="1"/></g></g></svg>